%TF.GenerationSoftware,KiCad,Pcbnew,9.0.0*%
%TF.CreationDate,2025-03-13T17:07:21-04:00*%
%TF.ProjectId,Tenebra,54656e65-6272-4612-9e6b-696361645f70,v1.0.0*%
%TF.SameCoordinates,Original*%
%TF.FileFunction,Copper,L2,Bot*%
%TF.FilePolarity,Positive*%
%FSLAX46Y46*%
G04 Gerber Fmt 4.6, Leading zero omitted, Abs format (unit mm)*
G04 Created by KiCad (PCBNEW 9.0.0) date 2025-03-13 17:07:21*
%MOMM*%
%LPD*%
G01*
G04 APERTURE LIST*
G04 Aperture macros list*
%AMRotRect*
0 Rectangle, with rotation*
0 The origin of the aperture is its center*
0 $1 length*
0 $2 width*
0 $3 Rotation angle, in degrees counterclockwise*
0 Add horizontal line*
21,1,$1,$2,0,0,$3*%
%AMFreePoly0*
4,1,6,0.600000,-1.000000,0.000000,-0.400000,-0.600000,-1.000000,-0.600000,0.250000,0.600000,0.250000,0.600000,-1.000000,0.600000,-1.000000,$1*%
%AMFreePoly1*
4,1,6,0.600000,-0.200000,0.600000,-0.400000,-0.600000,-0.400000,-0.600000,-0.200000,0.000000,0.400000,0.600000,-0.200000,0.600000,-0.200000,$1*%
G04 Aperture macros list end*
%TA.AperFunction,SMDPad,CuDef*%
%ADD10R,2.600000X2.600000*%
%TD*%
%TA.AperFunction,ComponentPad*%
%ADD11C,1.700000*%
%TD*%
%TA.AperFunction,SMDPad,CuDef*%
%ADD12RotRect,2.600000X2.600000X55.000000*%
%TD*%
%TA.AperFunction,SMDPad,CuDef*%
%ADD13FreePoly0,90.000000*%
%TD*%
%TA.AperFunction,ComponentPad*%
%ADD14O,1.750000X1.200000*%
%TD*%
%TA.AperFunction,SMDPad,CuDef*%
%ADD15FreePoly1,90.000000*%
%TD*%
%TA.AperFunction,SMDPad,CuDef*%
%ADD16RotRect,1.550000X1.000000X55.000000*%
%TD*%
%TA.AperFunction,SMDPad,CuDef*%
%ADD17R,0.800000X1.000000*%
%TD*%
%TA.AperFunction,SMDPad,CuDef*%
%ADD18R,1.500000X0.700000*%
%TD*%
%TA.AperFunction,ComponentPad*%
%ADD19O,1.700000X1.700000*%
%TD*%
%TA.AperFunction,SMDPad,CuDef*%
%ADD20R,1.200000X0.600000*%
%TD*%
%TA.AperFunction,SMDPad,CuDef*%
%ADD21RotRect,2.600000X2.600000X345.000000*%
%TD*%
%TA.AperFunction,ViaPad*%
%ADD22C,0.800000*%
%TD*%
%TA.AperFunction,ViaPad*%
%ADD23C,0.600000*%
%TD*%
%TA.AperFunction,Conductor*%
%ADD24C,0.250000*%
%TD*%
%TA.AperFunction,Conductor*%
%ADD25C,0.200000*%
%TD*%
G04 APERTURE END LIST*
D10*
%TO.P,S9,1*%
%TO.N,GND*%
X132725000Y-48050000D03*
%TO.P,S9,2*%
%TO.N,main_middle_top*%
X144275000Y-50250000D03*
%TD*%
D11*
%TO.P,MCU1,1*%
%TO.N,RAW*%
X201620000Y-59800000D03*
%TO.P,MCU1,2*%
%TO.N,GND*%
X201620000Y-62340000D03*
%TO.P,MCU1,3*%
%TO.N,RST*%
X201620000Y-64880000D03*
%TO.P,MCU1,4*%
%TO.N,VCC*%
X201620000Y-67420000D03*
%TO.P,MCU1,5*%
%TO.N,main_index_top*%
X201620000Y-69960000D03*
%TO.P,MCU1,6*%
%TO.N,main_middle_top*%
X201620000Y-72500000D03*
%TO.P,MCU1,7*%
%TO.N,main_inner_home*%
X201620000Y-75040000D03*
%TO.P,MCU1,8*%
%TO.N,main_middle_home*%
X201620000Y-77580000D03*
%TO.P,MCU1,9*%
%TO.N,main_pinky_home*%
X201620000Y-80120000D03*
%TO.P,MCU1,10*%
%TO.N,main_middle_bottom*%
X201620000Y-82660000D03*
%TO.P,MCU1,11*%
%TO.N,main_ring_bottom*%
X201620000Y-85200000D03*
%TO.P,MCU1,12*%
%TO.N,main_pinky_bottom*%
X201620000Y-87740000D03*
%TO.P,MCU1,13*%
%TO.N,main_inner_bottom*%
X186380000Y-87740000D03*
%TO.P,MCU1,14*%
%TO.N,main_index_bottom*%
X186380000Y-85200000D03*
%TO.P,MCU1,15*%
%TO.N,main_ring_home*%
X186380000Y-82660000D03*
%TO.P,MCU1,16*%
%TO.N,main_index_home*%
X186380000Y-80120000D03*
%TO.P,MCU1,17*%
%TO.N,main_pinky_top*%
X186380000Y-77580000D03*
%TO.P,MCU1,18*%
%TO.N,main_ring_top*%
X186380000Y-75040000D03*
%TO.P,MCU1,19*%
%TO.N,P3*%
X186380000Y-72500000D03*
%TO.P,MCU1,20*%
%TO.N,P2*%
X186380000Y-69960000D03*
%TO.P,MCU1,21*%
%TO.N,GND*%
X186380000Y-67420000D03*
%TO.P,MCU1,22*%
X186380000Y-64880000D03*
%TO.P,MCU1,23*%
%TO.N,main_inner_top*%
X186380000Y-62340000D03*
%TO.P,MCU1,24*%
%TO.N,P1*%
X186380000Y-59800000D03*
%TO.P,MCU1,25*%
%TO.N,thumb_inner*%
X188920000Y-82660000D03*
%TO.P,MCU1,26*%
%TO.N,thumb_home*%
X191460000Y-82660000D03*
%TO.P,MCU1,27*%
%TO.N,thumb_outer*%
X194000000Y-82660000D03*
%TD*%
D12*
%TO.P,S17,1*%
%TO.N,GND*%
X175885887Y-124417096D03*
%TO.P,S17,2*%
%TO.N,thumb_home*%
X184312829Y-116217758D03*
%TD*%
D13*
%TO.P,JST1,1*%
%TO.N,pos*%
X189184000Y-107000000D03*
%TO.P,JST1,2*%
%TO.N,GND*%
X189184000Y-105000000D03*
D14*
%TO.P,JST1,11*%
%TO.N,JST1_1*%
X192000000Y-105000000D03*
%TO.P,JST1,12*%
%TO.N,JST1_2*%
X192000000Y-107000000D03*
D15*
%TO.P,JST1,31*%
%TO.N,JST1_1*%
X190200000Y-105000000D03*
%TO.P,JST1,32*%
%TO.N,JST1_2*%
X190200000Y-107000000D03*
%TD*%
D16*
%TO.P,RST1,1*%
%TO.N,GND*%
X200701917Y-108837266D03*
%TO.P,RST1,2*%
%TO.N,RST*%
X199309359Y-107862186D03*
%TO.P,RST1,3*%
%TO.N,GND*%
X197690641Y-113137814D03*
%TO.P,RST1,4*%
%TO.N,RST*%
X196298083Y-112162734D03*
%TD*%
D10*
%TO.P,S4,1*%
%TO.N,GND*%
X114725000Y-89050000D03*
%TO.P,S4,2*%
%TO.N,main_ring_bottom*%
X126275000Y-91250000D03*
%TD*%
%TO.P,S12,1*%
%TO.N,GND*%
X150725000Y-53050000D03*
%TO.P,S12,2*%
%TO.N,main_index_top*%
X162275000Y-55250000D03*
%TD*%
%TO.P,S1,1*%
%TO.N,GND*%
X96725000Y-94050000D03*
%TO.P,S1,2*%
%TO.N,main_pinky_bottom*%
X108275000Y-96250000D03*
%TD*%
%TO.P,S15,1*%
%TO.N,GND*%
X168725000Y-56050000D03*
%TO.P,S15,2*%
%TO.N,main_inner_top*%
X180275000Y-58250000D03*
%TD*%
%TO.P,S6,1*%
%TO.N,GND*%
X114725000Y-55050000D03*
%TO.P,S6,2*%
%TO.N,main_ring_top*%
X126275000Y-57250000D03*
%TD*%
%TO.P,S14,1*%
%TO.N,GND*%
X168725000Y-73050000D03*
%TO.P,S14,2*%
%TO.N,main_inner_home*%
X180275000Y-75250000D03*
%TD*%
%TO.P,S10,1*%
%TO.N,GND*%
X150725000Y-87050000D03*
%TO.P,S10,2*%
%TO.N,main_index_bottom*%
X162275000Y-89250000D03*
%TD*%
%TO.P,S8,1*%
%TO.N,GND*%
X132725000Y-65050000D03*
%TO.P,S8,2*%
%TO.N,main_middle_home*%
X144275000Y-67250000D03*
%TD*%
%TO.P,S11,1*%
%TO.N,GND*%
X150725000Y-70050000D03*
%TO.P,S11,2*%
%TO.N,main_index_home*%
X162275000Y-72250000D03*
%TD*%
%TO.P,S13,1*%
%TO.N,GND*%
X168725000Y-90050000D03*
%TO.P,S13,2*%
%TO.N,main_inner_bottom*%
X180275000Y-92250000D03*
%TD*%
%TO.P,S2,1*%
%TO.N,GND*%
X96725000Y-77050000D03*
%TO.P,S2,2*%
%TO.N,main_pinky_home*%
X108275000Y-79250000D03*
%TD*%
%TO.P,S7,1*%
%TO.N,GND*%
X132725000Y-82050000D03*
%TO.P,S7,2*%
%TO.N,main_middle_bottom*%
X144275000Y-84250000D03*
%TD*%
%TO.P,S3,1*%
%TO.N,GND*%
X96725000Y-60050000D03*
%TO.P,S3,2*%
%TO.N,main_pinky_top*%
X108275000Y-62250000D03*
%TD*%
D12*
%TO.P,S18,1*%
%TO.N,GND*%
X189811472Y-134167895D03*
%TO.P,S18,2*%
%TO.N,thumb_outer*%
X198238414Y-125968557D03*
%TD*%
D17*
%TO.P,PWR1,*%
%TO.N,*%
X200915000Y-97350000D03*
X200915000Y-104650000D03*
X203125000Y-97350000D03*
X203125000Y-104650000D03*
D18*
%TO.P,PWR1,1*%
%TO.N,N/C*%
X200265000Y-98750000D03*
%TO.P,PWR1,2*%
%TO.N,RAW*%
X200265000Y-101750000D03*
%TO.P,PWR1,3*%
%TO.N,pos*%
X200265000Y-103250000D03*
%TD*%
D10*
%TO.P,S5,1*%
%TO.N,GND*%
X114725000Y-72050000D03*
%TO.P,S5,2*%
%TO.N,main_ring_home*%
X126275000Y-74250000D03*
%TD*%
D19*
%TO.P,DISP1,1*%
%TO.N,DISP1_1*%
X188920000Y-92700000D03*
%TO.P,DISP1,2*%
%TO.N,DISP1_2*%
X191460000Y-92700000D03*
%TO.P,DISP1,3*%
%TO.N,VCC*%
X194000000Y-92700000D03*
%TO.P,DISP1,4*%
%TO.N,DISP1_4*%
X196540000Y-92700000D03*
D11*
%TO.P,DISP1,5*%
%TO.N,DISP1_5*%
X199080000Y-92700000D03*
D20*
%TO.P,DISP1,20*%
%TO.N,P1*%
X199080000Y-95350000D03*
%TO.P,DISP1,21*%
%TO.N,GND*%
X196540000Y-95350000D03*
%TO.P,DISP1,22*%
%TO.N,P2*%
X191460000Y-95350000D03*
%TO.P,DISP1,23*%
%TO.N,P3*%
X188920000Y-95350000D03*
%TO.P,DISP1,24*%
%TO.N,DISP1_5*%
X199080000Y-94450000D03*
%TO.P,DISP1,25*%
%TO.N,DISP1_4*%
X196540000Y-94450000D03*
%TO.P,DISP1,26*%
%TO.N,DISP1_2*%
X191460000Y-94450000D03*
%TO.P,DISP1,27*%
%TO.N,DISP1_1*%
X188920000Y-94450000D03*
%TD*%
D21*
%TO.P,S16,1*%
%TO.N,GND*%
X161376566Y-107405109D03*
%TO.P,S16,2*%
%TO.N,thumb_inner*%
X171963608Y-112519506D03*
%TD*%
D22*
%TO.N,RAW*%
X202000000Y-101000000D03*
D23*
X195900000Y-75500000D03*
X198250000Y-76250000D03*
D22*
%TO.N,GND*%
X126000000Y-88000000D03*
X166500000Y-89500000D03*
X108500000Y-77000000D03*
X154000000Y-72500000D03*
X163500000Y-111000000D03*
X136000000Y-45500000D03*
X118000000Y-91500000D03*
X100000000Y-57500000D03*
X194000000Y-95350000D03*
X154000000Y-89500000D03*
X154000000Y-50500000D03*
X126000000Y-70500000D03*
X118000000Y-52500000D03*
X100000000Y-96500000D03*
X194000000Y-133500000D03*
X107750000Y-93250000D03*
X146000000Y-70000000D03*
X188000000Y-106000000D03*
X136000000Y-84500000D03*
X146500000Y-85500000D03*
X180000000Y-123500000D03*
X196625727Y-114625727D03*
X172000000Y-53500000D03*
X118000000Y-74500000D03*
X100000000Y-79500000D03*
X164500000Y-73000000D03*
X172000000Y-75500000D03*
X136000000Y-67500000D03*
X172000000Y-92500000D03*
%TO.N,RST*%
X200000000Y-105750000D03*
D23*
X201000000Y-90500000D03*
%TO.N,VCC*%
X196525000Y-69000000D03*
D22*
%TO.N,main_index_top*%
X154000000Y-65875000D03*
%TO.N,main_middle_top*%
X136000000Y-61325000D03*
%TO.N,main_inner_home*%
X172500000Y-85425000D03*
%TO.N,main_middle_home*%
X136000000Y-78325000D03*
%TO.N,main_pinky_home*%
X100000000Y-91500000D03*
%TO.N,main_middle_bottom*%
X136000000Y-95325000D03*
%TO.N,main_ring_bottom*%
X118000000Y-102775000D03*
%TO.N,main_pinky_bottom*%
X100000000Y-108500000D03*
%TO.N,P1*%
X187225000Y-95500000D03*
X197500000Y-99000000D03*
%TO.N,main_inner_top*%
X172000000Y-68425000D03*
%TO.N,P2*%
X192000000Y-96500000D03*
%TO.N,P3*%
X188920000Y-97950000D03*
X195225000Y-98000000D03*
X188920000Y-96500000D03*
%TO.N,main_ring_top*%
X118000000Y-68775000D03*
%TO.N,main_pinky_top*%
X100000000Y-74500000D03*
%TO.N,main_index_home*%
X154000000Y-82875000D03*
%TO.N,main_ring_home*%
X118000000Y-85775000D03*
%TO.N,main_index_bottom*%
X154000000Y-99875000D03*
%TO.N,main_inner_bottom*%
X172000000Y-102425000D03*
%TO.N,thumb_inner*%
X161000000Y-122000000D03*
%TO.N,thumb_home*%
X189500000Y-130000000D03*
%TO.N,thumb_outer*%
X204000000Y-139000000D03*
%TO.N,pos*%
X198500000Y-100999994D03*
X194500000Y-106000000D03*
%TD*%
D24*
%TO.N,RAW*%
X196074000Y-69434298D02*
X195899000Y-69259298D01*
X195899000Y-68740702D02*
X196700000Y-67939702D01*
X195899000Y-69259298D02*
X195899000Y-68740702D01*
X197878000Y-76622000D02*
X197878000Y-84500000D01*
X198806000Y-87668190D02*
X200818905Y-89681095D01*
X202851000Y-99157860D02*
X202000000Y-98306860D01*
X201181095Y-89681095D02*
X202000000Y-90500000D01*
X202000000Y-98306860D02*
X202000000Y-90500000D01*
X198250000Y-76250000D02*
X197878000Y-76622000D01*
X195900000Y-75500000D02*
X196074000Y-75326000D01*
X196074000Y-75326000D02*
X196074000Y-69434298D01*
X198806000Y-85428000D02*
X198806000Y-87668190D01*
X200818905Y-89681095D02*
X201181095Y-89681095D01*
X200562190Y-59800000D02*
X201620000Y-59800000D01*
X196700000Y-63662190D02*
X200562190Y-59800000D01*
X197878000Y-84500000D02*
X198806000Y-85428000D01*
X202000000Y-101000000D02*
X202851000Y-100149000D01*
X202000000Y-101000000D02*
X202191726Y-101000000D01*
X202851000Y-100149000D02*
X202851000Y-99157860D01*
X202000000Y-101000000D02*
X200765000Y-101750000D01*
X196700000Y-67939702D02*
X196700000Y-63662190D01*
%TO.N,GND*%
X168180556Y-132319444D02*
X170000000Y-132000000D01*
X91000000Y-92500000D02*
X91000000Y-107000000D01*
X91000000Y-58000000D02*
X91000000Y-76000000D01*
X189811472Y-134167895D02*
X194000000Y-133500000D01*
X165500000Y-53500000D02*
X169500000Y-53500000D01*
X188500000Y-105000000D02*
X188000000Y-105500000D01*
X168725000Y-53775000D02*
X168725000Y-56050000D01*
X99175000Y-79500000D02*
X96725000Y-77050000D01*
X115500000Y-52500000D02*
X118000000Y-52500000D01*
X117175000Y-91500000D02*
X118000000Y-91500000D01*
X197151000Y-63849000D02*
X198660000Y-62340000D01*
X150000000Y-119500000D02*
X152000000Y-117500000D01*
X152000000Y-50500000D02*
X154000000Y-50500000D01*
X196540000Y-95350000D02*
X197650000Y-95350000D01*
X153175000Y-89500000D02*
X154000000Y-89500000D01*
X155000000Y-107000000D02*
X157000000Y-106000000D01*
X200701917Y-108837266D02*
X197690641Y-113137814D01*
X106500000Y-57500000D02*
X100000000Y-57500000D01*
X127000000Y-47500000D02*
X129000000Y-45500000D01*
X148050000Y-87050000D02*
X150725000Y-87050000D01*
X93500000Y-109500000D02*
X129000000Y-109500000D01*
X110500000Y-72500000D02*
X110950000Y-72050000D01*
X196540000Y-100960000D02*
X196000000Y-101500000D01*
X124500000Y-52500000D02*
X127000000Y-50000000D01*
X150725000Y-87050000D02*
X153175000Y-89500000D01*
X180500000Y-53500000D02*
X184500000Y-57500000D01*
X136000000Y-45500000D02*
X143000000Y-45500000D01*
X96725000Y-77050000D02*
X92050000Y-77050000D01*
X197904000Y-85904000D02*
X196976000Y-84976000D01*
X148000000Y-50500000D02*
X152000000Y-50500000D01*
X114725000Y-55050000D02*
X114725000Y-52775000D01*
X109500000Y-92500000D02*
X109500000Y-90000000D01*
X114725000Y-89050000D02*
X117175000Y-91500000D01*
X128450000Y-82050000D02*
X132725000Y-82050000D01*
X135175000Y-84500000D02*
X136000000Y-84500000D01*
X196000000Y-101500000D02*
X189500000Y-101500000D01*
X126000000Y-88000000D02*
X127500000Y-88000000D01*
X152000000Y-117500000D02*
X155000000Y-107000000D01*
X164550000Y-73050000D02*
X168725000Y-73050000D01*
X133000000Y-45500000D02*
X136000000Y-45500000D01*
X114725000Y-52775000D02*
X115000000Y-52500000D01*
X171175000Y-75500000D02*
X172000000Y-75500000D01*
X157000000Y-106000000D02*
X161376566Y-107405109D01*
X194000000Y-95350000D02*
X196540000Y-95350000D01*
X129000000Y-45500000D02*
X133000000Y-45500000D01*
X150725000Y-53050000D02*
X150725000Y-50775000D01*
X196976000Y-84976000D02*
X196976000Y-69434298D01*
X146050000Y-70050000D02*
X150725000Y-70050000D01*
X127500000Y-65500000D02*
X127950000Y-65050000D01*
X109500000Y-90000000D02*
X110450000Y-89050000D01*
X96725000Y-94050000D02*
X99175000Y-96500000D01*
X127950000Y-65050000D02*
X132725000Y-65050000D01*
X91500000Y-57500000D02*
X91000000Y-58000000D01*
X115000000Y-52500000D02*
X115500000Y-52500000D01*
X196540000Y-95350000D02*
X196540000Y-100960000D01*
X110500000Y-75000000D02*
X110500000Y-72500000D01*
X91000000Y-107000000D02*
X93500000Y-109500000D01*
X146500000Y-85500000D02*
X148050000Y-87050000D01*
X154000000Y-50500000D02*
X162500000Y-50500000D01*
X184880000Y-64880000D02*
X186380000Y-64880000D01*
X196976000Y-69434298D02*
X197151000Y-69259298D01*
X110950000Y-72050000D02*
X114725000Y-72050000D01*
X107750000Y-93250000D02*
X108750000Y-93250000D01*
X110450000Y-89050000D02*
X114725000Y-89050000D01*
X146378472Y-119621528D02*
X168180556Y-132319444D01*
X183000000Y-142000000D02*
X184000000Y-142000000D01*
X198660000Y-62340000D02*
X201620000Y-62340000D01*
X91000000Y-82500000D02*
X91000000Y-92500000D01*
X184500000Y-64500000D02*
X184880000Y-64880000D01*
X127000000Y-50000000D02*
X127000000Y-47500000D01*
X117175000Y-74500000D02*
X118000000Y-74500000D01*
X168725000Y-90050000D02*
X167050000Y-90050000D01*
X146378472Y-119621528D02*
X150000000Y-119500000D01*
X169000000Y-53500000D02*
X168725000Y-53775000D01*
X189184000Y-101816000D02*
X189500000Y-101500000D01*
X163000000Y-110500000D02*
X163500000Y-111000000D01*
X96725000Y-57775000D02*
X97000000Y-57500000D01*
X189184000Y-105000000D02*
X188500000Y-105000000D01*
X146000000Y-70000000D02*
X146050000Y-70050000D01*
X97000000Y-57500000D02*
X91500000Y-57500000D01*
X175885887Y-124417096D02*
X178500000Y-124477061D01*
X128000000Y-82500000D02*
X128450000Y-82050000D01*
X97000000Y-57500000D02*
X100000000Y-57500000D01*
X92050000Y-77050000D02*
X91000000Y-76000000D01*
X100000000Y-79500000D02*
X99175000Y-79500000D01*
X132725000Y-48050000D02*
X132725000Y-45775000D01*
X99175000Y-96500000D02*
X100000000Y-96500000D01*
X168725000Y-90050000D02*
X171175000Y-92500000D01*
X135175000Y-67500000D02*
X136000000Y-67500000D01*
X108500000Y-77000000D02*
X110500000Y-75000000D01*
X169500000Y-53500000D02*
X169000000Y-53500000D01*
X168180556Y-132319444D02*
X174500000Y-136000000D01*
X174500000Y-136000000D02*
X183000000Y-142000000D01*
X129000000Y-109500000D02*
X146378472Y-119621528D01*
X189184000Y-105000000D02*
X189184000Y-101816000D01*
X132725000Y-65050000D02*
X135175000Y-67500000D01*
X171175000Y-92500000D02*
X172000000Y-92500000D01*
X162500000Y-50500000D02*
X165500000Y-53500000D01*
X184000000Y-142000000D02*
X189811472Y-134167895D01*
X114725000Y-72050000D02*
X117175000Y-74500000D01*
X91000000Y-92500000D02*
X92550000Y-94050000D01*
X164500000Y-73000000D02*
X164550000Y-73050000D01*
X118000000Y-52500000D02*
X124500000Y-52500000D01*
X128000000Y-87500000D02*
X128000000Y-82500000D01*
X188000000Y-105500000D02*
X188000000Y-106000000D01*
X169500000Y-53500000D02*
X180500000Y-53500000D01*
X92550000Y-94050000D02*
X96725000Y-94050000D01*
X167050000Y-90050000D02*
X166500000Y-89500000D01*
X153175000Y-72500000D02*
X154000000Y-72500000D01*
X197151000Y-69259298D02*
X197151000Y-63849000D01*
X115500000Y-52500000D02*
X111500000Y-52500000D01*
X108750000Y-93250000D02*
X109500000Y-92500000D01*
X161376566Y-107405109D02*
X163000000Y-110500000D01*
X91000000Y-76000000D02*
X91000000Y-82500000D01*
X178500000Y-124477061D02*
X180000000Y-123500000D01*
X197650000Y-95350000D02*
X197904000Y-95096000D01*
X127500000Y-88000000D02*
X128000000Y-87500000D01*
X168725000Y-73050000D02*
X171175000Y-75500000D01*
X150725000Y-70050000D02*
X153175000Y-72500000D01*
X184500000Y-57500000D02*
X184500000Y-64500000D01*
X143000000Y-45500000D02*
X148000000Y-50500000D01*
X126000000Y-70500000D02*
X127500000Y-69000000D01*
X96725000Y-60050000D02*
X96725000Y-57775000D01*
X170000000Y-132000000D02*
X175885887Y-124417096D01*
X111500000Y-52500000D02*
X106500000Y-57500000D01*
X132725000Y-82050000D02*
X135175000Y-84500000D01*
X196625727Y-114625727D02*
X197690641Y-113137814D01*
X127500000Y-69000000D02*
X127500000Y-65500000D01*
X150725000Y-50775000D02*
X151000000Y-50500000D01*
X197904000Y-95096000D02*
X197904000Y-85904000D01*
X151000000Y-50500000D02*
X152000000Y-50500000D01*
X132725000Y-45775000D02*
X133000000Y-45500000D01*
%TO.N,RST*%
X197427000Y-69621108D02*
X197602000Y-69446108D01*
X197602000Y-69446108D02*
X197602000Y-65898000D01*
X197427000Y-84789190D02*
X197427000Y-69621108D01*
X196298083Y-112162734D02*
X199309359Y-107862186D01*
X200000000Y-105750000D02*
X198750000Y-105750000D01*
X197602000Y-65898000D02*
X198620000Y-64880000D01*
X198355000Y-87855000D02*
X198355000Y-85717190D01*
X198355000Y-85717190D02*
X197427000Y-84789190D01*
X198500000Y-106000000D02*
X198500000Y-107052827D01*
X198620000Y-64880000D02*
X201620000Y-64880000D01*
X201000000Y-90500000D02*
X198355000Y-87855000D01*
X198750000Y-105750000D02*
X198500000Y-106000000D01*
X198500000Y-107052827D02*
X199309359Y-107862186D01*
%TO.N,VCC*%
X196525000Y-84975000D02*
X194000000Y-87500000D01*
X194000000Y-87500000D02*
X194000000Y-92700000D01*
X196525000Y-69000000D02*
X196525000Y-84975000D01*
%TO.N,main_index_top*%
X154000000Y-65875000D02*
X161125000Y-65875000D01*
X161125000Y-65875000D02*
X162275000Y-64725000D01*
X162275000Y-64725000D02*
X162275000Y-55250000D01*
%TO.N,main_middle_top*%
X144275000Y-60225000D02*
X144275000Y-50250000D01*
X143175000Y-61325000D02*
X144275000Y-60225000D01*
X136000000Y-61325000D02*
X143175000Y-61325000D01*
%TO.N,main_inner_home*%
X172500000Y-85425000D02*
X178800000Y-85425000D01*
X180275000Y-83950000D02*
X180275000Y-75250000D01*
X178800000Y-85425000D02*
X180275000Y-83950000D01*
%TO.N,main_middle_home*%
X136000000Y-78325000D02*
X143175000Y-78325000D01*
X143175000Y-78325000D02*
X144275000Y-77225000D01*
X144275000Y-77225000D02*
X144275000Y-67250000D01*
%TO.N,main_pinky_home*%
X107500000Y-91500000D02*
X108275000Y-90725000D01*
X100000000Y-91500000D02*
X107500000Y-91500000D01*
X108275000Y-90725000D02*
X108275000Y-79250000D01*
%TO.N,main_middle_bottom*%
X144275000Y-93725000D02*
X144275000Y-84250000D01*
X136000000Y-95325000D02*
X142675000Y-95325000D01*
X142675000Y-95325000D02*
X144275000Y-93725000D01*
%TO.N,main_ring_bottom*%
X125500000Y-102775000D02*
X126275000Y-102000000D01*
X118000000Y-102775000D02*
X125500000Y-102775000D01*
X126275000Y-102000000D02*
X126275000Y-91250000D01*
%TO.N,main_pinky_bottom*%
X108275000Y-96250000D02*
X108275000Y-107225000D01*
X107000000Y-108500000D02*
X100000000Y-108500000D01*
X108275000Y-107225000D02*
X107000000Y-108500000D01*
%TO.N,P1*%
X186950000Y-95225000D02*
X187225000Y-95500000D01*
X192681980Y-87000000D02*
X186950000Y-92731980D01*
X197500000Y-99000000D02*
X199080000Y-97420000D01*
X186380000Y-59800000D02*
X188005000Y-61425000D01*
X199080000Y-97420000D02*
X199080000Y-95350000D01*
X193863604Y-87000000D02*
X192681980Y-87000000D01*
X186950000Y-92731980D02*
X186950000Y-95225000D01*
X188005000Y-73730507D02*
X196075000Y-81800506D01*
X196075000Y-81800506D02*
X196075000Y-84788604D01*
X188005000Y-61425000D02*
X188005000Y-73730507D01*
X196075000Y-84788604D02*
X193863604Y-87000000D01*
%TO.N,main_inner_top*%
X180275000Y-67225000D02*
X180275000Y-58250000D01*
X179075000Y-68425000D02*
X180275000Y-67225000D01*
X172000000Y-68425000D02*
X179075000Y-68425000D01*
%TO.N,P2*%
X186500000Y-96500000D02*
X186500000Y-92545584D01*
X193677208Y-86550000D02*
X195625000Y-84602208D01*
X191460000Y-95960000D02*
X191460000Y-95350000D01*
X195625000Y-84602208D02*
X195625000Y-81986902D01*
X192000000Y-96500000D02*
X191275000Y-97225000D01*
X187555000Y-71135000D02*
X187555000Y-73916903D01*
X186380000Y-69960000D02*
X187555000Y-71135000D01*
X186500000Y-92545584D02*
X192495584Y-86550000D01*
X195569048Y-81930951D02*
X195569049Y-81930951D01*
X191275000Y-97225000D02*
X187225000Y-97225000D01*
X195625000Y-81986902D02*
X195569049Y-81930951D01*
X187225000Y-97225000D02*
X186500000Y-96500000D01*
X192000000Y-96500000D02*
X191460000Y-95960000D01*
X187555000Y-73916903D02*
X195569048Y-81930951D01*
X192495584Y-86550000D02*
X193677208Y-86550000D01*
%TO.N,P3*%
X186950000Y-97950000D02*
X186000000Y-97000000D01*
X186000000Y-97000000D02*
X186000000Y-92409188D01*
X188970000Y-98000000D02*
X188920000Y-97950000D01*
X186380000Y-73378299D02*
X186380000Y-72500000D01*
X193490812Y-86100000D02*
X195175000Y-84415812D01*
X195175000Y-84415812D02*
X195175000Y-82173299D01*
X195175000Y-82173299D02*
X186380000Y-73378299D01*
X188920000Y-97950000D02*
X186950000Y-97950000D01*
X192309188Y-86100000D02*
X193490812Y-86100000D01*
X195225000Y-98000000D02*
X188970000Y-98000000D01*
X188920000Y-95350000D02*
X188920000Y-96500000D01*
X186000000Y-92409188D02*
X192309188Y-86100000D01*
%TO.N,main_ring_top*%
X118000000Y-68775000D02*
X125225000Y-68775000D01*
X126275000Y-67725000D02*
X126275000Y-57250000D01*
X125225000Y-68775000D02*
X126275000Y-67725000D01*
D25*
%TO.N,main_pinky_top*%
X108275000Y-72225000D02*
X106000000Y-74500000D01*
X106000000Y-74500000D02*
X100000000Y-74500000D01*
X108275000Y-62250000D02*
X108275000Y-72225000D01*
D24*
%TO.N,main_index_home*%
X154000000Y-82875000D02*
X161125000Y-82875000D01*
X161125000Y-82875000D02*
X162275000Y-81725000D01*
X162275000Y-81725000D02*
X162275000Y-72250000D01*
%TO.N,main_ring_home*%
X126275000Y-84225000D02*
X126275000Y-74250000D01*
X124725000Y-85775000D02*
X126275000Y-84225000D01*
X118000000Y-85775000D02*
X124725000Y-85775000D01*
%TO.N,main_index_bottom*%
X161625000Y-99875000D02*
X162275000Y-99225000D01*
X154000000Y-99875000D02*
X161625000Y-99875000D01*
X162275000Y-99225000D02*
X162275000Y-89250000D01*
%TO.N,main_inner_bottom*%
X172000000Y-102425000D02*
X178575000Y-102425000D01*
X180275000Y-100725000D02*
X180275000Y-92250000D01*
X178575000Y-102425000D02*
X180275000Y-100725000D01*
%TO.N,thumb_inner*%
X175000000Y-109483114D02*
X171963608Y-112519506D01*
X188920000Y-82660000D02*
X188920000Y-87580000D01*
X184500000Y-92000000D02*
X184500000Y-97136396D01*
X166000000Y-123500000D02*
X161000000Y-122000000D01*
X171963608Y-112519506D02*
X169000000Y-123000000D01*
X184500000Y-97136396D02*
X175000000Y-106636396D01*
X169000000Y-123000000D02*
X166000000Y-123500000D01*
X175000000Y-106636396D02*
X175000000Y-109483114D01*
X188920000Y-87580000D02*
X184500000Y-92000000D01*
%TO.N,thumb_home*%
X191460000Y-85676396D02*
X184950000Y-92186396D01*
X191460000Y-82660000D02*
X191460000Y-85676396D01*
X192500000Y-126000000D02*
X189500000Y-130000000D01*
X184950000Y-92186396D02*
X184950000Y-97322792D01*
X192500000Y-122000000D02*
X192500000Y-126000000D01*
X175450000Y-108950000D02*
X179500000Y-113000000D01*
X187500000Y-118500000D02*
X192500000Y-122000000D01*
X175450000Y-106822792D02*
X175450000Y-108950000D01*
X184312829Y-116217758D02*
X187500000Y-118500000D01*
X184950000Y-97322792D02*
X175450000Y-106822792D01*
X179500000Y-113000000D02*
X184312829Y-116217758D01*
%TO.N,thumb_outer*%
X193304416Y-85650000D02*
X192122792Y-85650000D01*
X207000000Y-134500000D02*
X204000000Y-139000000D01*
X185400000Y-92372792D02*
X185400000Y-97509188D01*
X194000000Y-82660000D02*
X194000000Y-84954416D01*
X192122792Y-85650000D02*
X185400000Y-92372792D01*
X187950000Y-116050000D02*
X188500000Y-118000000D01*
X175900000Y-107009188D02*
X175900000Y-108763604D01*
X198238414Y-125968557D02*
X206500000Y-132000000D01*
X179068198Y-111931802D02*
X181500000Y-113500000D01*
X206500000Y-132000000D02*
X207000000Y-134500000D01*
X175900000Y-108763604D02*
X179068198Y-111931802D01*
X194000000Y-84954416D02*
X193304416Y-85650000D01*
X184500000Y-113500000D02*
X187950000Y-116050000D01*
X181500000Y-113500000D02*
X183500000Y-113211293D01*
X188500000Y-118000000D02*
X195500000Y-123000000D01*
X183500000Y-113211293D02*
X184500000Y-113500000D01*
X195500000Y-123000000D02*
X198238414Y-125968557D01*
X185400000Y-97509188D02*
X175900000Y-107009188D01*
%TO.N,JST1_1*%
X190200000Y-105000000D02*
X192000000Y-105000000D01*
%TO.N,JST1_2*%
X190200000Y-107000000D02*
X192000000Y-107000000D01*
%TO.N,DISP1_1*%
X188920000Y-92700000D02*
X188920000Y-94450000D01*
%TO.N,DISP1_2*%
X191460000Y-92700000D02*
X191460000Y-94450000D01*
%TO.N,DISP1_4*%
X196540000Y-92700000D02*
X196540000Y-94450000D01*
%TO.N,DISP1_5*%
X199080000Y-92700000D02*
X199080000Y-94450000D01*
D25*
%TO.N,pos*%
X199250000Y-103250000D02*
X200765000Y-103250000D01*
X198500000Y-102500000D02*
X199250000Y-103250000D01*
D24*
X189500000Y-108500000D02*
X189184000Y-108184000D01*
X194500000Y-106000000D02*
X194500000Y-108000000D01*
X194500000Y-108000000D02*
X194000000Y-108500000D01*
X194000000Y-108500000D02*
X189500000Y-108500000D01*
X189184000Y-108184000D02*
X189184000Y-107000000D01*
D25*
X198500000Y-100999994D02*
X198500000Y-102500000D01*
%TD*%
M02*
