M48
; DRILL file {KiCad 9.0.0} date 2025-03-13T17:07:13-0400
; FORMAT={-:-/ absolute / metric / decimal}
; #@! TF.CreationDate,2025-03-13T17:07:13-04:00
; #@! TF.GenerationSoftware,Kicad,Pcbnew,9.0.0
; #@! TF.FileFunction,Plated,1,2,PTH
FMAT,2
METRIC
; #@! TA.AperFunction,Plated,PTH,ViaDrill
T1C0.300
; #@! TA.AperFunction,Plated,PTH,ViaDrill
T2C0.400
; #@! TA.AperFunction,Plated,PTH,ComponentDrill
T3C0.750
; #@! TA.AperFunction,Plated,PTH,ComponentDrill
T4C1.000
%
G90
G05
T1
X195.9Y-75.5
X196.525Y-69.0
X198.25Y-76.25
X201.0Y-90.5
T2
X100.0Y-57.5
X100.0Y-74.5
X100.0Y-79.5
X100.0Y-91.5
X100.0Y-96.5
X100.0Y-108.5
X107.75Y-93.25
X108.5Y-77.0
X118.0Y-52.5
X118.0Y-68.775
X118.0Y-74.5
X118.0Y-85.775
X118.0Y-91.5
X118.0Y-102.775
X126.0Y-70.5
X126.0Y-88.0
X136.0Y-45.5
X136.0Y-61.325
X136.0Y-67.5
X136.0Y-78.325
X136.0Y-84.5
X136.0Y-95.325
X146.0Y-70.0
X146.5Y-85.5
X154.0Y-50.5
X154.0Y-65.875
X154.0Y-72.5
X154.0Y-82.875
X154.0Y-89.5
X154.0Y-99.875
X161.0Y-122.0
X163.5Y-111.0
X164.5Y-73.0
X166.5Y-89.5
X172.0Y-53.5
X172.0Y-68.425
X172.0Y-75.5
X172.0Y-92.5
X172.0Y-102.425
X172.5Y-85.425
X180.0Y-123.5
X187.225Y-95.5
X188.0Y-106.0
X188.92Y-96.5
X188.92Y-97.95
X189.5Y-130.0
X192.0Y-96.5
X194.0Y-95.35
X194.0Y-133.5
X194.5Y-106.0
X195.225Y-98.0
X196.626Y-114.626
X197.5Y-99.0
X198.5Y-101.0
X200.0Y-105.75
X202.0Y-101.0
X204.0Y-139.0
T3
X192.0Y-105.0
X192.0Y-107.0
T4
X186.38Y-59.8
X186.38Y-62.34
X186.38Y-64.88
X186.38Y-67.42
X186.38Y-69.96
X186.38Y-72.5
X186.38Y-75.04
X186.38Y-77.58
X186.38Y-80.12
X186.38Y-82.66
X186.38Y-85.2
X186.38Y-87.74
X188.92Y-82.66
X188.92Y-92.7
X191.46Y-82.66
X191.46Y-92.7
X194.0Y-82.66
X194.0Y-92.7
X196.54Y-92.7
X199.08Y-92.7
X201.62Y-59.8
X201.62Y-62.34
X201.62Y-64.88
X201.62Y-67.42
X201.62Y-69.96
X201.62Y-72.5
X201.62Y-75.04
X201.62Y-77.58
X201.62Y-80.12
X201.62Y-82.66
X201.62Y-85.2
X201.62Y-87.74
M30
