%TF.GenerationSoftware,KiCad,Pcbnew,9.0.0*%
%TF.CreationDate,2025-03-13T17:07:21-04:00*%
%TF.ProjectId,Tenebra,54656e65-6272-4612-9e6b-696361645f70,v1.0.0*%
%TF.SameCoordinates,Original*%
%TF.FileFunction,Copper,L1,Top*%
%TF.FilePolarity,Positive*%
%FSLAX46Y46*%
G04 Gerber Fmt 4.6, Leading zero omitted, Abs format (unit mm)*
G04 Created by KiCad (PCBNEW 9.0.0) date 2025-03-13 17:07:21*
%MOMM*%
%LPD*%
G01*
G04 APERTURE LIST*
G04 Aperture macros list*
%AMRotRect*
0 Rectangle, with rotation*
0 The origin of the aperture is its center*
0 $1 length*
0 $2 width*
0 $3 Rotation angle, in degrees counterclockwise*
0 Add horizontal line*
21,1,$1,$2,0,0,$3*%
%AMFreePoly0*
4,1,6,0.600000,-1.000000,0.000000,-0.400000,-0.600000,-1.000000,-0.600000,0.250000,0.600000,0.250000,0.600000,-1.000000,0.600000,-1.000000,$1*%
%AMFreePoly1*
4,1,6,0.600000,-0.200000,0.600000,-0.400000,-0.600000,-0.400000,-0.600000,-0.200000,0.000000,0.400000,0.600000,-0.200000,0.600000,-0.200000,$1*%
G04 Aperture macros list end*
%TA.AperFunction,SMDPad,CuDef*%
%ADD10R,2.600000X2.600000*%
%TD*%
%TA.AperFunction,ComponentPad*%
%ADD11C,1.700000*%
%TD*%
%TA.AperFunction,SMDPad,CuDef*%
%ADD12RotRect,2.600000X2.600000X55.000000*%
%TD*%
%TA.AperFunction,SMDPad,CuDef*%
%ADD13FreePoly0,90.000000*%
%TD*%
%TA.AperFunction,ComponentPad*%
%ADD14O,1.750000X1.200000*%
%TD*%
%TA.AperFunction,SMDPad,CuDef*%
%ADD15FreePoly1,90.000000*%
%TD*%
%TA.AperFunction,SMDPad,CuDef*%
%ADD16RotRect,1.550000X1.000000X55.000000*%
%TD*%
%TA.AperFunction,SMDPad,CuDef*%
%ADD17R,0.800000X1.000000*%
%TD*%
%TA.AperFunction,SMDPad,CuDef*%
%ADD18R,1.500000X0.700000*%
%TD*%
%TA.AperFunction,ComponentPad*%
%ADD19O,1.700000X1.700000*%
%TD*%
%TA.AperFunction,SMDPad,CuDef*%
%ADD20R,1.200000X0.600000*%
%TD*%
%TA.AperFunction,SMDPad,CuDef*%
%ADD21RotRect,2.600000X2.600000X345.000000*%
%TD*%
%TA.AperFunction,ViaPad*%
%ADD22C,0.800000*%
%TD*%
%TA.AperFunction,ViaPad*%
%ADD23C,0.600000*%
%TD*%
%TA.AperFunction,Conductor*%
%ADD24C,0.250000*%
%TD*%
%TA.AperFunction,Conductor*%
%ADD25C,0.200000*%
%TD*%
G04 APERTURE END LIST*
D10*
%TO.P,S9,1*%
%TO.N,GND*%
X139275000Y-48050000D03*
%TO.P,S9,2*%
%TO.N,main_middle_top*%
X127725000Y-50250000D03*
%TD*%
D11*
%TO.P,MCU1,1*%
%TO.N,RAW*%
X201620000Y-59800000D03*
%TO.P,MCU1,2*%
%TO.N,GND*%
X201620000Y-62340000D03*
%TO.P,MCU1,3*%
%TO.N,RST*%
X201620000Y-64880000D03*
%TO.P,MCU1,4*%
%TO.N,VCC*%
X201620000Y-67420000D03*
%TO.P,MCU1,5*%
%TO.N,main_index_top*%
X201620000Y-69960000D03*
%TO.P,MCU1,6*%
%TO.N,main_middle_top*%
X201620000Y-72500000D03*
%TO.P,MCU1,7*%
%TO.N,main_inner_home*%
X201620000Y-75040000D03*
%TO.P,MCU1,8*%
%TO.N,main_middle_home*%
X201620000Y-77580000D03*
%TO.P,MCU1,9*%
%TO.N,main_pinky_home*%
X201620000Y-80120000D03*
%TO.P,MCU1,10*%
%TO.N,main_middle_bottom*%
X201620000Y-82660000D03*
%TO.P,MCU1,11*%
%TO.N,main_ring_bottom*%
X201620000Y-85200000D03*
%TO.P,MCU1,12*%
%TO.N,main_pinky_bottom*%
X201620000Y-87740000D03*
%TO.P,MCU1,13*%
%TO.N,main_inner_bottom*%
X186380000Y-87740000D03*
%TO.P,MCU1,14*%
%TO.N,main_index_bottom*%
X186380000Y-85200000D03*
%TO.P,MCU1,15*%
%TO.N,main_ring_home*%
X186380000Y-82660000D03*
%TO.P,MCU1,16*%
%TO.N,main_index_home*%
X186380000Y-80120000D03*
%TO.P,MCU1,17*%
%TO.N,main_pinky_top*%
X186380000Y-77580000D03*
%TO.P,MCU1,18*%
%TO.N,main_ring_top*%
X186380000Y-75040000D03*
%TO.P,MCU1,19*%
%TO.N,P3*%
X186380000Y-72500000D03*
%TO.P,MCU1,20*%
%TO.N,P2*%
X186380000Y-69960000D03*
%TO.P,MCU1,21*%
%TO.N,GND*%
X186380000Y-67420000D03*
%TO.P,MCU1,22*%
X186380000Y-64880000D03*
%TO.P,MCU1,23*%
%TO.N,main_inner_top*%
X186380000Y-62340000D03*
%TO.P,MCU1,24*%
%TO.N,P1*%
X186380000Y-59800000D03*
%TO.P,MCU1,25*%
%TO.N,thumb_inner*%
X188920000Y-82660000D03*
%TO.P,MCU1,26*%
%TO.N,thumb_home*%
X191460000Y-82660000D03*
%TO.P,MCU1,27*%
%TO.N,thumb_outer*%
X194000000Y-82660000D03*
%TD*%
D12*
%TO.P,S17,1*%
%TO.N,GND*%
X179642812Y-119051650D03*
%TO.P,S17,2*%
%TO.N,thumb_home*%
X174820139Y-129774725D03*
%TD*%
D13*
%TO.P,JST1,1*%
%TO.N,pos*%
X189184000Y-105000000D03*
%TO.P,JST1,2*%
%TO.N,GND*%
X189184000Y-107000000D03*
D14*
%TO.P,JST1,11*%
%TO.N,JST1_1*%
X192000000Y-105000000D03*
%TO.P,JST1,12*%
%TO.N,JST1_2*%
X192000000Y-107000000D03*
D15*
%TO.P,JST1,21*%
%TO.N,JST1_1*%
X190200000Y-105000000D03*
%TO.P,JST1,22*%
%TO.N,JST1_2*%
X190200000Y-107000000D03*
%TD*%
D16*
%TO.P,RST1,1*%
%TO.N,GND*%
X197690641Y-113137814D03*
%TO.P,RST1,2*%
%TO.N,RST*%
X196298083Y-112162734D03*
%TO.P,RST1,3*%
%TO.N,GND*%
X200701917Y-108837266D03*
%TO.P,RST1,4*%
%TO.N,RST*%
X199309359Y-107862186D03*
%TD*%
D10*
%TO.P,S4,1*%
%TO.N,GND*%
X121275000Y-89050000D03*
%TO.P,S4,2*%
%TO.N,main_ring_bottom*%
X109725000Y-91250000D03*
%TD*%
%TO.P,S12,1*%
%TO.N,GND*%
X157275000Y-53050000D03*
%TO.P,S12,2*%
%TO.N,main_index_top*%
X145725000Y-55250000D03*
%TD*%
%TO.P,S1,1*%
%TO.N,GND*%
X103275000Y-94050000D03*
%TO.P,S1,2*%
%TO.N,main_pinky_bottom*%
X91725000Y-96250000D03*
%TD*%
%TO.P,S15,1*%
%TO.N,GND*%
X175275000Y-56050000D03*
%TO.P,S15,2*%
%TO.N,main_inner_top*%
X163725000Y-58250000D03*
%TD*%
%TO.P,S6,1*%
%TO.N,GND*%
X121275000Y-55050000D03*
%TO.P,S6,2*%
%TO.N,main_ring_top*%
X109725000Y-57250000D03*
%TD*%
%TO.P,S14,1*%
%TO.N,GND*%
X175275000Y-73050000D03*
%TO.P,S14,2*%
%TO.N,main_inner_home*%
X163725000Y-75250000D03*
%TD*%
%TO.P,S10,1*%
%TO.N,GND*%
X157275000Y-87050000D03*
%TO.P,S10,2*%
%TO.N,main_index_bottom*%
X145725000Y-89250000D03*
%TD*%
%TO.P,S8,1*%
%TO.N,GND*%
X139275000Y-65050000D03*
%TO.P,S8,2*%
%TO.N,main_middle_home*%
X127725000Y-67250000D03*
%TD*%
%TO.P,S11,1*%
%TO.N,GND*%
X157275000Y-70050000D03*
%TO.P,S11,2*%
%TO.N,main_index_home*%
X145725000Y-72250000D03*
%TD*%
%TO.P,S13,1*%
%TO.N,GND*%
X175275000Y-90050000D03*
%TO.P,S13,2*%
%TO.N,main_inner_bottom*%
X163725000Y-92250000D03*
%TD*%
%TO.P,S2,1*%
%TO.N,GND*%
X103275000Y-77050000D03*
%TO.P,S2,2*%
%TO.N,main_pinky_home*%
X91725000Y-79250000D03*
%TD*%
%TO.P,S7,1*%
%TO.N,GND*%
X139275000Y-82050000D03*
%TO.P,S7,2*%
%TO.N,main_middle_bottom*%
X127725000Y-84250000D03*
%TD*%
%TO.P,S3,1*%
%TO.N,GND*%
X103275000Y-60050000D03*
%TO.P,S3,2*%
%TO.N,main_pinky_top*%
X91725000Y-62250000D03*
%TD*%
D12*
%TO.P,S18,1*%
%TO.N,GND*%
X193568397Y-128802449D03*
%TO.P,S18,2*%
%TO.N,thumb_outer*%
X188745724Y-139525524D03*
%TD*%
D17*
%TO.P,PWR1,*%
%TO.N,*%
X200915000Y-97350000D03*
X200915000Y-104650000D03*
X203125000Y-97350000D03*
X203125000Y-104650000D03*
D18*
%TO.P,PWR1,1*%
%TO.N,N/C*%
X200265000Y-103250000D03*
%TO.P,PWR1,2*%
%TO.N,RAW*%
X200265000Y-100250000D03*
%TO.P,PWR1,3*%
%TO.N,pos*%
X200265000Y-98750000D03*
%TD*%
D10*
%TO.P,S5,1*%
%TO.N,GND*%
X121275000Y-72050000D03*
%TO.P,S5,2*%
%TO.N,main_ring_home*%
X109725000Y-74250000D03*
%TD*%
D19*
%TO.P,DISP1,1*%
%TO.N,DISP1_1*%
X188920000Y-92700000D03*
%TO.P,DISP1,2*%
%TO.N,DISP1_2*%
X191460000Y-92700000D03*
%TO.P,DISP1,3*%
%TO.N,VCC*%
X194000000Y-92700000D03*
%TO.P,DISP1,4*%
%TO.N,DISP1_4*%
X196540000Y-92700000D03*
D11*
%TO.P,DISP1,5*%
%TO.N,DISP1_5*%
X199080000Y-92700000D03*
D20*
%TO.P,DISP1,10*%
%TO.N,P1*%
X188920000Y-95350000D03*
%TO.P,DISP1,11*%
%TO.N,GND*%
X191460000Y-95350000D03*
%TO.P,DISP1,12*%
%TO.N,P2*%
X196540000Y-95350000D03*
%TO.P,DISP1,13*%
%TO.N,P3*%
X199080000Y-95350000D03*
%TO.P,DISP1,14*%
%TO.N,DISP1_1*%
X188920000Y-94450000D03*
%TO.P,DISP1,15*%
%TO.N,DISP1_2*%
X191460000Y-94450000D03*
%TO.P,DISP1,16*%
%TO.N,DISP1_4*%
X196540000Y-94450000D03*
%TO.P,DISP1,17*%
%TO.N,DISP1_5*%
X199080000Y-94450000D03*
%TD*%
D21*
%TO.P,S16,1*%
%TO.N,GND*%
X167703380Y-109100374D03*
%TO.P,S16,2*%
%TO.N,thumb_inner*%
X155977535Y-108236051D03*
%TD*%
D22*
%TO.N,RAW*%
X202000000Y-101000000D03*
D23*
X195900000Y-75500000D03*
X198250000Y-76250000D03*
D22*
%TO.N,GND*%
X126000000Y-88000000D03*
X166500000Y-89500000D03*
X108500000Y-77000000D03*
X154000000Y-72500000D03*
X163500000Y-111000000D03*
X136000000Y-45500000D03*
X118000000Y-91500000D03*
X100000000Y-57500000D03*
X194000000Y-95350000D03*
X154000000Y-89500000D03*
X154000000Y-50500000D03*
X126000000Y-70500000D03*
X118000000Y-52500000D03*
X100000000Y-96500000D03*
X194000000Y-133500000D03*
X107750000Y-93250000D03*
X146000000Y-70000000D03*
X188000000Y-106000000D03*
X136000000Y-84500000D03*
X146500000Y-85500000D03*
X180000000Y-123500000D03*
X196625727Y-114625727D03*
X172000000Y-53500000D03*
X118000000Y-74500000D03*
X100000000Y-79500000D03*
X164500000Y-73000000D03*
X172000000Y-75500000D03*
X136000000Y-67500000D03*
X172000000Y-92500000D03*
%TO.N,RST*%
X200000000Y-105750000D03*
D23*
X201000000Y-90500000D03*
%TO.N,VCC*%
X196525000Y-69000000D03*
D22*
%TO.N,main_index_top*%
X154000000Y-65875000D03*
%TO.N,main_middle_top*%
X136000000Y-61325000D03*
%TO.N,main_inner_home*%
X172500000Y-85425000D03*
%TO.N,main_middle_home*%
X136000000Y-78325000D03*
%TO.N,main_pinky_home*%
X100000000Y-91500000D03*
%TO.N,main_middle_bottom*%
X136000000Y-95325000D03*
%TO.N,main_ring_bottom*%
X118000000Y-102775000D03*
%TO.N,main_pinky_bottom*%
X100000000Y-108500000D03*
%TO.N,P1*%
X187225000Y-95500000D03*
X197500000Y-99000000D03*
%TO.N,main_inner_top*%
X172000000Y-68425000D03*
%TO.N,P2*%
X192000000Y-96500000D03*
%TO.N,P3*%
X188920000Y-97950000D03*
X195225000Y-98000000D03*
X188920000Y-96500000D03*
%TO.N,main_ring_top*%
X118000000Y-68775000D03*
%TO.N,main_pinky_top*%
X100000000Y-74500000D03*
%TO.N,main_index_home*%
X154000000Y-82875000D03*
%TO.N,main_ring_home*%
X118000000Y-85775000D03*
%TO.N,main_index_bottom*%
X154000000Y-99875000D03*
%TO.N,main_inner_bottom*%
X172000000Y-102425000D03*
%TO.N,thumb_inner*%
X161000000Y-122000000D03*
%TO.N,thumb_home*%
X189500000Y-130000000D03*
%TO.N,thumb_outer*%
X204000000Y-139000000D03*
%TO.N,pos*%
X198500000Y-100999994D03*
X194500000Y-106000000D03*
%TD*%
D24*
%TO.N,RAW*%
X198250000Y-76250000D02*
X198250000Y-75750000D01*
X198250000Y-75750000D02*
X198000000Y-75500000D01*
X200765000Y-100250000D02*
X202000000Y-101000000D01*
X198000000Y-75500000D02*
X195900000Y-75500000D01*
%TO.N,GND*%
X121275000Y-89050000D02*
X124950000Y-89050000D01*
X154000000Y-89500000D02*
X154825000Y-89500000D01*
X106950000Y-94050000D02*
X103275000Y-94050000D01*
X161000000Y-70000000D02*
X164000000Y-73000000D01*
X188000000Y-67000000D02*
X187580000Y-67420000D01*
X121000000Y-52500000D02*
X118000000Y-52500000D01*
X108450000Y-77050000D02*
X108500000Y-77000000D01*
X100000000Y-96500000D02*
X100825000Y-96500000D01*
X188000000Y-63500000D02*
X188000000Y-67000000D01*
X146500000Y-84136396D02*
X146500000Y-85500000D01*
X136000000Y-67500000D02*
X136825000Y-67500000D01*
X189184000Y-109684000D02*
X195500000Y-114625727D01*
X103275000Y-60050000D02*
X103275000Y-57775000D01*
X118825000Y-74500000D02*
X121275000Y-72050000D01*
X144413604Y-82050000D02*
X146500000Y-84136396D01*
X172000000Y-53500000D02*
X175000000Y-53500000D01*
X157275000Y-70050000D02*
X157950000Y-70050000D01*
X164313190Y-87951000D02*
X164049000Y-87686810D01*
X189184000Y-107000000D02*
X189184000Y-109684000D01*
X121275000Y-72050000D02*
X124450000Y-72050000D01*
X164686810Y-87951000D02*
X164313190Y-87951000D01*
X100000000Y-79500000D02*
X100825000Y-79500000D01*
X172000000Y-92500000D02*
X172825000Y-92500000D01*
X157950000Y-70050000D02*
X158000000Y-70000000D01*
X191460000Y-95350000D02*
X191500000Y-95390000D01*
X186380000Y-64880000D02*
X186380000Y-67420000D01*
X200701917Y-108837266D02*
X197690641Y-113137814D01*
X193568397Y-128802449D02*
X194000000Y-133500000D01*
X103000000Y-57500000D02*
X100000000Y-57500000D01*
X139275000Y-82050000D02*
X144413604Y-82050000D01*
X195500000Y-114625727D02*
X196625727Y-114625727D01*
X139275000Y-45775000D02*
X139000000Y-45500000D01*
X154000000Y-50500000D02*
X157000000Y-50500000D01*
X188000000Y-106500000D02*
X188500000Y-107000000D01*
X157000000Y-50500000D02*
X157275000Y-50775000D01*
X172000000Y-75500000D02*
X172825000Y-75500000D01*
X118825000Y-91500000D02*
X121275000Y-89050000D01*
X103275000Y-77050000D02*
X108450000Y-77050000D01*
X139275000Y-48050000D02*
X139275000Y-45775000D01*
X124450000Y-72050000D02*
X126000000Y-70500000D01*
X201620000Y-62340000D02*
X200160000Y-62340000D01*
X107750000Y-93250000D02*
X106950000Y-94050000D01*
X163412190Y-87050000D02*
X157275000Y-87050000D01*
X103275000Y-57775000D02*
X103000000Y-57500000D01*
X194000000Y-95350000D02*
X191460000Y-95350000D01*
X188500000Y-63000000D02*
X188000000Y-63500000D01*
X181000000Y-120408838D02*
X181000000Y-122500000D01*
X154825000Y-89500000D02*
X157275000Y-87050000D01*
X146000000Y-70000000D02*
X146000000Y-67139224D01*
X175000000Y-53500000D02*
X175275000Y-53775000D01*
X164049000Y-87686810D02*
X163412190Y-87050000D01*
X118000000Y-74500000D02*
X118825000Y-74500000D01*
X164500000Y-111000000D02*
X167703380Y-109100374D01*
X196625727Y-114625727D02*
X197690641Y-113137814D01*
X172825000Y-75500000D02*
X175275000Y-73050000D01*
X199500000Y-63000000D02*
X188500000Y-63000000D01*
X200160000Y-62340000D02*
X199500000Y-63000000D01*
X188000000Y-106000000D02*
X188000000Y-106500000D01*
X124950000Y-89050000D02*
X126000000Y-88000000D01*
X175275000Y-53775000D02*
X175275000Y-56050000D01*
X139000000Y-45500000D02*
X136000000Y-45500000D01*
X136825000Y-84500000D02*
X139275000Y-82050000D01*
X100825000Y-96500000D02*
X103275000Y-94050000D01*
X157275000Y-50775000D02*
X157275000Y-53050000D01*
X179642812Y-119051650D02*
X181000000Y-120408838D01*
X164951000Y-87951000D02*
X164686810Y-87951000D01*
X157275000Y-70050000D02*
X154825000Y-72500000D01*
X121275000Y-55050000D02*
X121275000Y-52775000D01*
X172825000Y-92500000D02*
X175275000Y-90050000D01*
X118000000Y-91500000D02*
X118825000Y-91500000D01*
X146000000Y-67139224D02*
X143910776Y-65050000D01*
X164000000Y-73000000D02*
X164500000Y-73000000D01*
X187580000Y-67420000D02*
X186380000Y-67420000D01*
X166500000Y-89500000D02*
X164951000Y-87951000D01*
X181000000Y-122500000D02*
X180000000Y-123500000D01*
X100825000Y-79500000D02*
X103275000Y-77050000D01*
X121275000Y-52775000D02*
X121000000Y-52500000D01*
X188500000Y-107000000D02*
X189184000Y-107000000D01*
X136825000Y-67500000D02*
X139275000Y-65050000D01*
X158000000Y-70000000D02*
X161000000Y-70000000D01*
X163500000Y-111000000D02*
X164500000Y-111000000D01*
X154825000Y-72500000D02*
X154000000Y-72500000D01*
X143910776Y-65050000D02*
X139275000Y-65050000D01*
X136000000Y-84500000D02*
X136825000Y-84500000D01*
%TO.N,RST*%
X202000000Y-106000000D02*
X202000000Y-104000000D01*
X202000000Y-104000000D02*
X202851000Y-103149000D01*
X198750000Y-105750000D02*
X198500000Y-106000000D01*
X198500000Y-106000000D02*
X198500000Y-107052827D01*
X200000000Y-105750000D02*
X198750000Y-105750000D01*
X202000000Y-91500000D02*
X201000000Y-90500000D01*
X202000000Y-98325000D02*
X202000000Y-91500000D01*
X200000000Y-105750000D02*
X200750000Y-106500000D01*
X201500000Y-106500000D02*
X202000000Y-106000000D01*
X202851000Y-99157860D02*
X202367140Y-98674000D01*
X202367140Y-98674000D02*
X202349000Y-98674000D01*
X196298083Y-112162734D02*
X199309359Y-107862186D01*
X198500000Y-107052827D02*
X199309359Y-107862186D01*
X202851000Y-103149000D02*
X202851000Y-99157860D01*
X200750000Y-106500000D02*
X201500000Y-106500000D01*
X202349000Y-98674000D02*
X202000000Y-98325000D01*
%TO.N,VCC*%
X196525000Y-69000000D02*
X198025000Y-67500000D01*
X198025000Y-67500000D02*
X201540000Y-67500000D01*
X201540000Y-67500000D02*
X201620000Y-67420000D01*
%TO.N,main_index_top*%
X153125000Y-65875000D02*
X152850000Y-66150000D01*
X154000000Y-65875000D02*
X154875000Y-65875000D01*
X147350000Y-64440812D02*
X145725000Y-62815812D01*
X147559188Y-66150000D02*
X147350000Y-65940812D01*
X199675000Y-71325000D02*
X200000000Y-71000000D01*
X162059188Y-66150000D02*
X165059188Y-69150000D01*
X155150000Y-66150000D02*
X162059188Y-66150000D01*
X200000000Y-71000000D02*
X200000000Y-70500000D01*
X185825000Y-71325000D02*
X199675000Y-71325000D01*
X152850000Y-66150000D02*
X147559188Y-66150000D01*
X147350000Y-65940812D02*
X147350000Y-64440812D01*
X183650000Y-69150000D02*
X185825000Y-71325000D01*
X145725000Y-62815812D02*
X145725000Y-55250000D01*
X154000000Y-65875000D02*
X153125000Y-65875000D01*
X200540000Y-69960000D02*
X201620000Y-69960000D01*
X165059188Y-69150000D02*
X183650000Y-69150000D01*
X200000000Y-70500000D02*
X200540000Y-69960000D01*
X154875000Y-65875000D02*
X155150000Y-66150000D01*
%TO.N,main_middle_top*%
X161872792Y-66600000D02*
X147372792Y-66600000D01*
X185500000Y-73675000D02*
X185000000Y-73175000D01*
X135175000Y-61325000D02*
X134900000Y-61600000D01*
X199825000Y-73675000D02*
X185500000Y-73675000D01*
X185000000Y-71250000D02*
X183350000Y-69600000D01*
X134900000Y-61600000D02*
X128600000Y-61600000D01*
X185000000Y-73175000D02*
X185000000Y-71250000D01*
X143872792Y-61600000D02*
X137100000Y-61600000D01*
X146900000Y-66127208D02*
X146900000Y-64627208D01*
X128600000Y-61600000D02*
X127725000Y-60725000D01*
X136825000Y-61325000D02*
X136000000Y-61325000D01*
X164872792Y-69600000D02*
X161872792Y-66600000D01*
X183350000Y-69600000D02*
X164872792Y-69600000D01*
X137100000Y-61600000D02*
X136825000Y-61325000D01*
X201620000Y-72500000D02*
X200500000Y-72500000D01*
X200000000Y-73000000D02*
X200000000Y-73500000D01*
X146900000Y-64627208D02*
X143872792Y-61600000D01*
X200000000Y-73500000D02*
X199825000Y-73675000D01*
X147372792Y-66600000D02*
X146900000Y-66127208D01*
X200500000Y-72500000D02*
X200000000Y-73000000D01*
X136000000Y-61325000D02*
X135175000Y-61325000D01*
X127725000Y-60725000D02*
X127725000Y-50250000D01*
%TO.N,main_inner_home*%
X200000000Y-75500000D02*
X200000000Y-77363604D01*
X184095406Y-82859010D02*
X181254416Y-85700000D01*
X171575000Y-85425000D02*
X172500000Y-85425000D01*
X173700000Y-85700000D02*
X173425000Y-85425000D01*
X185893299Y-78945000D02*
X184833179Y-80005120D01*
X173425000Y-85425000D02*
X172500000Y-85425000D01*
X199550000Y-78450000D02*
X199055000Y-78945000D01*
X199550000Y-77813604D02*
X199550000Y-78450000D01*
X165245584Y-85700000D02*
X171300000Y-85700000D01*
X200000000Y-77363604D02*
X199550000Y-77813604D01*
X163725000Y-75250000D02*
X163725000Y-84179416D01*
X184095406Y-81570951D02*
X184095406Y-82859010D01*
X163725000Y-84179416D02*
X165245584Y-85700000D01*
X181254416Y-85700000D02*
X173700000Y-85700000D01*
X171300000Y-85700000D02*
X171575000Y-85425000D01*
X184833179Y-80005120D02*
X184833179Y-80833178D01*
X184833179Y-80833178D02*
X184095406Y-81570951D01*
X201620000Y-75040000D02*
X200460000Y-75040000D01*
X199055000Y-78945000D02*
X185893299Y-78945000D01*
X200460000Y-75040000D02*
X200000000Y-75500000D01*
%TO.N,main_middle_home*%
X127725000Y-77725000D02*
X128600000Y-78600000D01*
X198378604Y-81485000D02*
X200000000Y-79863604D01*
X145900000Y-81627208D02*
X147872792Y-83600000D01*
X136825000Y-78325000D02*
X137100000Y-78600000D01*
X164872792Y-86600000D02*
X181627208Y-86600000D01*
X128600000Y-78600000D02*
X134900000Y-78600000D01*
X134900000Y-78600000D02*
X135175000Y-78325000D01*
X181627208Y-86600000D02*
X185000000Y-83227208D01*
X136000000Y-78325000D02*
X136825000Y-78325000D01*
X185454149Y-81485000D02*
X198378604Y-81485000D01*
X200000000Y-78000000D02*
X200420000Y-77580000D01*
X185000000Y-83227208D02*
X185000000Y-81939149D01*
X161872792Y-83600000D02*
X164872792Y-86600000D01*
X135175000Y-78325000D02*
X136000000Y-78325000D01*
X185000000Y-81939149D02*
X185454149Y-81485000D01*
X137100000Y-78600000D02*
X144372792Y-78600000D01*
X144372792Y-78600000D02*
X145900000Y-80127208D01*
X200420000Y-77580000D02*
X201620000Y-77580000D01*
X145900000Y-80127208D02*
X145900000Y-81627208D01*
X127725000Y-67250000D02*
X127725000Y-77725000D01*
X200000000Y-79863604D02*
X200000000Y-78000000D01*
X147872792Y-83600000D02*
X161872792Y-83600000D01*
%TO.N,main_pinky_home*%
X200000000Y-82363604D02*
X198338604Y-84025000D01*
X201620000Y-80120000D02*
X200380000Y-80120000D01*
X100000000Y-91500000D02*
X92500000Y-91500000D01*
X108000000Y-88500000D02*
X108000000Y-90000000D01*
X200000000Y-80500000D02*
X200000000Y-82363604D01*
X128000000Y-79500000D02*
X125500000Y-82000000D01*
X106500000Y-91500000D02*
X100000000Y-91500000D01*
X200380000Y-80120000D02*
X200000000Y-80500000D01*
X108000000Y-90000000D02*
X106500000Y-91500000D01*
X145000000Y-80500000D02*
X144000000Y-79500000D01*
X92500000Y-91500000D02*
X91725000Y-90725000D01*
X110000000Y-86500000D02*
X108000000Y-88500000D01*
X147500000Y-84500000D02*
X145000000Y-82000000D01*
X144000000Y-79500000D02*
X128000000Y-79500000D01*
X123500000Y-86500000D02*
X110000000Y-86500000D01*
X198338604Y-84025000D02*
X185475000Y-84025000D01*
X91725000Y-90725000D02*
X91725000Y-79250000D01*
X125500000Y-82000000D02*
X125500000Y-84500000D01*
X125500000Y-84500000D02*
X123500000Y-86500000D01*
X161500000Y-84500000D02*
X147500000Y-84500000D01*
X185475000Y-84025000D02*
X182000000Y-87500000D01*
X164500000Y-87500000D02*
X161500000Y-84500000D01*
X145000000Y-82000000D02*
X145000000Y-80500000D01*
X182000000Y-87500000D02*
X164500000Y-87500000D01*
%TO.N,main_middle_bottom*%
X136000000Y-95325000D02*
X135275000Y-95325000D01*
X185600000Y-96627208D02*
X185600000Y-90627208D01*
X145900000Y-97627208D02*
X145900000Y-99036396D01*
X185600000Y-90627208D02*
X186627208Y-89600000D01*
X161872792Y-100600000D02*
X164872792Y-103600000D01*
X129350000Y-95600000D02*
X127725000Y-93975000D01*
X136725000Y-95325000D02*
X137000000Y-95600000D01*
X137000000Y-95600000D02*
X143872792Y-95600000D01*
X145900000Y-99036396D02*
X147463604Y-100600000D01*
X136000000Y-95325000D02*
X136725000Y-95325000D01*
X199550000Y-88537208D02*
X199550000Y-83450000D01*
X143872792Y-95600000D02*
X145900000Y-97627208D01*
X127725000Y-93975000D02*
X127725000Y-84250000D01*
X200340000Y-82660000D02*
X201620000Y-82660000D01*
X164872792Y-103600000D02*
X178627208Y-103600000D01*
X199550000Y-83450000D02*
X200340000Y-82660000D01*
X147463604Y-100600000D02*
X161872792Y-100600000D01*
X186627208Y-89600000D02*
X198487208Y-89600000D01*
X178627208Y-103600000D02*
X185600000Y-96627208D01*
X135275000Y-95325000D02*
X135000000Y-95600000D01*
X135000000Y-95600000D02*
X129350000Y-95600000D01*
X198487208Y-89600000D02*
X199550000Y-88537208D01*
%TO.N,main_ring_bottom*%
X109725000Y-101725000D02*
X111050000Y-103050000D01*
X164686396Y-104050000D02*
X178813604Y-104050000D01*
X198673604Y-90050000D02*
X200000000Y-88723604D01*
X186813604Y-90050000D02*
X198673604Y-90050000D01*
X200000000Y-88723604D02*
X200000000Y-85500000D01*
X126550000Y-102313604D02*
X126550000Y-97813604D01*
X161686396Y-101050000D02*
X164686396Y-104050000D01*
X145450000Y-97813604D02*
X145450000Y-99222792D01*
X145450000Y-99222792D02*
X147277208Y-101050000D01*
X147277208Y-101050000D02*
X161686396Y-101050000D01*
X116950000Y-103050000D02*
X117225000Y-102775000D01*
X186050000Y-96813604D02*
X186050000Y-90813604D01*
X117225000Y-102775000D02*
X118000000Y-102775000D01*
X200300000Y-85200000D02*
X201620000Y-85200000D01*
X126550000Y-97813604D02*
X128313604Y-96050000D01*
X118000000Y-102775000D02*
X118775000Y-102775000D01*
X118775000Y-102775000D02*
X119050000Y-103050000D01*
X186050000Y-90813604D02*
X186813604Y-90050000D01*
X109725000Y-91250000D02*
X109725000Y-101725000D01*
X128313604Y-96050000D02*
X143686396Y-96050000D01*
X200000000Y-85500000D02*
X200300000Y-85200000D01*
X119050000Y-103050000D02*
X125813604Y-103050000D01*
X143686396Y-96050000D02*
X145450000Y-97813604D01*
X125813604Y-103050000D02*
X126550000Y-102313604D01*
X178813604Y-104050000D02*
X186050000Y-96813604D01*
X111050000Y-103050000D02*
X116950000Y-103050000D01*
%TO.N,main_pinky_bottom*%
X186500000Y-91000000D02*
X187000000Y-90500000D01*
X91725000Y-107225000D02*
X93000000Y-108500000D01*
X107000000Y-108500000D02*
X109000000Y-106500000D01*
X186500000Y-97000000D02*
X186500000Y-91000000D01*
X164500000Y-104500000D02*
X179000000Y-104500000D01*
X161500000Y-101500000D02*
X164500000Y-104500000D01*
X93000000Y-108500000D02*
X100000000Y-108500000D01*
X179000000Y-104500000D02*
X186500000Y-97000000D01*
X143500000Y-96500000D02*
X145000000Y-98000000D01*
X126000000Y-103500000D02*
X127000000Y-102500000D01*
X109000000Y-104500000D02*
X110000000Y-103500000D01*
X109000000Y-106500000D02*
X109000000Y-104500000D01*
X147090812Y-101500000D02*
X161500000Y-101500000D01*
X128500000Y-96500000D02*
X143500000Y-96500000D01*
X187000000Y-90500000D02*
X198860000Y-90500000D01*
X91725000Y-96250000D02*
X91725000Y-107225000D01*
X145000000Y-98000000D02*
X145000000Y-99409188D01*
X100000000Y-108500000D02*
X107000000Y-108500000D01*
X127000000Y-98000000D02*
X128500000Y-96500000D01*
X145000000Y-99409188D02*
X147090812Y-101500000D01*
X198860000Y-90500000D02*
X201620000Y-87740000D01*
X127000000Y-102500000D02*
X127000000Y-98000000D01*
X110000000Y-103500000D02*
X126000000Y-103500000D01*
%TO.N,P1*%
X188500000Y-99000000D02*
X187225000Y-97725000D01*
X188770000Y-95500000D02*
X188920000Y-95350000D01*
X187225000Y-95500000D02*
X188770000Y-95500000D01*
X197500000Y-99000000D02*
X188500000Y-99000000D01*
X187225000Y-97725000D02*
X187225000Y-95500000D01*
%TO.N,main_inner_top*%
X172925000Y-68425000D02*
X173200000Y-68700000D01*
X173200000Y-68700000D02*
X183800000Y-68700000D01*
X171075000Y-68425000D02*
X170800000Y-68700000D01*
X165245584Y-68700000D02*
X163725000Y-67179416D01*
X185000000Y-67500000D02*
X185000000Y-63000000D01*
X185000000Y-63000000D02*
X185660000Y-62340000D01*
X172000000Y-68425000D02*
X172925000Y-68425000D01*
X172000000Y-68425000D02*
X171075000Y-68425000D01*
X183800000Y-68700000D02*
X185000000Y-67500000D01*
X170800000Y-68700000D02*
X165245584Y-68700000D01*
X185660000Y-62340000D02*
X186380000Y-62340000D01*
X163725000Y-67179416D02*
X163725000Y-58250000D01*
%TO.N,P2*%
X192000000Y-96500000D02*
X192500000Y-97000000D01*
X196040000Y-97000000D02*
X196540000Y-96500000D01*
X196540000Y-96500000D02*
X196540000Y-95350000D01*
X192500000Y-97000000D02*
X196040000Y-97000000D01*
%TO.N,P3*%
X199080000Y-96920000D02*
X199080000Y-95350000D01*
X195225000Y-98000000D02*
X198000000Y-98000000D01*
X198000000Y-98000000D02*
X199080000Y-96920000D01*
X188920000Y-96500000D02*
X188920000Y-97950000D01*
%TO.N,main_ring_top*%
X143685982Y-62051000D02*
X146449000Y-64814018D01*
X125050000Y-64313604D02*
X127313604Y-62050000D01*
X185540001Y-75040000D02*
X186380000Y-75040000D01*
X117225000Y-68775000D02*
X116950000Y-69050000D01*
X135699280Y-62051000D02*
X136300720Y-62051000D01*
X183051000Y-70051000D02*
X184549000Y-71549000D01*
X127313604Y-62050000D02*
X128412190Y-62050000D01*
X118000000Y-68775000D02*
X117225000Y-68775000D01*
X119050000Y-69050000D02*
X123813604Y-69050000D01*
X136913190Y-62051000D02*
X143685982Y-62051000D01*
X161685982Y-67051000D02*
X164685982Y-70051000D01*
X109725000Y-67725000D02*
X109725000Y-57250000D01*
X135087810Y-62050000D02*
X135698280Y-62050000D01*
X146449000Y-66314018D02*
X147185982Y-67051000D01*
X111050000Y-69050000D02*
X109725000Y-67725000D01*
X146449000Y-64814018D02*
X146449000Y-66314018D01*
X184549000Y-74048999D02*
X185540001Y-75040000D01*
X184549000Y-71549000D02*
X184549000Y-74048999D01*
X128413190Y-62051000D02*
X135086810Y-62051000D01*
X118775000Y-68775000D02*
X119050000Y-69050000D01*
X136300720Y-62051000D02*
X136301720Y-62050000D01*
X128412190Y-62050000D02*
X128413190Y-62051000D01*
X136912190Y-62050000D02*
X136913190Y-62051000D01*
X116950000Y-69050000D02*
X111050000Y-69050000D01*
X136301720Y-62050000D02*
X136912190Y-62050000D01*
X118000000Y-68775000D02*
X118775000Y-68775000D01*
X147185982Y-67051000D02*
X161685982Y-67051000D01*
X135698280Y-62050000D02*
X135699280Y-62051000D01*
X125050000Y-67813604D02*
X125050000Y-64313604D01*
X135086810Y-62051000D02*
X135087810Y-62050000D01*
X123813604Y-69050000D02*
X125050000Y-67813604D01*
X164685982Y-70051000D02*
X183051000Y-70051000D01*
%TO.N,main_pinky_top*%
X117698280Y-69500000D02*
X117699280Y-69501000D01*
X136725380Y-62501000D02*
X136726380Y-62502000D01*
X100000000Y-74500000D02*
X106000000Y-74500000D01*
X100000000Y-74500000D02*
X93000000Y-74500000D01*
X128226380Y-62502000D02*
X128600000Y-62502000D01*
X118301720Y-69500000D02*
X118862190Y-69500000D01*
X125501000Y-64500414D02*
X127500414Y-62501000D01*
X161499172Y-67502000D02*
X164234982Y-70237810D01*
X118862190Y-69500000D02*
X118863190Y-69501000D01*
X184098000Y-71735810D02*
X184098000Y-73548620D01*
X136113910Y-62502000D02*
X136487530Y-62502000D01*
X118863190Y-69501000D02*
X119236810Y-69501000D01*
X147372792Y-67502000D02*
X161499172Y-67502000D01*
X117137810Y-69500000D02*
X117698280Y-69500000D01*
X128225380Y-62501000D02*
X128226380Y-62502000D01*
X182864190Y-70502000D02*
X184098000Y-71735810D01*
X118300720Y-69501000D02*
X118301720Y-69500000D01*
X125236810Y-68264604D02*
X125501000Y-68000414D01*
X93000000Y-74500000D02*
X91725000Y-73225000D01*
X184098000Y-74235809D02*
X184362190Y-74499999D01*
X135511470Y-62501000D02*
X135512470Y-62502000D01*
X124264604Y-69236810D02*
X125236810Y-68264604D01*
X127500414Y-62501000D02*
X128225380Y-62501000D01*
X116763190Y-69501000D02*
X117136810Y-69501000D01*
X135273620Y-62502000D02*
X135274620Y-62501000D01*
X117699280Y-69501000D02*
X118300720Y-69501000D01*
X119236810Y-69501000D02*
X123626794Y-69501000D01*
X145998000Y-66127208D02*
X145998000Y-66500828D01*
X136487530Y-62502000D02*
X136488530Y-62501000D01*
X135274620Y-62501000D02*
X135511470Y-62501000D01*
X184500000Y-74637809D02*
X184500000Y-77000000D01*
X164234982Y-70237810D02*
X164499172Y-70502000D01*
X184362190Y-74499999D02*
X184500000Y-74637809D01*
X106000000Y-74500000D02*
X110999000Y-69501000D01*
X117136810Y-69501000D02*
X117137810Y-69500000D01*
X146734982Y-67237810D02*
X146999172Y-67502000D01*
X184098000Y-73548620D02*
X184098000Y-73862189D01*
X136726380Y-62502000D02*
X137100000Y-62502000D01*
X111236810Y-69501000D02*
X116763190Y-69501000D01*
X184098000Y-73862189D02*
X184098000Y-74235809D01*
X123626794Y-69501000D02*
X124000414Y-69501000D01*
X185080000Y-77580000D02*
X186380000Y-77580000D01*
X91725000Y-73225000D02*
X91725000Y-62250000D01*
X137100000Y-62502000D02*
X143499172Y-62502000D01*
X164872792Y-70502000D02*
X182864190Y-70502000D01*
X124000414Y-69501000D02*
X124264604Y-69236810D01*
X146262190Y-66765018D02*
X146734982Y-67237810D01*
X136488530Y-62501000D02*
X136725380Y-62501000D01*
X125501000Y-68000414D02*
X125501000Y-67626794D01*
X128600000Y-62502000D02*
X134900000Y-62502000D01*
X164499172Y-70502000D02*
X164872792Y-70502000D01*
X184500000Y-77000000D02*
X185080000Y-77580000D01*
X135886090Y-62502000D02*
X136113910Y-62502000D01*
X143499172Y-62502000D02*
X145998000Y-65000828D01*
X145998000Y-65000828D02*
X145998000Y-66127208D01*
X135512470Y-62502000D02*
X135886090Y-62502000D01*
X110999000Y-69501000D02*
X111236810Y-69501000D01*
X134900000Y-62502000D02*
X135273620Y-62502000D01*
X145998000Y-66500828D02*
X146262190Y-66765018D01*
X146999172Y-67502000D02*
X147372792Y-67502000D01*
X125501000Y-67626794D02*
X125501000Y-64500414D01*
%TO.N,main_index_home*%
X181440812Y-86150000D02*
X184545406Y-83045406D01*
X153125000Y-82875000D02*
X152850000Y-83150000D01*
X148059188Y-83150000D02*
X146350000Y-81440812D01*
X154875000Y-82875000D02*
X155150000Y-83150000D01*
X155150000Y-83150000D02*
X162059188Y-83150000D01*
X145725000Y-79315812D02*
X145725000Y-72250000D01*
X154000000Y-82875000D02*
X154875000Y-82875000D01*
X146350000Y-79940812D02*
X145725000Y-79315812D01*
X184545406Y-81757347D02*
X186182753Y-80120000D01*
X165059188Y-86150000D02*
X181440812Y-86150000D01*
X162059188Y-83150000D02*
X165059188Y-86150000D01*
X146350000Y-81440812D02*
X146350000Y-79940812D01*
X154000000Y-82875000D02*
X153125000Y-82875000D01*
X184545406Y-83045406D02*
X184545406Y-81757347D01*
X186182753Y-80120000D02*
X186380000Y-80120000D01*
X152850000Y-83150000D02*
X148059188Y-83150000D01*
%TO.N,main_ring_home*%
X111050000Y-86050000D02*
X116950000Y-86050000D01*
X144186396Y-79050000D02*
X145450000Y-80313604D01*
X186203604Y-82660000D02*
X186380000Y-82660000D01*
X145450000Y-81813604D02*
X147686396Y-84050000D01*
X125050000Y-81813604D02*
X127813604Y-79050000D01*
X118000000Y-85775000D02*
X118775000Y-85775000D01*
X116950000Y-86050000D02*
X117225000Y-85775000D01*
X109725000Y-74250000D02*
X109725000Y-74725000D01*
X127813604Y-79050000D02*
X144186396Y-79050000D01*
X123313604Y-86050000D02*
X125050000Y-84313604D01*
X145450000Y-80313604D02*
X145450000Y-81813604D01*
X164686396Y-87050000D02*
X181813604Y-87050000D01*
X181813604Y-87050000D02*
X186203604Y-82660000D01*
X109725000Y-84725000D02*
X111050000Y-86050000D01*
X109725000Y-74250000D02*
X109725000Y-84725000D01*
X117225000Y-85775000D02*
X118000000Y-85775000D01*
X161686396Y-84050000D02*
X164686396Y-87050000D01*
X147686396Y-84050000D02*
X161686396Y-84050000D01*
X125050000Y-84313604D02*
X125050000Y-81813604D01*
X118775000Y-85775000D02*
X119050000Y-86050000D01*
X119050000Y-86050000D02*
X123313604Y-86050000D01*
%TO.N,main_index_bottom*%
X186440812Y-89150000D02*
X187350000Y-89150000D01*
X145725000Y-96815812D02*
X145725000Y-89250000D01*
X165059188Y-103150000D02*
X178440812Y-103150000D01*
X178440812Y-103150000D02*
X185150000Y-96440812D01*
X146350000Y-97440812D02*
X145725000Y-96815812D01*
X185150000Y-96440812D02*
X185150000Y-90440812D01*
X187350000Y-89150000D02*
X188000000Y-88500000D01*
X162059188Y-100150000D02*
X165059188Y-103150000D01*
X146350000Y-98850000D02*
X146350000Y-97440812D01*
X154875000Y-99875000D02*
X155150000Y-100150000D01*
X188000000Y-88500000D02*
X188000000Y-86000000D01*
X154000000Y-99875000D02*
X153125000Y-99875000D01*
X152850000Y-100150000D02*
X147650000Y-100150000D01*
X188000000Y-86000000D02*
X187200000Y-85200000D01*
X155150000Y-100150000D02*
X162059188Y-100150000D01*
X154000000Y-99875000D02*
X154875000Y-99875000D01*
X187200000Y-85200000D02*
X186380000Y-85200000D01*
X147650000Y-100150000D02*
X146350000Y-98850000D01*
X153125000Y-99875000D02*
X152850000Y-100150000D01*
X185150000Y-90440812D02*
X186440812Y-89150000D01*
%TO.N,main_inner_bottom*%
X184963190Y-89989812D02*
X185989812Y-88963190D01*
X165245584Y-102700000D02*
X163725000Y-101179416D01*
X163725000Y-101179416D02*
X163725000Y-92250000D01*
X172925000Y-102425000D02*
X173199000Y-102699000D01*
X184699000Y-90627622D02*
X184699000Y-90254002D01*
X178254002Y-102699000D02*
X184699000Y-96254002D01*
X186254002Y-88699000D02*
X186255416Y-88699000D01*
X173199000Y-102699000D02*
X178254002Y-102699000D01*
X184699000Y-96254002D02*
X184699000Y-90627622D01*
X170725000Y-102700000D02*
X165245584Y-102700000D01*
X184699000Y-90254002D02*
X184963190Y-89989812D01*
X172000000Y-102425000D02*
X171000000Y-102425000D01*
X186255416Y-88699000D02*
X186380000Y-88574416D01*
X185989812Y-88963190D02*
X186254002Y-88699000D01*
X186380000Y-88574416D02*
X186380000Y-87740000D01*
X171000000Y-102425000D02*
X170725000Y-102700000D01*
X172000000Y-102425000D02*
X172925000Y-102425000D01*
%TO.N,thumb_inner*%
X153500000Y-118000000D02*
X155977535Y-108236051D01*
X161000000Y-122000000D02*
X155000000Y-120500000D01*
X155000000Y-120500000D02*
X153500000Y-118000000D01*
%TO.N,thumb_home*%
X184000000Y-135500000D02*
X174820139Y-129774725D01*
X189500000Y-130000000D02*
X186131579Y-134631579D01*
X186131579Y-134631579D02*
X184000000Y-135500000D01*
%TO.N,thumb_outer*%
X200000000Y-144500000D02*
X197000000Y-145000000D01*
X204000000Y-139000000D02*
X200000000Y-144500000D01*
X197000000Y-145000000D02*
X188745724Y-139525524D01*
%TO.N,JST1_1*%
X190200000Y-105000000D02*
X192000000Y-105000000D01*
%TO.N,JST1_2*%
X190200000Y-107000000D02*
X192000000Y-107000000D01*
%TO.N,DISP1_1*%
X188920000Y-92700000D02*
X188920000Y-94450000D01*
%TO.N,DISP1_2*%
X191460000Y-92700000D02*
X191460000Y-94450000D01*
%TO.N,DISP1_4*%
X196540000Y-92700000D02*
X196540000Y-94450000D01*
%TO.N,DISP1_5*%
X199080000Y-92700000D02*
X199080000Y-94450000D01*
%TO.N,pos*%
X198500000Y-100999994D02*
X198500000Y-104000000D01*
X189500000Y-103500000D02*
X194000000Y-103500000D01*
X194000000Y-103500000D02*
X194500000Y-104000000D01*
X198500000Y-104000000D02*
X196500000Y-106000000D01*
X196500000Y-106000000D02*
X194500000Y-106000000D01*
D25*
X199250000Y-98750000D02*
X200765000Y-98750000D01*
D24*
X189184000Y-105000000D02*
X189184000Y-103816000D01*
X194500000Y-104000000D02*
X194500000Y-106000000D01*
D25*
X198500000Y-99500000D02*
X199250000Y-98750000D01*
D24*
X189184000Y-103816000D02*
X189500000Y-103500000D01*
D25*
X198500000Y-100999994D02*
X198500000Y-99500000D01*
%TD*%
M02*
