%TF.GenerationSoftware,KiCad,Pcbnew,9.0.0*%
%TF.CreationDate,2025-03-13T17:07:21-04:00*%
%TF.ProjectId,Tenebra,54656e65-6272-4612-9e6b-696361645f70,v1.0.0*%
%TF.SameCoordinates,Original*%
%TF.FileFunction,Legend,Top*%
%TF.FilePolarity,Positive*%
%FSLAX46Y46*%
G04 Gerber Fmt 4.6, Leading zero omitted, Abs format (unit mm)*
G04 Created by KiCad (PCBNEW 9.0.0) date 2025-03-13 17:07:21*
%MOMM*%
%LPD*%
G01*
G04 APERTURE LIST*
%ADD10C,0.300000*%
%ADD11C,0.150000*%
%ADD12C,0.120000*%
%ADD13C,0.100000*%
G04 APERTURE END LIST*
D10*
G36*
X110484333Y-108245000D02*
G01*
X110752145Y-108245000D01*
X110752145Y-107028670D01*
X111222191Y-107028670D01*
X111222191Y-106791266D01*
X110017585Y-106791266D01*
X110017585Y-107028670D01*
X110484333Y-107028670D01*
X110484333Y-108245000D01*
G37*
G36*
X111891538Y-108268447D02*
G01*
X111971805Y-108264909D01*
X112052788Y-108254448D01*
X112132785Y-108237295D01*
X112210093Y-108213680D01*
X112252407Y-108197372D01*
X112193056Y-108009794D01*
X112122169Y-108035649D01*
X112049071Y-108053539D01*
X111975376Y-108062974D01*
X111934769Y-108064382D01*
X111857069Y-108058429D01*
X111773807Y-108034396D01*
X111706237Y-107992184D01*
X111654670Y-107932072D01*
X111619415Y-107854335D01*
X111603166Y-107779642D01*
X111597714Y-107693988D01*
X111603379Y-107609769D01*
X111624841Y-107526524D01*
X111661808Y-107463248D01*
X111723835Y-107415419D01*
X111805427Y-107396438D01*
X111818632Y-107396133D01*
X111897494Y-107408424D01*
X111966404Y-107451384D01*
X112006582Y-107512749D01*
X112026538Y-107594881D01*
X112028558Y-107636102D01*
X111560711Y-107636102D01*
X111560711Y-107799501D01*
X112268893Y-107799501D01*
X112277091Y-107725358D01*
X112280601Y-107651601D01*
X112280617Y-107647093D01*
X112276181Y-107570714D01*
X112256874Y-107478182D01*
X112222994Y-107397031D01*
X112175338Y-107328071D01*
X112114706Y-107272115D01*
X112041896Y-107229974D01*
X111957706Y-107202459D01*
X111862935Y-107190382D01*
X111837683Y-107189870D01*
X111754976Y-107195515D01*
X111678041Y-107212071D01*
X111607393Y-107238978D01*
X111543549Y-107275670D01*
X111469899Y-107338843D01*
X111423937Y-107396180D01*
X111386500Y-107461425D01*
X111358103Y-107534015D01*
X111339263Y-107613387D01*
X111330496Y-107698977D01*
X111329902Y-107728792D01*
X111335468Y-107820495D01*
X111351907Y-107904572D01*
X111378827Y-107980718D01*
X111415837Y-108048628D01*
X111462546Y-108107999D01*
X111518562Y-108158527D01*
X111583494Y-108199906D01*
X111656951Y-108231833D01*
X111738541Y-108254004D01*
X111827875Y-108266113D01*
X111891538Y-108268447D01*
G37*
G36*
X113192498Y-108245000D02*
G01*
X113460310Y-108245000D01*
X113460310Y-107602030D01*
X113453737Y-107510374D01*
X113434447Y-107428975D01*
X113403084Y-107358437D01*
X113347884Y-107286463D01*
X113276085Y-107233589D01*
X113207539Y-107205836D01*
X113129817Y-107191670D01*
X113087718Y-107189870D01*
X113006231Y-107196550D01*
X112928250Y-107216262D01*
X112854965Y-107248511D01*
X112787562Y-107292807D01*
X112727231Y-107348657D01*
X112708897Y-107369755D01*
X112748831Y-107534986D01*
X112809854Y-107481751D01*
X112877898Y-107445046D01*
X112951984Y-107425751D01*
X112995394Y-107422878D01*
X113071804Y-107433530D01*
X113136482Y-107471389D01*
X113176740Y-107535987D01*
X113191717Y-107613904D01*
X113192498Y-107639766D01*
X113192498Y-108245000D01*
G37*
G36*
X112519853Y-108245000D02*
G01*
X112787665Y-108245000D01*
X112787665Y-107395401D01*
X112711461Y-107213318D01*
X112519853Y-107213318D01*
X112519853Y-108245000D01*
G37*
G36*
X114242131Y-108268447D02*
G01*
X114322398Y-108264909D01*
X114403381Y-108254448D01*
X114483378Y-108237295D01*
X114560687Y-108213680D01*
X114603000Y-108197372D01*
X114543649Y-108009794D01*
X114472763Y-108035649D01*
X114399665Y-108053539D01*
X114325969Y-108062974D01*
X114285362Y-108064382D01*
X114207662Y-108058429D01*
X114124400Y-108034396D01*
X114056830Y-107992184D01*
X114005263Y-107932072D01*
X113970009Y-107854335D01*
X113953759Y-107779642D01*
X113948307Y-107693988D01*
X113953972Y-107609769D01*
X113975435Y-107526524D01*
X114012401Y-107463248D01*
X114074428Y-107415419D01*
X114156020Y-107396438D01*
X114169225Y-107396133D01*
X114248088Y-107408424D01*
X114316997Y-107451384D01*
X114357175Y-107512749D01*
X114377131Y-107594881D01*
X114379152Y-107636102D01*
X113911304Y-107636102D01*
X113911304Y-107799501D01*
X114619487Y-107799501D01*
X114627684Y-107725358D01*
X114631194Y-107651601D01*
X114631210Y-107647093D01*
X114626774Y-107570714D01*
X114607468Y-107478182D01*
X114573587Y-107397031D01*
X114525931Y-107328071D01*
X114465299Y-107272115D01*
X114392489Y-107229974D01*
X114308299Y-107202459D01*
X114213528Y-107190382D01*
X114188276Y-107189870D01*
X114105569Y-107195515D01*
X114028634Y-107212071D01*
X113957986Y-107238978D01*
X113894142Y-107275670D01*
X113820492Y-107338843D01*
X113774530Y-107396180D01*
X113737093Y-107461425D01*
X113708696Y-107534015D01*
X113689857Y-107613387D01*
X113681090Y-107698977D01*
X113680495Y-107728792D01*
X113686062Y-107820495D01*
X113702500Y-107904572D01*
X113729420Y-107980718D01*
X113766430Y-108048628D01*
X113813139Y-108107999D01*
X113869155Y-108158527D01*
X113934087Y-108199906D01*
X114007544Y-108231833D01*
X114089135Y-108254004D01*
X114178468Y-108266113D01*
X114242131Y-108268447D01*
G37*
G36*
X115374930Y-108268447D02*
G01*
X115453224Y-108262802D01*
X115526016Y-108246205D01*
X115613681Y-108207906D01*
X115689572Y-108152224D01*
X115752551Y-108080352D01*
X115790627Y-108016541D01*
X115820320Y-107944798D01*
X115841150Y-107865627D01*
X115852637Y-107779530D01*
X115854867Y-107718534D01*
X115850154Y-107631418D01*
X115836327Y-107550707D01*
X115813856Y-107476872D01*
X115771258Y-107389940D01*
X115715238Y-107317194D01*
X115646908Y-107259754D01*
X115567380Y-107218742D01*
X115477766Y-107195278D01*
X115404605Y-107189870D01*
X115320722Y-107197085D01*
X115244553Y-107218289D01*
X115176569Y-107252819D01*
X115117238Y-107300012D01*
X115067031Y-107359207D01*
X115026416Y-107429740D01*
X115012962Y-107460980D01*
X115094295Y-107565760D01*
X115131492Y-107500576D01*
X115190367Y-107449456D01*
X115263597Y-107421903D01*
X115318510Y-107416650D01*
X115403936Y-107429379D01*
X115474564Y-107466244D01*
X115528885Y-107525260D01*
X115565393Y-107604440D01*
X115581123Y-107684396D01*
X115583757Y-107737951D01*
X115577210Y-107820500D01*
X115558000Y-107891597D01*
X115519140Y-107960334D01*
X115464090Y-108009288D01*
X115393966Y-108036661D01*
X115339392Y-108042034D01*
X115263120Y-108031695D01*
X115189069Y-107996571D01*
X115135824Y-107946063D01*
X115100523Y-107888161D01*
X115010031Y-108028112D01*
X115043921Y-108096208D01*
X115096314Y-108163425D01*
X115161126Y-108214441D01*
X115237968Y-108248853D01*
X115310910Y-108264551D01*
X115374930Y-108268447D01*
G37*
G36*
X114870446Y-108245000D02*
G01*
X115041538Y-108245000D01*
X115130565Y-108055956D01*
X115130565Y-106697477D01*
X114870446Y-106697477D01*
X114870446Y-108245000D01*
G37*
G36*
X116094103Y-108245000D02*
G01*
X116361915Y-108245000D01*
X116361915Y-107543046D01*
X116306594Y-107213318D01*
X116094103Y-107213318D01*
X116094103Y-108245000D01*
G37*
G36*
X116310258Y-107662847D02*
G01*
X116347899Y-107598640D01*
X116403867Y-107538350D01*
X116470646Y-107495206D01*
X116545958Y-107470680D01*
X116603715Y-107465376D01*
X116678614Y-107472788D01*
X116733042Y-107487358D01*
X116795690Y-107241894D01*
X116724112Y-107220874D01*
X116649131Y-107213349D01*
X116644016Y-107213318D01*
X116569754Y-107220816D01*
X116499225Y-107242703D01*
X116433923Y-107278066D01*
X116375339Y-107325992D01*
X116324966Y-107385568D01*
X116310258Y-107407857D01*
X116310258Y-107662847D01*
G37*
G36*
X117595097Y-108245000D02*
G01*
X117786706Y-108245000D01*
X117786706Y-107628042D01*
X117782554Y-107551034D01*
X117764191Y-107459559D01*
X117731326Y-107381070D01*
X117684129Y-107315764D01*
X117622772Y-107263837D01*
X117547428Y-107225489D01*
X117458268Y-107200915D01*
X117382435Y-107191644D01*
X117327651Y-107189870D01*
X117244720Y-107193693D01*
X117161577Y-107204843D01*
X117080017Y-107222842D01*
X117001839Y-107247212D01*
X116928838Y-107277474D01*
X116905966Y-107288789D01*
X116969347Y-107477833D01*
X117038405Y-107452182D01*
X117115517Y-107430665D01*
X117190401Y-107417399D01*
X117271598Y-107412254D01*
X117355501Y-107419148D01*
X117432670Y-107444502D01*
X117492526Y-107496049D01*
X117520973Y-107571378D01*
X117523290Y-107605694D01*
X117523290Y-108047896D01*
X117595097Y-108245000D01*
G37*
G36*
X117239357Y-108268447D02*
G01*
X117320437Y-108262483D01*
X117395120Y-108244845D01*
X117462813Y-108215916D01*
X117536697Y-108164458D01*
X117597577Y-108096700D01*
X117636141Y-108031260D01*
X117665049Y-107956248D01*
X117675697Y-107915272D01*
X117588869Y-107875338D01*
X117556888Y-107942072D01*
X117500019Y-108002099D01*
X117435890Y-108038038D01*
X117361532Y-108056278D01*
X117327285Y-108058154D01*
X117249052Y-108046159D01*
X117182335Y-108002609D01*
X117155294Y-107933571D01*
X117155094Y-107926263D01*
X117184417Y-107854691D01*
X117251035Y-107817315D01*
X117324387Y-107799614D01*
X117399577Y-107790483D01*
X117490202Y-107785559D01*
X117568719Y-107784480D01*
X117568719Y-107635369D01*
X117483049Y-107636536D01*
X117403490Y-107640066D01*
X117329961Y-107646005D01*
X117230797Y-107659528D01*
X117144748Y-107678723D01*
X117071542Y-107703744D01*
X116993442Y-107746429D01*
X116937048Y-107800100D01*
X116901714Y-107865119D01*
X116886797Y-107941846D01*
X116886182Y-107962899D01*
X116896042Y-108044932D01*
X116924706Y-108116073D01*
X116970798Y-108175088D01*
X117032943Y-108220746D01*
X117109765Y-108251813D01*
X117199891Y-108267056D01*
X117239357Y-108268447D01*
G37*
D11*
X188791905Y-85654819D02*
X188791905Y-84654819D01*
X188791905Y-84654819D02*
X189172857Y-84654819D01*
X189172857Y-84654819D02*
X189268095Y-84702438D01*
X189268095Y-84702438D02*
X189315714Y-84750057D01*
X189315714Y-84750057D02*
X189363333Y-84845295D01*
X189363333Y-84845295D02*
X189363333Y-84988152D01*
X189363333Y-84988152D02*
X189315714Y-85083390D01*
X189315714Y-85083390D02*
X189268095Y-85131009D01*
X189268095Y-85131009D02*
X189172857Y-85178628D01*
X189172857Y-85178628D02*
X188791905Y-85178628D01*
X189934762Y-85083390D02*
X189839524Y-85035771D01*
X189839524Y-85035771D02*
X189791905Y-84988152D01*
X189791905Y-84988152D02*
X189744286Y-84892914D01*
X189744286Y-84892914D02*
X189744286Y-84845295D01*
X189744286Y-84845295D02*
X189791905Y-84750057D01*
X189791905Y-84750057D02*
X189839524Y-84702438D01*
X189839524Y-84702438D02*
X189934762Y-84654819D01*
X189934762Y-84654819D02*
X190125238Y-84654819D01*
X190125238Y-84654819D02*
X190220476Y-84702438D01*
X190220476Y-84702438D02*
X190268095Y-84750057D01*
X190268095Y-84750057D02*
X190315714Y-84845295D01*
X190315714Y-84845295D02*
X190315714Y-84892914D01*
X190315714Y-84892914D02*
X190268095Y-84988152D01*
X190268095Y-84988152D02*
X190220476Y-85035771D01*
X190220476Y-85035771D02*
X190125238Y-85083390D01*
X190125238Y-85083390D02*
X189934762Y-85083390D01*
X189934762Y-85083390D02*
X189839524Y-85131009D01*
X189839524Y-85131009D02*
X189791905Y-85178628D01*
X189791905Y-85178628D02*
X189744286Y-85273866D01*
X189744286Y-85273866D02*
X189744286Y-85464342D01*
X189744286Y-85464342D02*
X189791905Y-85559580D01*
X189791905Y-85559580D02*
X189839524Y-85607200D01*
X189839524Y-85607200D02*
X189934762Y-85654819D01*
X189934762Y-85654819D02*
X190125238Y-85654819D01*
X190125238Y-85654819D02*
X190220476Y-85607200D01*
X190220476Y-85607200D02*
X190268095Y-85559580D01*
X190268095Y-85559580D02*
X190315714Y-85464342D01*
X190315714Y-85464342D02*
X190315714Y-85273866D01*
X190315714Y-85273866D02*
X190268095Y-85178628D01*
X190268095Y-85178628D02*
X190220476Y-85131009D01*
X190220476Y-85131009D02*
X190125238Y-85083390D01*
X188791905Y-72954819D02*
X188791905Y-71954819D01*
X188791905Y-71954819D02*
X189172857Y-71954819D01*
X189172857Y-71954819D02*
X189268095Y-72002438D01*
X189268095Y-72002438D02*
X189315714Y-72050057D01*
X189315714Y-72050057D02*
X189363333Y-72145295D01*
X189363333Y-72145295D02*
X189363333Y-72288152D01*
X189363333Y-72288152D02*
X189315714Y-72383390D01*
X189315714Y-72383390D02*
X189268095Y-72431009D01*
X189268095Y-72431009D02*
X189172857Y-72478628D01*
X189172857Y-72478628D02*
X188791905Y-72478628D01*
X189696667Y-71954819D02*
X190315714Y-71954819D01*
X190315714Y-71954819D02*
X189982381Y-72335771D01*
X189982381Y-72335771D02*
X190125238Y-72335771D01*
X190125238Y-72335771D02*
X190220476Y-72383390D01*
X190220476Y-72383390D02*
X190268095Y-72431009D01*
X190268095Y-72431009D02*
X190315714Y-72526247D01*
X190315714Y-72526247D02*
X190315714Y-72764342D01*
X190315714Y-72764342D02*
X190268095Y-72859580D01*
X190268095Y-72859580D02*
X190220476Y-72907200D01*
X190220476Y-72907200D02*
X190125238Y-72954819D01*
X190125238Y-72954819D02*
X189839524Y-72954819D01*
X189839524Y-72954819D02*
X189744286Y-72907200D01*
X189744286Y-72907200D02*
X189696667Y-72859580D01*
X197255714Y-78034819D02*
X197255714Y-77034819D01*
X197255714Y-77034819D02*
X197636666Y-77034819D01*
X197636666Y-77034819D02*
X197731904Y-77082438D01*
X197731904Y-77082438D02*
X197779523Y-77130057D01*
X197779523Y-77130057D02*
X197827142Y-77225295D01*
X197827142Y-77225295D02*
X197827142Y-77368152D01*
X197827142Y-77368152D02*
X197779523Y-77463390D01*
X197779523Y-77463390D02*
X197731904Y-77511009D01*
X197731904Y-77511009D02*
X197636666Y-77558628D01*
X197636666Y-77558628D02*
X197255714Y-77558628D01*
X198779523Y-78034819D02*
X198208095Y-78034819D01*
X198493809Y-78034819D02*
X198493809Y-77034819D01*
X198493809Y-77034819D02*
X198398571Y-77177676D01*
X198398571Y-77177676D02*
X198303333Y-77272914D01*
X198303333Y-77272914D02*
X198208095Y-77320533D01*
X199350952Y-77463390D02*
X199255714Y-77415771D01*
X199255714Y-77415771D02*
X199208095Y-77368152D01*
X199208095Y-77368152D02*
X199160476Y-77272914D01*
X199160476Y-77272914D02*
X199160476Y-77225295D01*
X199160476Y-77225295D02*
X199208095Y-77130057D01*
X199208095Y-77130057D02*
X199255714Y-77082438D01*
X199255714Y-77082438D02*
X199350952Y-77034819D01*
X199350952Y-77034819D02*
X199541428Y-77034819D01*
X199541428Y-77034819D02*
X199636666Y-77082438D01*
X199636666Y-77082438D02*
X199684285Y-77130057D01*
X199684285Y-77130057D02*
X199731904Y-77225295D01*
X199731904Y-77225295D02*
X199731904Y-77272914D01*
X199731904Y-77272914D02*
X199684285Y-77368152D01*
X199684285Y-77368152D02*
X199636666Y-77415771D01*
X199636666Y-77415771D02*
X199541428Y-77463390D01*
X199541428Y-77463390D02*
X199350952Y-77463390D01*
X199350952Y-77463390D02*
X199255714Y-77511009D01*
X199255714Y-77511009D02*
X199208095Y-77558628D01*
X199208095Y-77558628D02*
X199160476Y-77653866D01*
X199160476Y-77653866D02*
X199160476Y-77844342D01*
X199160476Y-77844342D02*
X199208095Y-77939580D01*
X199208095Y-77939580D02*
X199255714Y-77987200D01*
X199255714Y-77987200D02*
X199350952Y-78034819D01*
X199350952Y-78034819D02*
X199541428Y-78034819D01*
X199541428Y-78034819D02*
X199636666Y-77987200D01*
X199636666Y-77987200D02*
X199684285Y-77939580D01*
X199684285Y-77939580D02*
X199731904Y-77844342D01*
X199731904Y-77844342D02*
X199731904Y-77653866D01*
X199731904Y-77653866D02*
X199684285Y-77558628D01*
X199684285Y-77558628D02*
X199636666Y-77511009D01*
X199636666Y-77511009D02*
X199541428Y-77463390D01*
X197255714Y-70414819D02*
X197255714Y-69414819D01*
X197255714Y-69414819D02*
X197636666Y-69414819D01*
X197636666Y-69414819D02*
X197731904Y-69462438D01*
X197731904Y-69462438D02*
X197779523Y-69510057D01*
X197779523Y-69510057D02*
X197827142Y-69605295D01*
X197827142Y-69605295D02*
X197827142Y-69748152D01*
X197827142Y-69748152D02*
X197779523Y-69843390D01*
X197779523Y-69843390D02*
X197731904Y-69891009D01*
X197731904Y-69891009D02*
X197636666Y-69938628D01*
X197636666Y-69938628D02*
X197255714Y-69938628D01*
X198208095Y-69510057D02*
X198255714Y-69462438D01*
X198255714Y-69462438D02*
X198350952Y-69414819D01*
X198350952Y-69414819D02*
X198589047Y-69414819D01*
X198589047Y-69414819D02*
X198684285Y-69462438D01*
X198684285Y-69462438D02*
X198731904Y-69510057D01*
X198731904Y-69510057D02*
X198779523Y-69605295D01*
X198779523Y-69605295D02*
X198779523Y-69700533D01*
X198779523Y-69700533D02*
X198731904Y-69843390D01*
X198731904Y-69843390D02*
X198160476Y-70414819D01*
X198160476Y-70414819D02*
X198779523Y-70414819D01*
X199731904Y-70414819D02*
X199160476Y-70414819D01*
X199446190Y-70414819D02*
X199446190Y-69414819D01*
X199446190Y-69414819D02*
X199350952Y-69557676D01*
X199350952Y-69557676D02*
X199255714Y-69652914D01*
X199255714Y-69652914D02*
X199160476Y-69700533D01*
X197708095Y-61842438D02*
X197612857Y-61794819D01*
X197612857Y-61794819D02*
X197470000Y-61794819D01*
X197470000Y-61794819D02*
X197327143Y-61842438D01*
X197327143Y-61842438D02*
X197231905Y-61937676D01*
X197231905Y-61937676D02*
X197184286Y-62032914D01*
X197184286Y-62032914D02*
X197136667Y-62223390D01*
X197136667Y-62223390D02*
X197136667Y-62366247D01*
X197136667Y-62366247D02*
X197184286Y-62556723D01*
X197184286Y-62556723D02*
X197231905Y-62651961D01*
X197231905Y-62651961D02*
X197327143Y-62747200D01*
X197327143Y-62747200D02*
X197470000Y-62794819D01*
X197470000Y-62794819D02*
X197565238Y-62794819D01*
X197565238Y-62794819D02*
X197708095Y-62747200D01*
X197708095Y-62747200D02*
X197755714Y-62699580D01*
X197755714Y-62699580D02*
X197755714Y-62366247D01*
X197755714Y-62366247D02*
X197565238Y-62366247D01*
X198184286Y-62794819D02*
X198184286Y-61794819D01*
X198184286Y-61794819D02*
X198755714Y-62794819D01*
X198755714Y-62794819D02*
X198755714Y-61794819D01*
X199231905Y-62794819D02*
X199231905Y-61794819D01*
X199231905Y-61794819D02*
X199470000Y-61794819D01*
X199470000Y-61794819D02*
X199612857Y-61842438D01*
X199612857Y-61842438D02*
X199708095Y-61937676D01*
X199708095Y-61937676D02*
X199755714Y-62032914D01*
X199755714Y-62032914D02*
X199803333Y-62223390D01*
X199803333Y-62223390D02*
X199803333Y-62366247D01*
X199803333Y-62366247D02*
X199755714Y-62556723D01*
X199755714Y-62556723D02*
X199708095Y-62651961D01*
X199708095Y-62651961D02*
X199612857Y-62747200D01*
X199612857Y-62747200D02*
X199470000Y-62794819D01*
X199470000Y-62794819D02*
X199231905Y-62794819D01*
X188791905Y-80574819D02*
X188791905Y-79574819D01*
X188791905Y-79574819D02*
X189172857Y-79574819D01*
X189172857Y-79574819D02*
X189268095Y-79622438D01*
X189268095Y-79622438D02*
X189315714Y-79670057D01*
X189315714Y-79670057D02*
X189363333Y-79765295D01*
X189363333Y-79765295D02*
X189363333Y-79908152D01*
X189363333Y-79908152D02*
X189315714Y-80003390D01*
X189315714Y-80003390D02*
X189268095Y-80051009D01*
X189268095Y-80051009D02*
X189172857Y-80098628D01*
X189172857Y-80098628D02*
X188791905Y-80098628D01*
X190220476Y-79574819D02*
X190030000Y-79574819D01*
X190030000Y-79574819D02*
X189934762Y-79622438D01*
X189934762Y-79622438D02*
X189887143Y-79670057D01*
X189887143Y-79670057D02*
X189791905Y-79812914D01*
X189791905Y-79812914D02*
X189744286Y-80003390D01*
X189744286Y-80003390D02*
X189744286Y-80384342D01*
X189744286Y-80384342D02*
X189791905Y-80479580D01*
X189791905Y-80479580D02*
X189839524Y-80527200D01*
X189839524Y-80527200D02*
X189934762Y-80574819D01*
X189934762Y-80574819D02*
X190125238Y-80574819D01*
X190125238Y-80574819D02*
X190220476Y-80527200D01*
X190220476Y-80527200D02*
X190268095Y-80479580D01*
X190268095Y-80479580D02*
X190315714Y-80384342D01*
X190315714Y-80384342D02*
X190315714Y-80146247D01*
X190315714Y-80146247D02*
X190268095Y-80051009D01*
X190268095Y-80051009D02*
X190220476Y-80003390D01*
X190220476Y-80003390D02*
X190125238Y-79955771D01*
X190125238Y-79955771D02*
X189934762Y-79955771D01*
X189934762Y-79955771D02*
X189839524Y-80003390D01*
X189839524Y-80003390D02*
X189791905Y-80051009D01*
X189791905Y-80051009D02*
X189744286Y-80146247D01*
X197255714Y-88194819D02*
X197255714Y-87194819D01*
X197255714Y-87194819D02*
X197636666Y-87194819D01*
X197636666Y-87194819D02*
X197731904Y-87242438D01*
X197731904Y-87242438D02*
X197779523Y-87290057D01*
X197779523Y-87290057D02*
X197827142Y-87385295D01*
X197827142Y-87385295D02*
X197827142Y-87528152D01*
X197827142Y-87528152D02*
X197779523Y-87623390D01*
X197779523Y-87623390D02*
X197731904Y-87671009D01*
X197731904Y-87671009D02*
X197636666Y-87718628D01*
X197636666Y-87718628D02*
X197255714Y-87718628D01*
X198779523Y-88194819D02*
X198208095Y-88194819D01*
X198493809Y-88194819D02*
X198493809Y-87194819D01*
X198493809Y-87194819D02*
X198398571Y-87337676D01*
X198398571Y-87337676D02*
X198303333Y-87432914D01*
X198303333Y-87432914D02*
X198208095Y-87480533D01*
X199398571Y-87194819D02*
X199493809Y-87194819D01*
X199493809Y-87194819D02*
X199589047Y-87242438D01*
X199589047Y-87242438D02*
X199636666Y-87290057D01*
X199636666Y-87290057D02*
X199684285Y-87385295D01*
X199684285Y-87385295D02*
X199731904Y-87575771D01*
X199731904Y-87575771D02*
X199731904Y-87813866D01*
X199731904Y-87813866D02*
X199684285Y-88004342D01*
X199684285Y-88004342D02*
X199636666Y-88099580D01*
X199636666Y-88099580D02*
X199589047Y-88147200D01*
X199589047Y-88147200D02*
X199493809Y-88194819D01*
X199493809Y-88194819D02*
X199398571Y-88194819D01*
X199398571Y-88194819D02*
X199303333Y-88147200D01*
X199303333Y-88147200D02*
X199255714Y-88099580D01*
X199255714Y-88099580D02*
X199208095Y-88004342D01*
X199208095Y-88004342D02*
X199160476Y-87813866D01*
X199160476Y-87813866D02*
X199160476Y-87575771D01*
X199160476Y-87575771D02*
X199208095Y-87385295D01*
X199208095Y-87385295D02*
X199255714Y-87290057D01*
X199255714Y-87290057D02*
X199303333Y-87242438D01*
X199303333Y-87242438D02*
X199398571Y-87194819D01*
X188791905Y-60254819D02*
X188791905Y-59254819D01*
X188791905Y-59254819D02*
X189172857Y-59254819D01*
X189172857Y-59254819D02*
X189268095Y-59302438D01*
X189268095Y-59302438D02*
X189315714Y-59350057D01*
X189315714Y-59350057D02*
X189363333Y-59445295D01*
X189363333Y-59445295D02*
X189363333Y-59588152D01*
X189363333Y-59588152D02*
X189315714Y-59683390D01*
X189315714Y-59683390D02*
X189268095Y-59731009D01*
X189268095Y-59731009D02*
X189172857Y-59778628D01*
X189172857Y-59778628D02*
X188791905Y-59778628D01*
X190315714Y-60254819D02*
X189744286Y-60254819D01*
X190030000Y-60254819D02*
X190030000Y-59254819D01*
X190030000Y-59254819D02*
X189934762Y-59397676D01*
X189934762Y-59397676D02*
X189839524Y-59492914D01*
X189839524Y-59492914D02*
X189744286Y-59540533D01*
X197255714Y-83114819D02*
X197255714Y-82114819D01*
X197255714Y-82114819D02*
X197636666Y-82114819D01*
X197636666Y-82114819D02*
X197731904Y-82162438D01*
X197731904Y-82162438D02*
X197779523Y-82210057D01*
X197779523Y-82210057D02*
X197827142Y-82305295D01*
X197827142Y-82305295D02*
X197827142Y-82448152D01*
X197827142Y-82448152D02*
X197779523Y-82543390D01*
X197779523Y-82543390D02*
X197731904Y-82591009D01*
X197731904Y-82591009D02*
X197636666Y-82638628D01*
X197636666Y-82638628D02*
X197255714Y-82638628D01*
X198779523Y-83114819D02*
X198208095Y-83114819D01*
X198493809Y-83114819D02*
X198493809Y-82114819D01*
X198493809Y-82114819D02*
X198398571Y-82257676D01*
X198398571Y-82257676D02*
X198303333Y-82352914D01*
X198303333Y-82352914D02*
X198208095Y-82400533D01*
X199636666Y-82448152D02*
X199636666Y-83114819D01*
X199398571Y-82067200D02*
X199160476Y-82781485D01*
X199160476Y-82781485D02*
X199779523Y-82781485D01*
X188791905Y-88194819D02*
X188791905Y-87194819D01*
X188791905Y-87194819D02*
X189172857Y-87194819D01*
X189172857Y-87194819D02*
X189268095Y-87242438D01*
X189268095Y-87242438D02*
X189315714Y-87290057D01*
X189315714Y-87290057D02*
X189363333Y-87385295D01*
X189363333Y-87385295D02*
X189363333Y-87528152D01*
X189363333Y-87528152D02*
X189315714Y-87623390D01*
X189315714Y-87623390D02*
X189268095Y-87671009D01*
X189268095Y-87671009D02*
X189172857Y-87718628D01*
X189172857Y-87718628D02*
X188791905Y-87718628D01*
X189839524Y-88194819D02*
X190030000Y-88194819D01*
X190030000Y-88194819D02*
X190125238Y-88147200D01*
X190125238Y-88147200D02*
X190172857Y-88099580D01*
X190172857Y-88099580D02*
X190268095Y-87956723D01*
X190268095Y-87956723D02*
X190315714Y-87766247D01*
X190315714Y-87766247D02*
X190315714Y-87385295D01*
X190315714Y-87385295D02*
X190268095Y-87290057D01*
X190268095Y-87290057D02*
X190220476Y-87242438D01*
X190220476Y-87242438D02*
X190125238Y-87194819D01*
X190125238Y-87194819D02*
X189934762Y-87194819D01*
X189934762Y-87194819D02*
X189839524Y-87242438D01*
X189839524Y-87242438D02*
X189791905Y-87290057D01*
X189791905Y-87290057D02*
X189744286Y-87385295D01*
X189744286Y-87385295D02*
X189744286Y-87623390D01*
X189744286Y-87623390D02*
X189791905Y-87718628D01*
X189791905Y-87718628D02*
X189839524Y-87766247D01*
X189839524Y-87766247D02*
X189934762Y-87813866D01*
X189934762Y-87813866D02*
X190125238Y-87813866D01*
X190125238Y-87813866D02*
X190220476Y-87766247D01*
X190220476Y-87766247D02*
X190268095Y-87718628D01*
X190268095Y-87718628D02*
X190315714Y-87623390D01*
X188791905Y-75494819D02*
X188791905Y-74494819D01*
X188791905Y-74494819D02*
X189172857Y-74494819D01*
X189172857Y-74494819D02*
X189268095Y-74542438D01*
X189268095Y-74542438D02*
X189315714Y-74590057D01*
X189315714Y-74590057D02*
X189363333Y-74685295D01*
X189363333Y-74685295D02*
X189363333Y-74828152D01*
X189363333Y-74828152D02*
X189315714Y-74923390D01*
X189315714Y-74923390D02*
X189268095Y-74971009D01*
X189268095Y-74971009D02*
X189172857Y-75018628D01*
X189172857Y-75018628D02*
X188791905Y-75018628D01*
X190220476Y-74828152D02*
X190220476Y-75494819D01*
X189982381Y-74447200D02*
X189744286Y-75161485D01*
X189744286Y-75161485D02*
X190363333Y-75161485D01*
X188768095Y-64382438D02*
X188672857Y-64334819D01*
X188672857Y-64334819D02*
X188530000Y-64334819D01*
X188530000Y-64334819D02*
X188387143Y-64382438D01*
X188387143Y-64382438D02*
X188291905Y-64477676D01*
X188291905Y-64477676D02*
X188244286Y-64572914D01*
X188244286Y-64572914D02*
X188196667Y-64763390D01*
X188196667Y-64763390D02*
X188196667Y-64906247D01*
X188196667Y-64906247D02*
X188244286Y-65096723D01*
X188244286Y-65096723D02*
X188291905Y-65191961D01*
X188291905Y-65191961D02*
X188387143Y-65287200D01*
X188387143Y-65287200D02*
X188530000Y-65334819D01*
X188530000Y-65334819D02*
X188625238Y-65334819D01*
X188625238Y-65334819D02*
X188768095Y-65287200D01*
X188768095Y-65287200D02*
X188815714Y-65239580D01*
X188815714Y-65239580D02*
X188815714Y-64906247D01*
X188815714Y-64906247D02*
X188625238Y-64906247D01*
X189244286Y-65334819D02*
X189244286Y-64334819D01*
X189244286Y-64334819D02*
X189815714Y-65334819D01*
X189815714Y-65334819D02*
X189815714Y-64334819D01*
X190291905Y-65334819D02*
X190291905Y-64334819D01*
X190291905Y-64334819D02*
X190530000Y-64334819D01*
X190530000Y-64334819D02*
X190672857Y-64382438D01*
X190672857Y-64382438D02*
X190768095Y-64477676D01*
X190768095Y-64477676D02*
X190815714Y-64572914D01*
X190815714Y-64572914D02*
X190863333Y-64763390D01*
X190863333Y-64763390D02*
X190863333Y-64906247D01*
X190863333Y-64906247D02*
X190815714Y-65096723D01*
X190815714Y-65096723D02*
X190768095Y-65191961D01*
X190768095Y-65191961D02*
X190672857Y-65287200D01*
X190672857Y-65287200D02*
X190530000Y-65334819D01*
X190530000Y-65334819D02*
X190291905Y-65334819D01*
X197779523Y-60254819D02*
X197446190Y-59778628D01*
X197208095Y-60254819D02*
X197208095Y-59254819D01*
X197208095Y-59254819D02*
X197589047Y-59254819D01*
X197589047Y-59254819D02*
X197684285Y-59302438D01*
X197684285Y-59302438D02*
X197731904Y-59350057D01*
X197731904Y-59350057D02*
X197779523Y-59445295D01*
X197779523Y-59445295D02*
X197779523Y-59588152D01*
X197779523Y-59588152D02*
X197731904Y-59683390D01*
X197731904Y-59683390D02*
X197684285Y-59731009D01*
X197684285Y-59731009D02*
X197589047Y-59778628D01*
X197589047Y-59778628D02*
X197208095Y-59778628D01*
X198160476Y-59969104D02*
X198636666Y-59969104D01*
X198065238Y-60254819D02*
X198398571Y-59254819D01*
X198398571Y-59254819D02*
X198731904Y-60254819D01*
X198970000Y-59254819D02*
X199208095Y-60254819D01*
X199208095Y-60254819D02*
X199398571Y-59540533D01*
X199398571Y-59540533D02*
X199589047Y-60254819D01*
X199589047Y-60254819D02*
X199827143Y-59254819D01*
X188791905Y-78034819D02*
X188791905Y-77034819D01*
X188791905Y-77034819D02*
X189172857Y-77034819D01*
X189172857Y-77034819D02*
X189268095Y-77082438D01*
X189268095Y-77082438D02*
X189315714Y-77130057D01*
X189315714Y-77130057D02*
X189363333Y-77225295D01*
X189363333Y-77225295D02*
X189363333Y-77368152D01*
X189363333Y-77368152D02*
X189315714Y-77463390D01*
X189315714Y-77463390D02*
X189268095Y-77511009D01*
X189268095Y-77511009D02*
X189172857Y-77558628D01*
X189172857Y-77558628D02*
X188791905Y-77558628D01*
X190268095Y-77034819D02*
X189791905Y-77034819D01*
X189791905Y-77034819D02*
X189744286Y-77511009D01*
X189744286Y-77511009D02*
X189791905Y-77463390D01*
X189791905Y-77463390D02*
X189887143Y-77415771D01*
X189887143Y-77415771D02*
X190125238Y-77415771D01*
X190125238Y-77415771D02*
X190220476Y-77463390D01*
X190220476Y-77463390D02*
X190268095Y-77511009D01*
X190268095Y-77511009D02*
X190315714Y-77606247D01*
X190315714Y-77606247D02*
X190315714Y-77844342D01*
X190315714Y-77844342D02*
X190268095Y-77939580D01*
X190268095Y-77939580D02*
X190220476Y-77987200D01*
X190220476Y-77987200D02*
X190125238Y-78034819D01*
X190125238Y-78034819D02*
X189887143Y-78034819D01*
X189887143Y-78034819D02*
X189791905Y-77987200D01*
X189791905Y-77987200D02*
X189744286Y-77939580D01*
X197255714Y-75494819D02*
X197255714Y-74494819D01*
X197255714Y-74494819D02*
X197636666Y-74494819D01*
X197636666Y-74494819D02*
X197731904Y-74542438D01*
X197731904Y-74542438D02*
X197779523Y-74590057D01*
X197779523Y-74590057D02*
X197827142Y-74685295D01*
X197827142Y-74685295D02*
X197827142Y-74828152D01*
X197827142Y-74828152D02*
X197779523Y-74923390D01*
X197779523Y-74923390D02*
X197731904Y-74971009D01*
X197731904Y-74971009D02*
X197636666Y-75018628D01*
X197636666Y-75018628D02*
X197255714Y-75018628D01*
X198779523Y-75494819D02*
X198208095Y-75494819D01*
X198493809Y-75494819D02*
X198493809Y-74494819D01*
X198493809Y-74494819D02*
X198398571Y-74637676D01*
X198398571Y-74637676D02*
X198303333Y-74732914D01*
X198303333Y-74732914D02*
X198208095Y-74780533D01*
X199255714Y-75494819D02*
X199446190Y-75494819D01*
X199446190Y-75494819D02*
X199541428Y-75447200D01*
X199541428Y-75447200D02*
X199589047Y-75399580D01*
X199589047Y-75399580D02*
X199684285Y-75256723D01*
X199684285Y-75256723D02*
X199731904Y-75066247D01*
X199731904Y-75066247D02*
X199731904Y-74685295D01*
X199731904Y-74685295D02*
X199684285Y-74590057D01*
X199684285Y-74590057D02*
X199636666Y-74542438D01*
X199636666Y-74542438D02*
X199541428Y-74494819D01*
X199541428Y-74494819D02*
X199350952Y-74494819D01*
X199350952Y-74494819D02*
X199255714Y-74542438D01*
X199255714Y-74542438D02*
X199208095Y-74590057D01*
X199208095Y-74590057D02*
X199160476Y-74685295D01*
X199160476Y-74685295D02*
X199160476Y-74923390D01*
X199160476Y-74923390D02*
X199208095Y-75018628D01*
X199208095Y-75018628D02*
X199255714Y-75066247D01*
X199255714Y-75066247D02*
X199350952Y-75113866D01*
X199350952Y-75113866D02*
X199541428Y-75113866D01*
X199541428Y-75113866D02*
X199636666Y-75066247D01*
X199636666Y-75066247D02*
X199684285Y-75018628D01*
X199684285Y-75018628D02*
X199731904Y-74923390D01*
X197255714Y-80574819D02*
X197255714Y-79574819D01*
X197255714Y-79574819D02*
X197636666Y-79574819D01*
X197636666Y-79574819D02*
X197731904Y-79622438D01*
X197731904Y-79622438D02*
X197779523Y-79670057D01*
X197779523Y-79670057D02*
X197827142Y-79765295D01*
X197827142Y-79765295D02*
X197827142Y-79908152D01*
X197827142Y-79908152D02*
X197779523Y-80003390D01*
X197779523Y-80003390D02*
X197731904Y-80051009D01*
X197731904Y-80051009D02*
X197636666Y-80098628D01*
X197636666Y-80098628D02*
X197255714Y-80098628D01*
X198779523Y-80574819D02*
X198208095Y-80574819D01*
X198493809Y-80574819D02*
X198493809Y-79574819D01*
X198493809Y-79574819D02*
X198398571Y-79717676D01*
X198398571Y-79717676D02*
X198303333Y-79812914D01*
X198303333Y-79812914D02*
X198208095Y-79860533D01*
X199684285Y-79574819D02*
X199208095Y-79574819D01*
X199208095Y-79574819D02*
X199160476Y-80051009D01*
X199160476Y-80051009D02*
X199208095Y-80003390D01*
X199208095Y-80003390D02*
X199303333Y-79955771D01*
X199303333Y-79955771D02*
X199541428Y-79955771D01*
X199541428Y-79955771D02*
X199636666Y-80003390D01*
X199636666Y-80003390D02*
X199684285Y-80051009D01*
X199684285Y-80051009D02*
X199731904Y-80146247D01*
X199731904Y-80146247D02*
X199731904Y-80384342D01*
X199731904Y-80384342D02*
X199684285Y-80479580D01*
X199684285Y-80479580D02*
X199636666Y-80527200D01*
X199636666Y-80527200D02*
X199541428Y-80574819D01*
X199541428Y-80574819D02*
X199303333Y-80574819D01*
X199303333Y-80574819D02*
X199208095Y-80527200D01*
X199208095Y-80527200D02*
X199160476Y-80479580D01*
X197255714Y-72954819D02*
X197255714Y-71954819D01*
X197255714Y-71954819D02*
X197636666Y-71954819D01*
X197636666Y-71954819D02*
X197731904Y-72002438D01*
X197731904Y-72002438D02*
X197779523Y-72050057D01*
X197779523Y-72050057D02*
X197827142Y-72145295D01*
X197827142Y-72145295D02*
X197827142Y-72288152D01*
X197827142Y-72288152D02*
X197779523Y-72383390D01*
X197779523Y-72383390D02*
X197731904Y-72431009D01*
X197731904Y-72431009D02*
X197636666Y-72478628D01*
X197636666Y-72478628D02*
X197255714Y-72478628D01*
X198208095Y-72050057D02*
X198255714Y-72002438D01*
X198255714Y-72002438D02*
X198350952Y-71954819D01*
X198350952Y-71954819D02*
X198589047Y-71954819D01*
X198589047Y-71954819D02*
X198684285Y-72002438D01*
X198684285Y-72002438D02*
X198731904Y-72050057D01*
X198731904Y-72050057D02*
X198779523Y-72145295D01*
X198779523Y-72145295D02*
X198779523Y-72240533D01*
X198779523Y-72240533D02*
X198731904Y-72383390D01*
X198731904Y-72383390D02*
X198160476Y-72954819D01*
X198160476Y-72954819D02*
X198779523Y-72954819D01*
X199398571Y-71954819D02*
X199493809Y-71954819D01*
X199493809Y-71954819D02*
X199589047Y-72002438D01*
X199589047Y-72002438D02*
X199636666Y-72050057D01*
X199636666Y-72050057D02*
X199684285Y-72145295D01*
X199684285Y-72145295D02*
X199731904Y-72335771D01*
X199731904Y-72335771D02*
X199731904Y-72573866D01*
X199731904Y-72573866D02*
X199684285Y-72764342D01*
X199684285Y-72764342D02*
X199636666Y-72859580D01*
X199636666Y-72859580D02*
X199589047Y-72907200D01*
X199589047Y-72907200D02*
X199493809Y-72954819D01*
X199493809Y-72954819D02*
X199398571Y-72954819D01*
X199398571Y-72954819D02*
X199303333Y-72907200D01*
X199303333Y-72907200D02*
X199255714Y-72859580D01*
X199255714Y-72859580D02*
X199208095Y-72764342D01*
X199208095Y-72764342D02*
X199160476Y-72573866D01*
X199160476Y-72573866D02*
X199160476Y-72335771D01*
X199160476Y-72335771D02*
X199208095Y-72145295D01*
X199208095Y-72145295D02*
X199255714Y-72050057D01*
X199255714Y-72050057D02*
X199303333Y-72002438D01*
X199303333Y-72002438D02*
X199398571Y-71954819D01*
X197255714Y-85654819D02*
X197255714Y-84654819D01*
X197255714Y-84654819D02*
X197636666Y-84654819D01*
X197636666Y-84654819D02*
X197731904Y-84702438D01*
X197731904Y-84702438D02*
X197779523Y-84750057D01*
X197779523Y-84750057D02*
X197827142Y-84845295D01*
X197827142Y-84845295D02*
X197827142Y-84988152D01*
X197827142Y-84988152D02*
X197779523Y-85083390D01*
X197779523Y-85083390D02*
X197731904Y-85131009D01*
X197731904Y-85131009D02*
X197636666Y-85178628D01*
X197636666Y-85178628D02*
X197255714Y-85178628D01*
X198779523Y-85654819D02*
X198208095Y-85654819D01*
X198493809Y-85654819D02*
X198493809Y-84654819D01*
X198493809Y-84654819D02*
X198398571Y-84797676D01*
X198398571Y-84797676D02*
X198303333Y-84892914D01*
X198303333Y-84892914D02*
X198208095Y-84940533D01*
X199636666Y-84654819D02*
X199446190Y-84654819D01*
X199446190Y-84654819D02*
X199350952Y-84702438D01*
X199350952Y-84702438D02*
X199303333Y-84750057D01*
X199303333Y-84750057D02*
X199208095Y-84892914D01*
X199208095Y-84892914D02*
X199160476Y-85083390D01*
X199160476Y-85083390D02*
X199160476Y-85464342D01*
X199160476Y-85464342D02*
X199208095Y-85559580D01*
X199208095Y-85559580D02*
X199255714Y-85607200D01*
X199255714Y-85607200D02*
X199350952Y-85654819D01*
X199350952Y-85654819D02*
X199541428Y-85654819D01*
X199541428Y-85654819D02*
X199636666Y-85607200D01*
X199636666Y-85607200D02*
X199684285Y-85559580D01*
X199684285Y-85559580D02*
X199731904Y-85464342D01*
X199731904Y-85464342D02*
X199731904Y-85226247D01*
X199731904Y-85226247D02*
X199684285Y-85131009D01*
X199684285Y-85131009D02*
X199636666Y-85083390D01*
X199636666Y-85083390D02*
X199541428Y-85035771D01*
X199541428Y-85035771D02*
X199350952Y-85035771D01*
X199350952Y-85035771D02*
X199255714Y-85083390D01*
X199255714Y-85083390D02*
X199208095Y-85131009D01*
X199208095Y-85131009D02*
X199160476Y-85226247D01*
X188791905Y-70414819D02*
X188791905Y-69414819D01*
X188791905Y-69414819D02*
X189172857Y-69414819D01*
X189172857Y-69414819D02*
X189268095Y-69462438D01*
X189268095Y-69462438D02*
X189315714Y-69510057D01*
X189315714Y-69510057D02*
X189363333Y-69605295D01*
X189363333Y-69605295D02*
X189363333Y-69748152D01*
X189363333Y-69748152D02*
X189315714Y-69843390D01*
X189315714Y-69843390D02*
X189268095Y-69891009D01*
X189268095Y-69891009D02*
X189172857Y-69938628D01*
X189172857Y-69938628D02*
X188791905Y-69938628D01*
X189744286Y-69510057D02*
X189791905Y-69462438D01*
X189791905Y-69462438D02*
X189887143Y-69414819D01*
X189887143Y-69414819D02*
X190125238Y-69414819D01*
X190125238Y-69414819D02*
X190220476Y-69462438D01*
X190220476Y-69462438D02*
X190268095Y-69510057D01*
X190268095Y-69510057D02*
X190315714Y-69605295D01*
X190315714Y-69605295D02*
X190315714Y-69700533D01*
X190315714Y-69700533D02*
X190268095Y-69843390D01*
X190268095Y-69843390D02*
X189696667Y-70414819D01*
X189696667Y-70414819D02*
X190315714Y-70414819D01*
X188768095Y-66922438D02*
X188672857Y-66874819D01*
X188672857Y-66874819D02*
X188530000Y-66874819D01*
X188530000Y-66874819D02*
X188387143Y-66922438D01*
X188387143Y-66922438D02*
X188291905Y-67017676D01*
X188291905Y-67017676D02*
X188244286Y-67112914D01*
X188244286Y-67112914D02*
X188196667Y-67303390D01*
X188196667Y-67303390D02*
X188196667Y-67446247D01*
X188196667Y-67446247D02*
X188244286Y-67636723D01*
X188244286Y-67636723D02*
X188291905Y-67731961D01*
X188291905Y-67731961D02*
X188387143Y-67827200D01*
X188387143Y-67827200D02*
X188530000Y-67874819D01*
X188530000Y-67874819D02*
X188625238Y-67874819D01*
X188625238Y-67874819D02*
X188768095Y-67827200D01*
X188768095Y-67827200D02*
X188815714Y-67779580D01*
X188815714Y-67779580D02*
X188815714Y-67446247D01*
X188815714Y-67446247D02*
X188625238Y-67446247D01*
X189244286Y-67874819D02*
X189244286Y-66874819D01*
X189244286Y-66874819D02*
X189815714Y-67874819D01*
X189815714Y-67874819D02*
X189815714Y-66874819D01*
X190291905Y-67874819D02*
X190291905Y-66874819D01*
X190291905Y-66874819D02*
X190530000Y-66874819D01*
X190530000Y-66874819D02*
X190672857Y-66922438D01*
X190672857Y-66922438D02*
X190768095Y-67017676D01*
X190768095Y-67017676D02*
X190815714Y-67112914D01*
X190815714Y-67112914D02*
X190863333Y-67303390D01*
X190863333Y-67303390D02*
X190863333Y-67446247D01*
X190863333Y-67446247D02*
X190815714Y-67636723D01*
X190815714Y-67636723D02*
X190768095Y-67731961D01*
X190768095Y-67731961D02*
X190672857Y-67827200D01*
X190672857Y-67827200D02*
X190530000Y-67874819D01*
X190530000Y-67874819D02*
X190291905Y-67874819D01*
X197136667Y-66874819D02*
X197470000Y-67874819D01*
X197470000Y-67874819D02*
X197803333Y-66874819D01*
X198708095Y-67779580D02*
X198660476Y-67827200D01*
X198660476Y-67827200D02*
X198517619Y-67874819D01*
X198517619Y-67874819D02*
X198422381Y-67874819D01*
X198422381Y-67874819D02*
X198279524Y-67827200D01*
X198279524Y-67827200D02*
X198184286Y-67731961D01*
X198184286Y-67731961D02*
X198136667Y-67636723D01*
X198136667Y-67636723D02*
X198089048Y-67446247D01*
X198089048Y-67446247D02*
X198089048Y-67303390D01*
X198089048Y-67303390D02*
X198136667Y-67112914D01*
X198136667Y-67112914D02*
X198184286Y-67017676D01*
X198184286Y-67017676D02*
X198279524Y-66922438D01*
X198279524Y-66922438D02*
X198422381Y-66874819D01*
X198422381Y-66874819D02*
X198517619Y-66874819D01*
X198517619Y-66874819D02*
X198660476Y-66922438D01*
X198660476Y-66922438D02*
X198708095Y-66970057D01*
X199708095Y-67779580D02*
X199660476Y-67827200D01*
X199660476Y-67827200D02*
X199517619Y-67874819D01*
X199517619Y-67874819D02*
X199422381Y-67874819D01*
X199422381Y-67874819D02*
X199279524Y-67827200D01*
X199279524Y-67827200D02*
X199184286Y-67731961D01*
X199184286Y-67731961D02*
X199136667Y-67636723D01*
X199136667Y-67636723D02*
X199089048Y-67446247D01*
X199089048Y-67446247D02*
X199089048Y-67303390D01*
X199089048Y-67303390D02*
X199136667Y-67112914D01*
X199136667Y-67112914D02*
X199184286Y-67017676D01*
X199184286Y-67017676D02*
X199279524Y-66922438D01*
X199279524Y-66922438D02*
X199422381Y-66874819D01*
X199422381Y-66874819D02*
X199517619Y-66874819D01*
X199517619Y-66874819D02*
X199660476Y-66922438D01*
X199660476Y-66922438D02*
X199708095Y-66970057D01*
X188791905Y-62794819D02*
X188791905Y-61794819D01*
X188791905Y-61794819D02*
X189172857Y-61794819D01*
X189172857Y-61794819D02*
X189268095Y-61842438D01*
X189268095Y-61842438D02*
X189315714Y-61890057D01*
X189315714Y-61890057D02*
X189363333Y-61985295D01*
X189363333Y-61985295D02*
X189363333Y-62128152D01*
X189363333Y-62128152D02*
X189315714Y-62223390D01*
X189315714Y-62223390D02*
X189268095Y-62271009D01*
X189268095Y-62271009D02*
X189172857Y-62318628D01*
X189172857Y-62318628D02*
X188791905Y-62318628D01*
X189982381Y-61794819D02*
X190077619Y-61794819D01*
X190077619Y-61794819D02*
X190172857Y-61842438D01*
X190172857Y-61842438D02*
X190220476Y-61890057D01*
X190220476Y-61890057D02*
X190268095Y-61985295D01*
X190268095Y-61985295D02*
X190315714Y-62175771D01*
X190315714Y-62175771D02*
X190315714Y-62413866D01*
X190315714Y-62413866D02*
X190268095Y-62604342D01*
X190268095Y-62604342D02*
X190220476Y-62699580D01*
X190220476Y-62699580D02*
X190172857Y-62747200D01*
X190172857Y-62747200D02*
X190077619Y-62794819D01*
X190077619Y-62794819D02*
X189982381Y-62794819D01*
X189982381Y-62794819D02*
X189887143Y-62747200D01*
X189887143Y-62747200D02*
X189839524Y-62699580D01*
X189839524Y-62699580D02*
X189791905Y-62604342D01*
X189791905Y-62604342D02*
X189744286Y-62413866D01*
X189744286Y-62413866D02*
X189744286Y-62175771D01*
X189744286Y-62175771D02*
X189791905Y-61985295D01*
X189791905Y-61985295D02*
X189839524Y-61890057D01*
X189839524Y-61890057D02*
X189887143Y-61842438D01*
X189887143Y-61842438D02*
X189982381Y-61794819D01*
X197922380Y-65334819D02*
X197589047Y-64858628D01*
X197350952Y-65334819D02*
X197350952Y-64334819D01*
X197350952Y-64334819D02*
X197731904Y-64334819D01*
X197731904Y-64334819D02*
X197827142Y-64382438D01*
X197827142Y-64382438D02*
X197874761Y-64430057D01*
X197874761Y-64430057D02*
X197922380Y-64525295D01*
X197922380Y-64525295D02*
X197922380Y-64668152D01*
X197922380Y-64668152D02*
X197874761Y-64763390D01*
X197874761Y-64763390D02*
X197827142Y-64811009D01*
X197827142Y-64811009D02*
X197731904Y-64858628D01*
X197731904Y-64858628D02*
X197350952Y-64858628D01*
X198303333Y-65287200D02*
X198446190Y-65334819D01*
X198446190Y-65334819D02*
X198684285Y-65334819D01*
X198684285Y-65334819D02*
X198779523Y-65287200D01*
X198779523Y-65287200D02*
X198827142Y-65239580D01*
X198827142Y-65239580D02*
X198874761Y-65144342D01*
X198874761Y-65144342D02*
X198874761Y-65049104D01*
X198874761Y-65049104D02*
X198827142Y-64953866D01*
X198827142Y-64953866D02*
X198779523Y-64906247D01*
X198779523Y-64906247D02*
X198684285Y-64858628D01*
X198684285Y-64858628D02*
X198493809Y-64811009D01*
X198493809Y-64811009D02*
X198398571Y-64763390D01*
X198398571Y-64763390D02*
X198350952Y-64715771D01*
X198350952Y-64715771D02*
X198303333Y-64620533D01*
X198303333Y-64620533D02*
X198303333Y-64525295D01*
X198303333Y-64525295D02*
X198350952Y-64430057D01*
X198350952Y-64430057D02*
X198398571Y-64382438D01*
X198398571Y-64382438D02*
X198493809Y-64334819D01*
X198493809Y-64334819D02*
X198731904Y-64334819D01*
X198731904Y-64334819D02*
X198874761Y-64382438D01*
X199160476Y-64334819D02*
X199731904Y-64334819D01*
X199446190Y-65334819D02*
X199446190Y-64334819D01*
X201047619Y-105454819D02*
X201238095Y-105454819D01*
X201238095Y-105454819D02*
X201333333Y-105502438D01*
X201333333Y-105502438D02*
X201428571Y-105597676D01*
X201428571Y-105597676D02*
X201476190Y-105788152D01*
X201476190Y-105788152D02*
X201476190Y-106121485D01*
X201476190Y-106121485D02*
X201428571Y-106311961D01*
X201428571Y-106311961D02*
X201333333Y-106407200D01*
X201333333Y-106407200D02*
X201238095Y-106454819D01*
X201238095Y-106454819D02*
X201047619Y-106454819D01*
X201047619Y-106454819D02*
X200952381Y-106407200D01*
X200952381Y-106407200D02*
X200857143Y-106311961D01*
X200857143Y-106311961D02*
X200809524Y-106121485D01*
X200809524Y-106121485D02*
X200809524Y-105788152D01*
X200809524Y-105788152D02*
X200857143Y-105597676D01*
X200857143Y-105597676D02*
X200952381Y-105502438D01*
X200952381Y-105502438D02*
X201047619Y-105454819D01*
X202238095Y-105931009D02*
X201904762Y-105931009D01*
X201904762Y-106454819D02*
X201904762Y-105454819D01*
X201904762Y-105454819D02*
X202380952Y-105454819D01*
X203095238Y-105931009D02*
X202761905Y-105931009D01*
X202761905Y-106454819D02*
X202761905Y-105454819D01*
X202761905Y-105454819D02*
X203238095Y-105454819D01*
X201380952Y-95454819D02*
X201571428Y-95454819D01*
X201571428Y-95454819D02*
X201666666Y-95502438D01*
X201666666Y-95502438D02*
X201761904Y-95597676D01*
X201761904Y-95597676D02*
X201809523Y-95788152D01*
X201809523Y-95788152D02*
X201809523Y-96121485D01*
X201809523Y-96121485D02*
X201761904Y-96311961D01*
X201761904Y-96311961D02*
X201666666Y-96407200D01*
X201666666Y-96407200D02*
X201571428Y-96454819D01*
X201571428Y-96454819D02*
X201380952Y-96454819D01*
X201380952Y-96454819D02*
X201285714Y-96407200D01*
X201285714Y-96407200D02*
X201190476Y-96311961D01*
X201190476Y-96311961D02*
X201142857Y-96121485D01*
X201142857Y-96121485D02*
X201142857Y-95788152D01*
X201142857Y-95788152D02*
X201190476Y-95597676D01*
X201190476Y-95597676D02*
X201285714Y-95502438D01*
X201285714Y-95502438D02*
X201380952Y-95454819D01*
X202238095Y-96454819D02*
X202238095Y-95454819D01*
X202238095Y-95454819D02*
X202809523Y-96454819D01*
X202809523Y-96454819D02*
X202809523Y-95454819D01*
X193604819Y-97360588D02*
X194604819Y-97027255D01*
X194604819Y-97027255D02*
X193604819Y-96693922D01*
X194509580Y-95789160D02*
X194557200Y-95836779D01*
X194557200Y-95836779D02*
X194604819Y-95979636D01*
X194604819Y-95979636D02*
X194604819Y-96074874D01*
X194604819Y-96074874D02*
X194557200Y-96217731D01*
X194557200Y-96217731D02*
X194461961Y-96312969D01*
X194461961Y-96312969D02*
X194366723Y-96360588D01*
X194366723Y-96360588D02*
X194176247Y-96408207D01*
X194176247Y-96408207D02*
X194033390Y-96408207D01*
X194033390Y-96408207D02*
X193842914Y-96360588D01*
X193842914Y-96360588D02*
X193747676Y-96312969D01*
X193747676Y-96312969D02*
X193652438Y-96217731D01*
X193652438Y-96217731D02*
X193604819Y-96074874D01*
X193604819Y-96074874D02*
X193604819Y-95979636D01*
X193604819Y-95979636D02*
X193652438Y-95836779D01*
X193652438Y-95836779D02*
X193700057Y-95789160D01*
X194509580Y-94789160D02*
X194557200Y-94836779D01*
X194557200Y-94836779D02*
X194604819Y-94979636D01*
X194604819Y-94979636D02*
X194604819Y-95074874D01*
X194604819Y-95074874D02*
X194557200Y-95217731D01*
X194557200Y-95217731D02*
X194461961Y-95312969D01*
X194461961Y-95312969D02*
X194366723Y-95360588D01*
X194366723Y-95360588D02*
X194176247Y-95408207D01*
X194176247Y-95408207D02*
X194033390Y-95408207D01*
X194033390Y-95408207D02*
X193842914Y-95360588D01*
X193842914Y-95360588D02*
X193747676Y-95312969D01*
X193747676Y-95312969D02*
X193652438Y-95217731D01*
X193652438Y-95217731D02*
X193604819Y-95074874D01*
X193604819Y-95074874D02*
X193604819Y-94979636D01*
X193604819Y-94979636D02*
X193652438Y-94836779D01*
X193652438Y-94836779D02*
X193700057Y-94789160D01*
X189374819Y-97932969D02*
X188374819Y-97932969D01*
X188374819Y-97932969D02*
X188374819Y-97552017D01*
X188374819Y-97552017D02*
X188422438Y-97456779D01*
X188422438Y-97456779D02*
X188470057Y-97409160D01*
X188470057Y-97409160D02*
X188565295Y-97361541D01*
X188565295Y-97361541D02*
X188708152Y-97361541D01*
X188708152Y-97361541D02*
X188803390Y-97409160D01*
X188803390Y-97409160D02*
X188851009Y-97456779D01*
X188851009Y-97456779D02*
X188898628Y-97552017D01*
X188898628Y-97552017D02*
X188898628Y-97932969D01*
X189374819Y-96409160D02*
X189374819Y-96980588D01*
X189374819Y-96694874D02*
X188374819Y-96694874D01*
X188374819Y-96694874D02*
X188517676Y-96790112D01*
X188517676Y-96790112D02*
X188612914Y-96885350D01*
X188612914Y-96885350D02*
X188660533Y-96980588D01*
X199574819Y-97932969D02*
X198574819Y-97932969D01*
X198574819Y-97932969D02*
X198574819Y-97552017D01*
X198574819Y-97552017D02*
X198622438Y-97456779D01*
X198622438Y-97456779D02*
X198670057Y-97409160D01*
X198670057Y-97409160D02*
X198765295Y-97361541D01*
X198765295Y-97361541D02*
X198908152Y-97361541D01*
X198908152Y-97361541D02*
X199003390Y-97409160D01*
X199003390Y-97409160D02*
X199051009Y-97456779D01*
X199051009Y-97456779D02*
X199098628Y-97552017D01*
X199098628Y-97552017D02*
X199098628Y-97932969D01*
X198574819Y-97028207D02*
X198574819Y-96409160D01*
X198574819Y-96409160D02*
X198955771Y-96742493D01*
X198955771Y-96742493D02*
X198955771Y-96599636D01*
X198955771Y-96599636D02*
X199003390Y-96504398D01*
X199003390Y-96504398D02*
X199051009Y-96456779D01*
X199051009Y-96456779D02*
X199146247Y-96409160D01*
X199146247Y-96409160D02*
X199384342Y-96409160D01*
X199384342Y-96409160D02*
X199479580Y-96456779D01*
X199479580Y-96456779D02*
X199527200Y-96504398D01*
X199527200Y-96504398D02*
X199574819Y-96599636D01*
X199574819Y-96599636D02*
X199574819Y-96885350D01*
X199574819Y-96885350D02*
X199527200Y-96980588D01*
X199527200Y-96980588D02*
X199479580Y-97028207D01*
X191022438Y-98504398D02*
X190974819Y-98599636D01*
X190974819Y-98599636D02*
X190974819Y-98742493D01*
X190974819Y-98742493D02*
X191022438Y-98885350D01*
X191022438Y-98885350D02*
X191117676Y-98980588D01*
X191117676Y-98980588D02*
X191212914Y-99028207D01*
X191212914Y-99028207D02*
X191403390Y-99075826D01*
X191403390Y-99075826D02*
X191546247Y-99075826D01*
X191546247Y-99075826D02*
X191736723Y-99028207D01*
X191736723Y-99028207D02*
X191831961Y-98980588D01*
X191831961Y-98980588D02*
X191927200Y-98885350D01*
X191927200Y-98885350D02*
X191974819Y-98742493D01*
X191974819Y-98742493D02*
X191974819Y-98647255D01*
X191974819Y-98647255D02*
X191927200Y-98504398D01*
X191927200Y-98504398D02*
X191879580Y-98456779D01*
X191879580Y-98456779D02*
X191546247Y-98456779D01*
X191546247Y-98456779D02*
X191546247Y-98647255D01*
X191974819Y-98028207D02*
X190974819Y-98028207D01*
X190974819Y-98028207D02*
X191974819Y-97456779D01*
X191974819Y-97456779D02*
X190974819Y-97456779D01*
X191974819Y-96980588D02*
X190974819Y-96980588D01*
X190974819Y-96980588D02*
X190974819Y-96742493D01*
X190974819Y-96742493D02*
X191022438Y-96599636D01*
X191022438Y-96599636D02*
X191117676Y-96504398D01*
X191117676Y-96504398D02*
X191212914Y-96456779D01*
X191212914Y-96456779D02*
X191403390Y-96409160D01*
X191403390Y-96409160D02*
X191546247Y-96409160D01*
X191546247Y-96409160D02*
X191736723Y-96456779D01*
X191736723Y-96456779D02*
X191831961Y-96504398D01*
X191831961Y-96504398D02*
X191927200Y-96599636D01*
X191927200Y-96599636D02*
X191974819Y-96742493D01*
X191974819Y-96742493D02*
X191974819Y-96980588D01*
X197074819Y-97932969D02*
X196074819Y-97932969D01*
X196074819Y-97932969D02*
X196074819Y-97552017D01*
X196074819Y-97552017D02*
X196122438Y-97456779D01*
X196122438Y-97456779D02*
X196170057Y-97409160D01*
X196170057Y-97409160D02*
X196265295Y-97361541D01*
X196265295Y-97361541D02*
X196408152Y-97361541D01*
X196408152Y-97361541D02*
X196503390Y-97409160D01*
X196503390Y-97409160D02*
X196551009Y-97456779D01*
X196551009Y-97456779D02*
X196598628Y-97552017D01*
X196598628Y-97552017D02*
X196598628Y-97932969D01*
X196170057Y-96980588D02*
X196122438Y-96932969D01*
X196122438Y-96932969D02*
X196074819Y-96837731D01*
X196074819Y-96837731D02*
X196074819Y-96599636D01*
X196074819Y-96599636D02*
X196122438Y-96504398D01*
X196122438Y-96504398D02*
X196170057Y-96456779D01*
X196170057Y-96456779D02*
X196265295Y-96409160D01*
X196265295Y-96409160D02*
X196360533Y-96409160D01*
X196360533Y-96409160D02*
X196503390Y-96456779D01*
X196503390Y-96456779D02*
X197074819Y-97028207D01*
X197074819Y-97028207D02*
X197074819Y-96409160D01*
D12*
%TO.C,MCU1*%
X185050000Y-58470000D02*
X185050000Y-89070000D01*
X185050000Y-58470000D02*
X187710000Y-58470000D01*
X185050000Y-89070000D02*
X187710000Y-89070000D01*
X187710000Y-58470000D02*
X187710000Y-89070000D01*
X187710000Y-61070000D02*
X185050000Y-61070000D01*
X200290000Y-58470000D02*
X200290000Y-89070000D01*
X200290000Y-58470000D02*
X202950000Y-58470000D01*
X200290000Y-89070000D02*
X202950000Y-89070000D01*
X202950000Y-58470000D02*
X202950000Y-89070000D01*
D13*
%TO.C,JST1*%
X184600000Y-104500000D02*
X184600000Y-105500000D01*
X184600000Y-107500000D02*
X184600000Y-106500000D01*
X185100000Y-107000000D02*
X184100000Y-107000000D01*
D12*
X185640000Y-102940000D02*
X186640000Y-102940000D01*
X185640000Y-103860000D02*
X185640000Y-102940000D01*
X185640000Y-108140000D02*
X185640000Y-109060000D01*
X185640000Y-109060000D02*
X186640000Y-109060000D01*
X193460000Y-102940000D02*
X192460000Y-102940000D01*
X193460000Y-103940000D02*
X193460000Y-102940000D01*
X193460000Y-108140000D02*
X193460000Y-109060000D01*
X193460000Y-109060000D02*
X192460000Y-109060000D01*
D13*
%TO.C,RST1*%
X195861973Y-111216461D02*
X195718579Y-111421249D01*
X195923367Y-111564643D02*
X195718579Y-111421249D01*
X198270994Y-107776022D02*
X198414389Y-107571234D01*
X198380823Y-113285372D02*
X198585611Y-113428766D01*
X198619177Y-107714628D02*
X198414389Y-107571234D01*
X198729006Y-113223978D02*
X198585611Y-113428766D01*
X201076633Y-109435357D02*
X201281421Y-109578751D01*
X201138027Y-109783539D02*
X201281421Y-109578751D01*
D12*
%TO.C,PWR1*%
X200575000Y-99600000D02*
X200575000Y-99400000D01*
X200575000Y-102600000D02*
X200575000Y-100900000D01*
X201625000Y-104450000D02*
X202415000Y-104450000D01*
X202415000Y-97550000D02*
X201625000Y-97550000D01*
X203425000Y-103850000D02*
X203425000Y-98150000D01*
%TO.C,DISP1*%
X187590000Y-91370000D02*
X187590000Y-94030000D01*
X200410000Y-91370000D02*
X187590000Y-91370000D01*
X200410000Y-91370000D02*
X200410000Y-94030000D01*
X200410000Y-94030000D02*
X187590000Y-94030000D01*
%TD*%
M02*
