M48
; DRILL file {KiCad 9.0.0} date 2025-03-13T17:07:13-0400
; FORMAT={-:-/ absolute / metric / decimal}
; #@! TF.CreationDate,2025-03-13T17:07:13-04:00
; #@! TF.GenerationSoftware,Kicad,Pcbnew,9.0.0
; #@! TF.FileFunction,NonPlated,1,2,NPTH
FMAT,2
METRIC
; #@! TA.AperFunction,NonPlated,NPTH,ComponentDrill
T1C0.900
; #@! TA.AperFunction,NonPlated,NPTH,ComponentDrill
T2C1.702
; #@! TA.AperFunction,NonPlated,NPTH,ComponentDrill
T3C3.000
; #@! TA.AperFunction,NonPlated,NPTH,ComponentDrill
T4C3.429
%
G90
G05
T1
X202.025Y-99.5
X202.025Y-102.5
T2
X94.5Y-66.0
X94.5Y-83.0
X94.5Y-100.0
X105.5Y-66.0
X105.5Y-83.0
X105.5Y-100.0
X112.5Y-61.0
X112.5Y-78.0
X112.5Y-95.0
X123.5Y-61.0
X123.5Y-78.0
X123.5Y-95.0
X130.5Y-54.0
X130.5Y-71.0
X130.5Y-88.0
X141.5Y-54.0
X141.5Y-71.0
X141.5Y-88.0
X148.5Y-59.0
X148.5Y-76.0
X148.5Y-93.0
X157.687Y-112.576
X159.5Y-59.0
X159.5Y-76.0
X159.5Y-93.0
X166.5Y-62.0
X166.5Y-79.0
X166.5Y-96.0
X168.313Y-115.424
X177.5Y-62.0
X177.5Y-79.0
X177.5Y-96.0
X179.484Y-129.652
X185.793Y-120.642
X193.409Y-139.403
X199.719Y-130.393
T3
X95.0Y-62.25
X95.0Y-79.25
X95.0Y-96.25
X100.0Y-60.05
X100.0Y-60.05
X100.0Y-77.05
X100.0Y-77.05
X100.0Y-94.05
X100.0Y-94.05
X105.0Y-62.25
X105.0Y-79.25
X105.0Y-96.25
X113.0Y-57.25
X113.0Y-74.25
X113.0Y-91.25
X118.0Y-55.05
X118.0Y-55.05
X118.0Y-72.05
X118.0Y-72.05
X118.0Y-89.05
X118.0Y-89.05
X123.0Y-57.25
X123.0Y-74.25
X123.0Y-91.25
X131.0Y-50.25
X131.0Y-67.25
X131.0Y-84.25
X136.0Y-48.05
X136.0Y-48.05
X136.0Y-65.05
X136.0Y-65.05
X136.0Y-82.05
X136.0Y-82.05
X141.0Y-50.25
X141.0Y-67.25
X141.0Y-84.25
X149.0Y-55.25
X149.0Y-72.25
X149.0Y-89.25
X154.0Y-53.05
X154.0Y-53.05
X154.0Y-70.05
X154.0Y-70.05
X154.0Y-87.05
X154.0Y-87.05
X159.0Y-55.25
X159.0Y-72.25
X159.0Y-89.25
X159.141Y-109.084
X164.54Y-108.253
X164.54Y-108.253
X167.0Y-58.25
X167.0Y-75.25
X167.0Y-92.25
X168.8Y-111.672
X172.0Y-56.05
X172.0Y-56.05
X172.0Y-73.05
X172.0Y-73.05
X172.0Y-90.05
X172.0Y-90.05
X176.699Y-127.092
X177.0Y-58.25
X177.0Y-75.25
X177.0Y-92.25
X177.764Y-121.734
X177.764Y-121.734
X182.434Y-118.9
X190.624Y-136.843
X191.69Y-131.485
X191.69Y-131.485
X196.36Y-128.651
T4
X100.0Y-66.0
X100.0Y-83.0
X100.0Y-100.0
X118.0Y-61.0
X118.0Y-78.0
X118.0Y-95.0
X136.0Y-54.0
X136.0Y-71.0
X136.0Y-88.0
X154.0Y-59.0
X154.0Y-76.0
X154.0Y-93.0
X163.0Y-114.0
X172.0Y-62.0
X172.0Y-79.0
X172.0Y-96.0
X182.638Y-125.147
X196.564Y-134.898
M30
