%TF.GenerationSoftware,KiCad,Pcbnew,9.0.0*%
%TF.CreationDate,2025-03-13T17:07:21-04:00*%
%TF.ProjectId,Tenebra,54656e65-6272-4612-9e6b-696361645f70,v1.0.0*%
%TF.SameCoordinates,Original*%
%TF.FileFunction,Paste,Bot*%
%TF.FilePolarity,Positive*%
%FSLAX46Y46*%
G04 Gerber Fmt 4.6, Leading zero omitted, Abs format (unit mm)*
G04 Created by KiCad (PCBNEW 9.0.0) date 2025-03-13 17:07:21*
%MOMM*%
%LPD*%
G01*
G04 APERTURE LIST*
G04 Aperture macros list*
%AMRotRect*
0 Rectangle, with rotation*
0 The origin of the aperture is its center*
0 $1 length*
0 $2 width*
0 $3 Rotation angle, in degrees counterclockwise*
0 Add horizontal line*
21,1,$1,$2,0,0,$3*%
%AMFreePoly0*
4,1,6,0.600000,-1.000000,0.000000,-0.400000,-0.600000,-1.000000,-0.600000,0.250000,0.600000,0.250000,0.600000,-1.000000,0.600000,-1.000000,$1*%
%AMFreePoly1*
4,1,6,0.600000,-0.200000,0.600000,-0.400000,-0.600000,-0.400000,-0.600000,-0.200000,0.000000,0.400000,0.600000,-0.200000,0.600000,-0.200000,$1*%
G04 Aperture macros list end*
%ADD10R,2.600000X2.600000*%
%ADD11RotRect,2.600000X2.600000X55.000000*%
%ADD12FreePoly0,90.000000*%
%ADD13FreePoly1,90.000000*%
%ADD14RotRect,1.550000X1.000000X55.000000*%
%ADD15R,0.800000X1.000000*%
%ADD16R,1.500000X0.700000*%
%ADD17R,1.200000X0.600000*%
%ADD18RotRect,2.600000X2.600000X345.000000*%
G04 APERTURE END LIST*
D10*
%TO.C,S9*%
X132725000Y-48050000D03*
X144275000Y-50250000D03*
%TD*%
D11*
%TO.C,S17*%
X175885887Y-124417096D03*
X184312829Y-116217758D03*
%TD*%
D12*
%TO.C,JST1*%
X189184000Y-107000000D03*
X189184000Y-105000000D03*
D13*
X190200000Y-105000000D03*
X190200000Y-107000000D03*
%TD*%
D14*
%TO.C,RST1*%
X200701917Y-108837266D03*
X199309359Y-107862186D03*
X197690641Y-113137814D03*
X196298083Y-112162734D03*
%TD*%
D10*
%TO.C,S4*%
X114725000Y-89050000D03*
X126275000Y-91250000D03*
%TD*%
%TO.C,S12*%
X150725000Y-53050000D03*
X162275000Y-55250000D03*
%TD*%
%TO.C,S1*%
X96725000Y-94050000D03*
X108275000Y-96250000D03*
%TD*%
%TO.C,S15*%
X168725000Y-56050000D03*
X180275000Y-58250000D03*
%TD*%
%TO.C,S6*%
X114725000Y-55050000D03*
X126275000Y-57250000D03*
%TD*%
%TO.C,S14*%
X168725000Y-73050000D03*
X180275000Y-75250000D03*
%TD*%
%TO.C,S10*%
X150725000Y-87050000D03*
X162275000Y-89250000D03*
%TD*%
%TO.C,S8*%
X132725000Y-65050000D03*
X144275000Y-67250000D03*
%TD*%
%TO.C,S11*%
X150725000Y-70050000D03*
X162275000Y-72250000D03*
%TD*%
%TO.C,S13*%
X168725000Y-90050000D03*
X180275000Y-92250000D03*
%TD*%
%TO.C,S2*%
X96725000Y-77050000D03*
X108275000Y-79250000D03*
%TD*%
%TO.C,S7*%
X132725000Y-82050000D03*
X144275000Y-84250000D03*
%TD*%
%TO.C,S3*%
X96725000Y-60050000D03*
X108275000Y-62250000D03*
%TD*%
D11*
%TO.C,S18*%
X189811472Y-134167895D03*
X198238414Y-125968557D03*
%TD*%
D15*
%TO.C,PWR1*%
X200915000Y-97350000D03*
X200915000Y-104650000D03*
X203125000Y-97350000D03*
X203125000Y-104650000D03*
D16*
X200265000Y-98750000D03*
X200265000Y-101750000D03*
X200265000Y-103250000D03*
%TD*%
D10*
%TO.C,S5*%
X114725000Y-72050000D03*
X126275000Y-74250000D03*
%TD*%
D17*
%TO.C,DISP1*%
X199080000Y-95350000D03*
X196540000Y-95350000D03*
X191460000Y-95350000D03*
X188920000Y-95350000D03*
X199080000Y-94450000D03*
X196540000Y-94450000D03*
X191460000Y-94450000D03*
X188920000Y-94450000D03*
%TD*%
D18*
%TO.C,S16*%
X161376566Y-107405109D03*
X171963608Y-112519506D03*
%TD*%
M02*
