%TF.GenerationSoftware,KiCad,Pcbnew,9.0.0*%
%TF.CreationDate,2025-03-13T17:07:21-04:00*%
%TF.ProjectId,Tenebra,54656e65-6272-4612-9e6b-696361645f70,v1.0.0*%
%TF.SameCoordinates,Original*%
%TF.FileFunction,Legend,Bot*%
%TF.FilePolarity,Positive*%
%FSLAX46Y46*%
G04 Gerber Fmt 4.6, Leading zero omitted, Abs format (unit mm)*
G04 Created by KiCad (PCBNEW 9.0.0) date 2025-03-13 17:07:21*
%MOMM*%
%LPD*%
G01*
G04 APERTURE LIST*
%ADD10C,0.300000*%
%ADD11C,0.150000*%
%ADD12C,0.100000*%
%ADD13C,0.120000*%
G04 APERTURE END LIST*
D10*
G36*
X117515666Y-108245000D02*
G01*
X117247854Y-108245000D01*
X117247854Y-107028670D01*
X116777808Y-107028670D01*
X116777808Y-106791266D01*
X117982414Y-106791266D01*
X117982414Y-107028670D01*
X117515666Y-107028670D01*
X117515666Y-108245000D01*
G37*
G36*
X116108461Y-108268447D02*
G01*
X116028194Y-108264909D01*
X115947211Y-108254448D01*
X115867214Y-108237295D01*
X115789906Y-108213680D01*
X115747592Y-108197372D01*
X115806943Y-108009794D01*
X115877830Y-108035649D01*
X115950928Y-108053539D01*
X116024623Y-108062974D01*
X116065230Y-108064382D01*
X116142930Y-108058429D01*
X116226192Y-108034396D01*
X116293762Y-107992184D01*
X116345329Y-107932072D01*
X116380584Y-107854335D01*
X116396833Y-107779642D01*
X116402285Y-107693988D01*
X116396620Y-107609769D01*
X116375158Y-107526524D01*
X116338191Y-107463248D01*
X116276164Y-107415419D01*
X116194572Y-107396438D01*
X116181367Y-107396133D01*
X116102505Y-107408424D01*
X116033595Y-107451384D01*
X115993417Y-107512749D01*
X115973461Y-107594881D01*
X115971441Y-107636102D01*
X116439288Y-107636102D01*
X116439288Y-107799501D01*
X115731106Y-107799501D01*
X115722908Y-107725358D01*
X115719398Y-107651601D01*
X115719382Y-107647093D01*
X115723818Y-107570714D01*
X115743125Y-107478182D01*
X115777005Y-107397031D01*
X115824661Y-107328071D01*
X115885293Y-107272115D01*
X115958103Y-107229974D01*
X116042293Y-107202459D01*
X116137064Y-107190382D01*
X116162316Y-107189870D01*
X116245023Y-107195515D01*
X116321958Y-107212071D01*
X116392606Y-107238978D01*
X116456450Y-107275670D01*
X116530100Y-107338843D01*
X116576062Y-107396180D01*
X116613499Y-107461425D01*
X116641896Y-107534015D01*
X116660736Y-107613387D01*
X116669503Y-107698977D01*
X116670097Y-107728792D01*
X116664531Y-107820495D01*
X116648092Y-107904572D01*
X116621172Y-107980718D01*
X116584162Y-108048628D01*
X116537453Y-108107999D01*
X116481437Y-108158527D01*
X116416505Y-108199906D01*
X116343048Y-108231833D01*
X116261458Y-108254004D01*
X116172124Y-108266113D01*
X116108461Y-108268447D01*
G37*
G36*
X114807501Y-108245000D02*
G01*
X114539689Y-108245000D01*
X114539689Y-107602030D01*
X114546262Y-107510374D01*
X114565552Y-107428975D01*
X114596915Y-107358437D01*
X114652115Y-107286463D01*
X114723914Y-107233589D01*
X114792460Y-107205836D01*
X114870182Y-107191670D01*
X114912281Y-107189870D01*
X114993768Y-107196550D01*
X115071749Y-107216262D01*
X115145034Y-107248511D01*
X115212437Y-107292807D01*
X115272768Y-107348657D01*
X115291102Y-107369755D01*
X115251168Y-107534986D01*
X115190145Y-107481751D01*
X115122101Y-107445046D01*
X115048015Y-107425751D01*
X115004605Y-107422878D01*
X114928195Y-107433530D01*
X114863517Y-107471389D01*
X114823259Y-107535987D01*
X114808282Y-107613904D01*
X114807501Y-107639766D01*
X114807501Y-108245000D01*
G37*
G36*
X115480146Y-108245000D02*
G01*
X115212334Y-108245000D01*
X115212334Y-107395401D01*
X115288538Y-107213318D01*
X115480146Y-107213318D01*
X115480146Y-108245000D01*
G37*
G36*
X113757868Y-108268447D02*
G01*
X113677601Y-108264909D01*
X113596618Y-108254448D01*
X113516621Y-108237295D01*
X113439312Y-108213680D01*
X113396999Y-108197372D01*
X113456350Y-108009794D01*
X113527236Y-108035649D01*
X113600334Y-108053539D01*
X113674030Y-108062974D01*
X113714637Y-108064382D01*
X113792337Y-108058429D01*
X113875599Y-108034396D01*
X113943169Y-107992184D01*
X113994736Y-107932072D01*
X114029990Y-107854335D01*
X114046240Y-107779642D01*
X114051692Y-107693988D01*
X114046027Y-107609769D01*
X114024564Y-107526524D01*
X113987598Y-107463248D01*
X113925571Y-107415419D01*
X113843979Y-107396438D01*
X113830774Y-107396133D01*
X113751911Y-107408424D01*
X113683002Y-107451384D01*
X113642824Y-107512749D01*
X113622868Y-107594881D01*
X113620847Y-107636102D01*
X114088695Y-107636102D01*
X114088695Y-107799501D01*
X113380512Y-107799501D01*
X113372315Y-107725358D01*
X113368805Y-107651601D01*
X113368789Y-107647093D01*
X113373225Y-107570714D01*
X113392531Y-107478182D01*
X113426412Y-107397031D01*
X113474068Y-107328071D01*
X113534700Y-107272115D01*
X113607510Y-107229974D01*
X113691700Y-107202459D01*
X113786471Y-107190382D01*
X113811723Y-107189870D01*
X113894430Y-107195515D01*
X113971365Y-107212071D01*
X114042013Y-107238978D01*
X114105857Y-107275670D01*
X114179507Y-107338843D01*
X114225469Y-107396180D01*
X114262906Y-107461425D01*
X114291303Y-107534015D01*
X114310142Y-107613387D01*
X114318909Y-107698977D01*
X114319504Y-107728792D01*
X114313937Y-107820495D01*
X114297499Y-107904572D01*
X114270579Y-107980718D01*
X114233569Y-108048628D01*
X114186860Y-108107999D01*
X114130844Y-108158527D01*
X114065912Y-108199906D01*
X113992455Y-108231833D01*
X113910864Y-108254004D01*
X113821531Y-108266113D01*
X113757868Y-108268447D01*
G37*
G36*
X112625069Y-108268447D02*
G01*
X112546775Y-108262802D01*
X112473983Y-108246205D01*
X112386318Y-108207906D01*
X112310427Y-108152224D01*
X112247448Y-108080352D01*
X112209372Y-108016541D01*
X112179679Y-107944798D01*
X112158849Y-107865627D01*
X112147362Y-107779530D01*
X112145132Y-107718534D01*
X112149845Y-107631418D01*
X112163672Y-107550707D01*
X112186143Y-107476872D01*
X112228741Y-107389940D01*
X112284761Y-107317194D01*
X112353091Y-107259754D01*
X112432619Y-107218742D01*
X112522233Y-107195278D01*
X112595394Y-107189870D01*
X112679277Y-107197085D01*
X112755446Y-107218289D01*
X112823430Y-107252819D01*
X112882761Y-107300012D01*
X112932968Y-107359207D01*
X112973583Y-107429740D01*
X112987037Y-107460980D01*
X112905704Y-107565760D01*
X112868507Y-107500576D01*
X112809632Y-107449456D01*
X112736402Y-107421903D01*
X112681489Y-107416650D01*
X112596063Y-107429379D01*
X112525435Y-107466244D01*
X112471114Y-107525260D01*
X112434606Y-107604440D01*
X112418876Y-107684396D01*
X112416242Y-107737951D01*
X112422789Y-107820500D01*
X112441999Y-107891597D01*
X112480859Y-107960334D01*
X112535909Y-108009288D01*
X112606033Y-108036661D01*
X112660607Y-108042034D01*
X112736879Y-108031695D01*
X112810930Y-107996571D01*
X112864175Y-107946063D01*
X112899476Y-107888161D01*
X112989968Y-108028112D01*
X112956078Y-108096208D01*
X112903685Y-108163425D01*
X112838873Y-108214441D01*
X112762031Y-108248853D01*
X112689089Y-108264551D01*
X112625069Y-108268447D01*
G37*
G36*
X113129553Y-108245000D02*
G01*
X112958461Y-108245000D01*
X112869434Y-108055956D01*
X112869434Y-106697477D01*
X113129553Y-106697477D01*
X113129553Y-108245000D01*
G37*
G36*
X111905896Y-108245000D02*
G01*
X111638084Y-108245000D01*
X111638084Y-107543046D01*
X111693405Y-107213318D01*
X111905896Y-107213318D01*
X111905896Y-108245000D01*
G37*
G36*
X111689741Y-107662847D02*
G01*
X111652100Y-107598640D01*
X111596132Y-107538350D01*
X111529353Y-107495206D01*
X111454041Y-107470680D01*
X111396284Y-107465376D01*
X111321385Y-107472788D01*
X111266957Y-107487358D01*
X111204309Y-107241894D01*
X111275887Y-107220874D01*
X111350868Y-107213349D01*
X111355983Y-107213318D01*
X111430245Y-107220816D01*
X111500774Y-107242703D01*
X111566076Y-107278066D01*
X111624660Y-107325992D01*
X111675033Y-107385568D01*
X111689741Y-107407857D01*
X111689741Y-107662847D01*
G37*
G36*
X110404902Y-108245000D02*
G01*
X110213293Y-108245000D01*
X110213293Y-107628042D01*
X110217445Y-107551034D01*
X110235808Y-107459559D01*
X110268673Y-107381070D01*
X110315870Y-107315764D01*
X110377227Y-107263837D01*
X110452571Y-107225489D01*
X110541731Y-107200915D01*
X110617564Y-107191644D01*
X110672348Y-107189870D01*
X110755279Y-107193693D01*
X110838422Y-107204843D01*
X110919982Y-107222842D01*
X110998160Y-107247212D01*
X111071161Y-107277474D01*
X111094033Y-107288789D01*
X111030652Y-107477833D01*
X110961594Y-107452182D01*
X110884482Y-107430665D01*
X110809598Y-107417399D01*
X110728401Y-107412254D01*
X110644498Y-107419148D01*
X110567329Y-107444502D01*
X110507473Y-107496049D01*
X110479026Y-107571378D01*
X110476709Y-107605694D01*
X110476709Y-108047896D01*
X110404902Y-108245000D01*
G37*
G36*
X110760642Y-108268447D02*
G01*
X110679562Y-108262483D01*
X110604879Y-108244845D01*
X110537186Y-108215916D01*
X110463302Y-108164458D01*
X110402422Y-108096700D01*
X110363858Y-108031260D01*
X110334950Y-107956248D01*
X110324302Y-107915272D01*
X110411130Y-107875338D01*
X110443111Y-107942072D01*
X110499980Y-108002099D01*
X110564109Y-108038038D01*
X110638467Y-108056278D01*
X110672714Y-108058154D01*
X110750947Y-108046159D01*
X110817664Y-108002609D01*
X110844705Y-107933571D01*
X110844905Y-107926263D01*
X110815582Y-107854691D01*
X110748964Y-107817315D01*
X110675612Y-107799614D01*
X110600422Y-107790483D01*
X110509797Y-107785559D01*
X110431280Y-107784480D01*
X110431280Y-107635369D01*
X110516950Y-107636536D01*
X110596509Y-107640066D01*
X110670038Y-107646005D01*
X110769202Y-107659528D01*
X110855251Y-107678723D01*
X110928457Y-107703744D01*
X111006557Y-107746429D01*
X111062951Y-107800100D01*
X111098285Y-107865119D01*
X111113202Y-107941846D01*
X111113817Y-107962899D01*
X111103957Y-108044932D01*
X111075293Y-108116073D01*
X111029201Y-108175088D01*
X110967056Y-108220746D01*
X110890234Y-108251813D01*
X110800108Y-108267056D01*
X110760642Y-108268447D01*
G37*
D11*
X202619047Y-95454819D02*
X202428571Y-95454819D01*
X202428571Y-95454819D02*
X202333333Y-95502438D01*
X202333333Y-95502438D02*
X202238095Y-95597676D01*
X202238095Y-95597676D02*
X202190476Y-95788152D01*
X202190476Y-95788152D02*
X202190476Y-96121485D01*
X202190476Y-96121485D02*
X202238095Y-96311961D01*
X202238095Y-96311961D02*
X202333333Y-96407200D01*
X202333333Y-96407200D02*
X202428571Y-96454819D01*
X202428571Y-96454819D02*
X202619047Y-96454819D01*
X202619047Y-96454819D02*
X202714285Y-96407200D01*
X202714285Y-96407200D02*
X202809523Y-96311961D01*
X202809523Y-96311961D02*
X202857142Y-96121485D01*
X202857142Y-96121485D02*
X202857142Y-95788152D01*
X202857142Y-95788152D02*
X202809523Y-95597676D01*
X202809523Y-95597676D02*
X202714285Y-95502438D01*
X202714285Y-95502438D02*
X202619047Y-95454819D01*
X201761904Y-96454819D02*
X201761904Y-95454819D01*
X201761904Y-95454819D02*
X201190476Y-96454819D01*
X201190476Y-96454819D02*
X201190476Y-95454819D01*
X202952380Y-105454819D02*
X202761904Y-105454819D01*
X202761904Y-105454819D02*
X202666666Y-105502438D01*
X202666666Y-105502438D02*
X202571428Y-105597676D01*
X202571428Y-105597676D02*
X202523809Y-105788152D01*
X202523809Y-105788152D02*
X202523809Y-106121485D01*
X202523809Y-106121485D02*
X202571428Y-106311961D01*
X202571428Y-106311961D02*
X202666666Y-106407200D01*
X202666666Y-106407200D02*
X202761904Y-106454819D01*
X202761904Y-106454819D02*
X202952380Y-106454819D01*
X202952380Y-106454819D02*
X203047618Y-106407200D01*
X203047618Y-106407200D02*
X203142856Y-106311961D01*
X203142856Y-106311961D02*
X203190475Y-106121485D01*
X203190475Y-106121485D02*
X203190475Y-105788152D01*
X203190475Y-105788152D02*
X203142856Y-105597676D01*
X203142856Y-105597676D02*
X203047618Y-105502438D01*
X203047618Y-105502438D02*
X202952380Y-105454819D01*
X201761904Y-105931009D02*
X202095237Y-105931009D01*
X202095237Y-106454819D02*
X202095237Y-105454819D01*
X202095237Y-105454819D02*
X201619047Y-105454819D01*
X200904761Y-105931009D02*
X201238094Y-105931009D01*
X201238094Y-106454819D02*
X201238094Y-105454819D01*
X201238094Y-105454819D02*
X200761904Y-105454819D01*
X189474819Y-96456779D02*
X188474819Y-96456779D01*
X188474819Y-96456779D02*
X188474819Y-96837731D01*
X188474819Y-96837731D02*
X188522438Y-96932969D01*
X188522438Y-96932969D02*
X188570057Y-96980588D01*
X188570057Y-96980588D02*
X188665295Y-97028207D01*
X188665295Y-97028207D02*
X188808152Y-97028207D01*
X188808152Y-97028207D02*
X188903390Y-96980588D01*
X188903390Y-96980588D02*
X188951009Y-96932969D01*
X188951009Y-96932969D02*
X188998628Y-96837731D01*
X188998628Y-96837731D02*
X188998628Y-96456779D01*
X188474819Y-97361541D02*
X188474819Y-97980588D01*
X188474819Y-97980588D02*
X188855771Y-97647255D01*
X188855771Y-97647255D02*
X188855771Y-97790112D01*
X188855771Y-97790112D02*
X188903390Y-97885350D01*
X188903390Y-97885350D02*
X188951009Y-97932969D01*
X188951009Y-97932969D02*
X189046247Y-97980588D01*
X189046247Y-97980588D02*
X189284342Y-97980588D01*
X189284342Y-97980588D02*
X189379580Y-97932969D01*
X189379580Y-97932969D02*
X189427200Y-97885350D01*
X189427200Y-97885350D02*
X189474819Y-97790112D01*
X189474819Y-97790112D02*
X189474819Y-97504398D01*
X189474819Y-97504398D02*
X189427200Y-97409160D01*
X189427200Y-97409160D02*
X189379580Y-97361541D01*
X199674819Y-96456779D02*
X198674819Y-96456779D01*
X198674819Y-96456779D02*
X198674819Y-96837731D01*
X198674819Y-96837731D02*
X198722438Y-96932969D01*
X198722438Y-96932969D02*
X198770057Y-96980588D01*
X198770057Y-96980588D02*
X198865295Y-97028207D01*
X198865295Y-97028207D02*
X199008152Y-97028207D01*
X199008152Y-97028207D02*
X199103390Y-96980588D01*
X199103390Y-96980588D02*
X199151009Y-96932969D01*
X199151009Y-96932969D02*
X199198628Y-96837731D01*
X199198628Y-96837731D02*
X199198628Y-96456779D01*
X199674819Y-97980588D02*
X199674819Y-97409160D01*
X199674819Y-97694874D02*
X198674819Y-97694874D01*
X198674819Y-97694874D02*
X198817676Y-97599636D01*
X198817676Y-97599636D02*
X198912914Y-97504398D01*
X198912914Y-97504398D02*
X198960533Y-97409160D01*
X193604819Y-94693922D02*
X194604819Y-95027255D01*
X194604819Y-95027255D02*
X193604819Y-95360588D01*
X194509580Y-96265350D02*
X194557200Y-96217731D01*
X194557200Y-96217731D02*
X194604819Y-96074874D01*
X194604819Y-96074874D02*
X194604819Y-95979636D01*
X194604819Y-95979636D02*
X194557200Y-95836779D01*
X194557200Y-95836779D02*
X194461961Y-95741541D01*
X194461961Y-95741541D02*
X194366723Y-95693922D01*
X194366723Y-95693922D02*
X194176247Y-95646303D01*
X194176247Y-95646303D02*
X194033390Y-95646303D01*
X194033390Y-95646303D02*
X193842914Y-95693922D01*
X193842914Y-95693922D02*
X193747676Y-95741541D01*
X193747676Y-95741541D02*
X193652438Y-95836779D01*
X193652438Y-95836779D02*
X193604819Y-95979636D01*
X193604819Y-95979636D02*
X193604819Y-96074874D01*
X193604819Y-96074874D02*
X193652438Y-96217731D01*
X193652438Y-96217731D02*
X193700057Y-96265350D01*
X194509580Y-97265350D02*
X194557200Y-97217731D01*
X194557200Y-97217731D02*
X194604819Y-97074874D01*
X194604819Y-97074874D02*
X194604819Y-96979636D01*
X194604819Y-96979636D02*
X194557200Y-96836779D01*
X194557200Y-96836779D02*
X194461961Y-96741541D01*
X194461961Y-96741541D02*
X194366723Y-96693922D01*
X194366723Y-96693922D02*
X194176247Y-96646303D01*
X194176247Y-96646303D02*
X194033390Y-96646303D01*
X194033390Y-96646303D02*
X193842914Y-96693922D01*
X193842914Y-96693922D02*
X193747676Y-96741541D01*
X193747676Y-96741541D02*
X193652438Y-96836779D01*
X193652438Y-96836779D02*
X193604819Y-96979636D01*
X193604819Y-96979636D02*
X193604819Y-97074874D01*
X193604819Y-97074874D02*
X193652438Y-97217731D01*
X193652438Y-97217731D02*
X193700057Y-97265350D01*
X196222438Y-96980588D02*
X196174819Y-96885350D01*
X196174819Y-96885350D02*
X196174819Y-96742493D01*
X196174819Y-96742493D02*
X196222438Y-96599636D01*
X196222438Y-96599636D02*
X196317676Y-96504398D01*
X196317676Y-96504398D02*
X196412914Y-96456779D01*
X196412914Y-96456779D02*
X196603390Y-96409160D01*
X196603390Y-96409160D02*
X196746247Y-96409160D01*
X196746247Y-96409160D02*
X196936723Y-96456779D01*
X196936723Y-96456779D02*
X197031961Y-96504398D01*
X197031961Y-96504398D02*
X197127200Y-96599636D01*
X197127200Y-96599636D02*
X197174819Y-96742493D01*
X197174819Y-96742493D02*
X197174819Y-96837731D01*
X197174819Y-96837731D02*
X197127200Y-96980588D01*
X197127200Y-96980588D02*
X197079580Y-97028207D01*
X197079580Y-97028207D02*
X196746247Y-97028207D01*
X196746247Y-97028207D02*
X196746247Y-96837731D01*
X197174819Y-97456779D02*
X196174819Y-97456779D01*
X196174819Y-97456779D02*
X197174819Y-98028207D01*
X197174819Y-98028207D02*
X196174819Y-98028207D01*
X197174819Y-98504398D02*
X196174819Y-98504398D01*
X196174819Y-98504398D02*
X196174819Y-98742493D01*
X196174819Y-98742493D02*
X196222438Y-98885350D01*
X196222438Y-98885350D02*
X196317676Y-98980588D01*
X196317676Y-98980588D02*
X196412914Y-99028207D01*
X196412914Y-99028207D02*
X196603390Y-99075826D01*
X196603390Y-99075826D02*
X196746247Y-99075826D01*
X196746247Y-99075826D02*
X196936723Y-99028207D01*
X196936723Y-99028207D02*
X197031961Y-98980588D01*
X197031961Y-98980588D02*
X197127200Y-98885350D01*
X197127200Y-98885350D02*
X197174819Y-98742493D01*
X197174819Y-98742493D02*
X197174819Y-98504398D01*
X192074819Y-96456779D02*
X191074819Y-96456779D01*
X191074819Y-96456779D02*
X191074819Y-96837731D01*
X191074819Y-96837731D02*
X191122438Y-96932969D01*
X191122438Y-96932969D02*
X191170057Y-96980588D01*
X191170057Y-96980588D02*
X191265295Y-97028207D01*
X191265295Y-97028207D02*
X191408152Y-97028207D01*
X191408152Y-97028207D02*
X191503390Y-96980588D01*
X191503390Y-96980588D02*
X191551009Y-96932969D01*
X191551009Y-96932969D02*
X191598628Y-96837731D01*
X191598628Y-96837731D02*
X191598628Y-96456779D01*
X191170057Y-97409160D02*
X191122438Y-97456779D01*
X191122438Y-97456779D02*
X191074819Y-97552017D01*
X191074819Y-97552017D02*
X191074819Y-97790112D01*
X191074819Y-97790112D02*
X191122438Y-97885350D01*
X191122438Y-97885350D02*
X191170057Y-97932969D01*
X191170057Y-97932969D02*
X191265295Y-97980588D01*
X191265295Y-97980588D02*
X191360533Y-97980588D01*
X191360533Y-97980588D02*
X191503390Y-97932969D01*
X191503390Y-97932969D02*
X192074819Y-97361541D01*
X192074819Y-97361541D02*
X192074819Y-97980588D01*
D12*
%TO.C,JST1*%
X184600000Y-104500000D02*
X184600000Y-105500000D01*
X184600000Y-107500000D02*
X184600000Y-106500000D01*
X185100000Y-105000000D02*
X184100000Y-105000000D01*
D13*
X185640000Y-102940000D02*
X186640000Y-102940000D01*
X185640000Y-103860000D02*
X185640000Y-102940000D01*
X185640000Y-108140000D02*
X185640000Y-109060000D01*
X185640000Y-109060000D02*
X186640000Y-109060000D01*
X193460000Y-102940000D02*
X192460000Y-102940000D01*
X193460000Y-103940000D02*
X193460000Y-102940000D01*
X193460000Y-108140000D02*
X193460000Y-109060000D01*
X193460000Y-109060000D02*
X192460000Y-109060000D01*
D12*
%TO.C,RST1*%
X195861973Y-111216461D02*
X195718579Y-111421249D01*
X195923367Y-111564643D02*
X195718579Y-111421249D01*
X198270994Y-107776022D02*
X198414389Y-107571234D01*
X198380823Y-113285372D02*
X198585611Y-113428766D01*
X198619177Y-107714628D02*
X198414389Y-107571234D01*
X198729006Y-113223978D02*
X198585611Y-113428766D01*
X201076633Y-109435357D02*
X201281421Y-109578751D01*
X201138027Y-109783539D02*
X201281421Y-109578751D01*
D13*
%TO.C,PWR1*%
X200575000Y-99400000D02*
X200575000Y-101100000D01*
X200575000Y-102400000D02*
X200575000Y-102600000D01*
X201625000Y-97550000D02*
X202415000Y-97550000D01*
X202415000Y-104450000D02*
X201625000Y-104450000D01*
X203425000Y-98150000D02*
X203425000Y-103850000D01*
%TO.C,DISP1*%
X187590000Y-91370000D02*
X187590000Y-94030000D01*
X200410000Y-91370000D02*
X187590000Y-91370000D01*
X200410000Y-91370000D02*
X200410000Y-94030000D01*
X200410000Y-94030000D02*
X187590000Y-94030000D01*
%TD*%
M02*
