%TF.GenerationSoftware,KiCad,Pcbnew,9.0.0*%
%TF.CreationDate,2025-03-13T17:07:21-04:00*%
%TF.ProjectId,Tenebra,54656e65-6272-4612-9e6b-696361645f70,v1.0.0*%
%TF.SameCoordinates,Original*%
%TF.FileFunction,Soldermask,Top*%
%TF.FilePolarity,Negative*%
%FSLAX46Y46*%
G04 Gerber Fmt 4.6, Leading zero omitted, Abs format (unit mm)*
G04 Created by KiCad (PCBNEW 9.0.0) date 2025-03-13 17:07:21*
%MOMM*%
%LPD*%
G01*
G04 APERTURE LIST*
G04 Aperture macros list*
%AMRotRect*
0 Rectangle, with rotation*
0 The origin of the aperture is its center*
0 $1 length*
0 $2 width*
0 $3 Rotation angle, in degrees counterclockwise*
0 Add horizontal line*
21,1,$1,$2,0,0,$3*%
%AMFreePoly0*
4,1,6,0.600000,-1.000000,0.000000,-0.400000,-0.600000,-1.000000,-0.600000,0.250000,0.600000,0.250000,0.600000,-1.000000,0.600000,-1.000000,$1*%
%AMFreePoly1*
4,1,6,0.600000,-0.200000,0.600000,-0.400000,-0.600000,-0.400000,-0.600000,-0.200000,0.000000,0.400000,0.600000,-0.200000,0.600000,-0.200000,$1*%
G04 Aperture macros list end*
%ADD10C,1.701800*%
%ADD11C,3.000000*%
%ADD12C,3.429000*%
%ADD13R,2.600000X2.600000*%
%ADD14C,1.700000*%
%ADD15RotRect,2.600000X2.600000X55.000000*%
%ADD16FreePoly0,90.000000*%
%ADD17O,1.750000X1.200000*%
%ADD18FreePoly1,90.000000*%
%ADD19RotRect,1.550000X1.000000X55.000000*%
%ADD20R,0.800000X1.000000*%
%ADD21C,0.900000*%
%ADD22R,1.500000X0.700000*%
%ADD23O,1.700000X1.700000*%
%ADD24R,1.200000X0.600000*%
%ADD25RotRect,2.600000X2.600000X345.000000*%
G04 APERTURE END LIST*
D10*
%TO.C,S9*%
X130500000Y-54000000D03*
D11*
X131000000Y-50250000D03*
X136000000Y-48050000D03*
X136000000Y-48050000D03*
D12*
X136000000Y-54000000D03*
D11*
X141000000Y-50250000D03*
D10*
X141500000Y-54000000D03*
D13*
X139275000Y-48050000D03*
X127725000Y-50250000D03*
%TD*%
D14*
%TO.C,MCU1*%
X201620000Y-59800000D03*
X201620000Y-62340000D03*
X201620000Y-64880000D03*
X201620000Y-67420000D03*
X201620000Y-69960000D03*
X201620000Y-72500000D03*
X201620000Y-75040000D03*
X201620000Y-77580000D03*
X201620000Y-80120000D03*
X201620000Y-82660000D03*
X201620000Y-85200000D03*
X201620000Y-87740000D03*
X186380000Y-87740000D03*
X186380000Y-85200000D03*
X186380000Y-82660000D03*
X186380000Y-80120000D03*
X186380000Y-77580000D03*
X186380000Y-75040000D03*
X186380000Y-72500000D03*
X186380000Y-69960000D03*
X186380000Y-67420000D03*
X186380000Y-64880000D03*
X186380000Y-62340000D03*
X186380000Y-59800000D03*
X188920000Y-82660000D03*
X191460000Y-82660000D03*
X194000000Y-82660000D03*
%TD*%
D10*
%TO.C,S17*%
X179483634Y-129652489D03*
D11*
X176698602Y-127092002D03*
X177764349Y-121734373D03*
X177764349Y-121734373D03*
D12*
X182638304Y-125147153D03*
D11*
X182434366Y-118900481D03*
D10*
X185792974Y-120641817D03*
D15*
X179642812Y-119051650D03*
X174820139Y-129774725D03*
%TD*%
D16*
%TO.C,JST1*%
X189184000Y-105000000D03*
X189184000Y-107000000D03*
D17*
X192000000Y-105000000D03*
X192000000Y-107000000D03*
D18*
X190200000Y-105000000D03*
X190200000Y-107000000D03*
%TD*%
D19*
%TO.C,RST1*%
X197690641Y-113137814D03*
X196298083Y-112162734D03*
X200701917Y-108837266D03*
X199309359Y-107862186D03*
%TD*%
D10*
%TO.C,S4*%
X112500000Y-95000000D03*
D11*
X113000000Y-91250000D03*
X118000000Y-89050000D03*
X118000000Y-89050000D03*
D12*
X118000000Y-95000000D03*
D11*
X123000000Y-91250000D03*
D10*
X123500000Y-95000000D03*
D13*
X121275000Y-89050000D03*
X109725000Y-91250000D03*
%TD*%
D10*
%TO.C,S12*%
X148500000Y-59000000D03*
D11*
X149000000Y-55250000D03*
X154000000Y-53050000D03*
X154000000Y-53050000D03*
D12*
X154000000Y-59000000D03*
D11*
X159000000Y-55250000D03*
D10*
X159500000Y-59000000D03*
D13*
X157275000Y-53050000D03*
X145725000Y-55250000D03*
%TD*%
D10*
%TO.C,S1*%
X94500000Y-100000000D03*
D11*
X95000000Y-96250000D03*
X100000000Y-94050000D03*
X100000000Y-94050000D03*
D12*
X100000000Y-100000000D03*
D11*
X105000000Y-96250000D03*
D10*
X105500000Y-100000000D03*
D13*
X103275000Y-94050000D03*
X91725000Y-96250000D03*
%TD*%
D10*
%TO.C,S15*%
X166500000Y-62000000D03*
D11*
X167000000Y-58250000D03*
X172000000Y-56050000D03*
X172000000Y-56050000D03*
D12*
X172000000Y-62000000D03*
D11*
X177000000Y-58250000D03*
D10*
X177500000Y-62000000D03*
D13*
X175275000Y-56050000D03*
X163725000Y-58250000D03*
%TD*%
D10*
%TO.C,S6*%
X112500000Y-61000000D03*
D11*
X113000000Y-57250000D03*
X118000000Y-55050000D03*
X118000000Y-55050000D03*
D12*
X118000000Y-61000000D03*
D11*
X123000000Y-57250000D03*
D10*
X123500000Y-61000000D03*
D13*
X121275000Y-55050000D03*
X109725000Y-57250000D03*
%TD*%
D10*
%TO.C,S14*%
X166500000Y-79000000D03*
D11*
X167000000Y-75250000D03*
X172000000Y-73050000D03*
X172000000Y-73050000D03*
D12*
X172000000Y-79000000D03*
D11*
X177000000Y-75250000D03*
D10*
X177500000Y-79000000D03*
D13*
X175275000Y-73050000D03*
X163725000Y-75250000D03*
%TD*%
D10*
%TO.C,S10*%
X148500000Y-93000000D03*
D11*
X149000000Y-89250000D03*
X154000000Y-87050000D03*
X154000000Y-87050000D03*
D12*
X154000000Y-93000000D03*
D11*
X159000000Y-89250000D03*
D10*
X159500000Y-93000000D03*
D13*
X157275000Y-87050000D03*
X145725000Y-89250000D03*
%TD*%
D10*
%TO.C,S8*%
X130500000Y-71000000D03*
D11*
X131000000Y-67250000D03*
X136000000Y-65050000D03*
X136000000Y-65050000D03*
D12*
X136000000Y-71000000D03*
D11*
X141000000Y-67250000D03*
D10*
X141500000Y-71000000D03*
D13*
X139275000Y-65050000D03*
X127725000Y-67250000D03*
%TD*%
D10*
%TO.C,S11*%
X148500000Y-76000000D03*
D11*
X149000000Y-72250000D03*
X154000000Y-70050000D03*
X154000000Y-70050000D03*
D12*
X154000000Y-76000000D03*
D11*
X159000000Y-72250000D03*
D10*
X159500000Y-76000000D03*
D13*
X157275000Y-70050000D03*
X145725000Y-72250000D03*
%TD*%
D10*
%TO.C,S13*%
X166500000Y-96000000D03*
D11*
X167000000Y-92250000D03*
X172000000Y-90050000D03*
X172000000Y-90050000D03*
D12*
X172000000Y-96000000D03*
D11*
X177000000Y-92250000D03*
D10*
X177500000Y-96000000D03*
D13*
X175275000Y-90050000D03*
X163725000Y-92250000D03*
%TD*%
D10*
%TO.C,S2*%
X94500000Y-83000000D03*
D11*
X95000000Y-79250000D03*
X100000000Y-77050000D03*
X100000000Y-77050000D03*
D12*
X100000000Y-83000000D03*
D11*
X105000000Y-79250000D03*
D10*
X105500000Y-83000000D03*
D13*
X103275000Y-77050000D03*
X91725000Y-79250000D03*
%TD*%
D10*
%TO.C,S7*%
X130500000Y-88000000D03*
D11*
X131000000Y-84250000D03*
X136000000Y-82050000D03*
X136000000Y-82050000D03*
D12*
X136000000Y-88000000D03*
D11*
X141000000Y-84250000D03*
D10*
X141500000Y-88000000D03*
D13*
X139275000Y-82050000D03*
X127725000Y-84250000D03*
%TD*%
D10*
%TO.C,S3*%
X94500000Y-66000000D03*
D11*
X95000000Y-62250000D03*
X100000000Y-60050000D03*
X100000000Y-60050000D03*
D12*
X100000000Y-66000000D03*
D11*
X105000000Y-62250000D03*
D10*
X105500000Y-66000000D03*
D13*
X103275000Y-60050000D03*
X91725000Y-62250000D03*
%TD*%
D10*
%TO.C,S18*%
X193409219Y-139403288D03*
D11*
X190624187Y-136842801D03*
X191689934Y-131485172D03*
X191689934Y-131485172D03*
D12*
X196563889Y-134897952D03*
D11*
X196359951Y-128651280D03*
D10*
X199718559Y-130392616D03*
D15*
X193568397Y-128802449D03*
X188745724Y-139525524D03*
%TD*%
D20*
%TO.C,PWR1*%
X200915000Y-97350000D03*
X200915000Y-104650000D03*
D21*
X202025000Y-99500000D03*
X202025000Y-102500000D03*
D20*
X203125000Y-97350000D03*
X203125000Y-104650000D03*
D22*
X200265000Y-103250000D03*
X200265000Y-100250000D03*
X200265000Y-98750000D03*
%TD*%
D10*
%TO.C,S5*%
X112500000Y-78000000D03*
D11*
X113000000Y-74250000D03*
X118000000Y-72050000D03*
X118000000Y-72050000D03*
D12*
X118000000Y-78000000D03*
D11*
X123000000Y-74250000D03*
D10*
X123500000Y-78000000D03*
D13*
X121275000Y-72050000D03*
X109725000Y-74250000D03*
%TD*%
D23*
%TO.C,DISP1*%
X188920000Y-92700000D03*
X191460000Y-92700000D03*
X194000000Y-92700000D03*
X196540000Y-92700000D03*
D14*
X199080000Y-92700000D03*
D24*
X188920000Y-95350000D03*
X191460000Y-95350000D03*
X196540000Y-95350000D03*
X199080000Y-95350000D03*
X188920000Y-94450000D03*
X191460000Y-94450000D03*
X196540000Y-94450000D03*
X199080000Y-94450000D03*
%TD*%
D10*
%TO.C,S16*%
X157687408Y-112576495D03*
D11*
X159140942Y-109083683D03*
X164539973Y-108252741D03*
X164539973Y-108252741D03*
D12*
X163000000Y-114000000D03*
D11*
X168800201Y-111671873D03*
D10*
X168312592Y-115423505D03*
D25*
X167703380Y-109100374D03*
X155977535Y-108236051D03*
%TD*%
M02*
